<ttFont>
    <TTGlyph name="A" xMin="-9" yMin="-35" xMax="469" yMax="716">
      <contour>
        <pt x="293" y="694" on="1"/>
        <pt x="308" y="696" on="1"/>
        <pt x="308" y="693" on="0"/>
        <pt x="392" y="333" on="1"/>
        <pt x="469" y="-28" on="1"/>
        <pt x="429" y="-35" on="0"/>
        <pt x="359" y="-35" on="0"/>
        <pt x="315" y="-25" on="1"/>
        <pt x="314" y="-21" on="0"/>
        <pt x="311" y="-16" on="0"/>
        <pt x="310" y="-12" on="0"/>
        <pt x="307" y="-10" on="0"/>
        <pt x="306" y="-8" on="0"/>
        <pt x="303" y="-7" on="0"/>
        <pt x="302" y="-6" on="1"/>
        <pt x="299" y="-5" on="0"/>
        <pt x="295" y="-5" on="1"/>
        <pt x="286" y="22" on="0"/>
        <pt x="267" y="101" on="0"/>
        <pt x="255" y="139" on="0"/>
        <pt x="248" y="139" on="1"/>
        <pt x="220" y="138" on="1"/>
        <pt x="215" y="124" on="0"/>
        <pt x="192" y="1" on="0"/>
        <pt x="175" y="-29" on="1"/>
        <pt x="175" y="-29" on="0"/>
        <pt x="153" y="-31" on="1"/>
        <pt x="150" y="-31" on="0"/>
        <pt x="64" y="-29" on="1"/>
        <pt x="11" y="-28" on="1"/>
        <pt x="14" y="-8" on="1"/>
        <pt x="-9" y="-8" on="1"/>
        <pt x="5" y="66" on="1"/>
        <pt x="74" y="459" on="0"/>
        <pt x="149" y="709" on="1"/>
        <pt x="159" y="711" on="0"/>
        <pt x="178" y="711" on="1"/>
        <pt x="192" y="710" on="1"/>
        <pt x="221" y="710" on="0"/>
        <pt x="288" y="716" on="1"/>
        <pt x="292" y="698" on="0"/>
      </contour>
      <contour>
        <pt x="193" y="168" on="1"/>
        <pt x="222" y="169" on="1"/>
        <pt x="235" y="169" on="1"/>
        <pt x="237" y="169" on="0"/>
        <pt x="255" y="167" on="1"/>
        <pt x="265" y="146" on="0"/>
        <pt x="295" y="23" on="0"/>
        <pt x="302" y="4" on="1"/>
        <pt x="303" y="4" on="1"/>
        <pt x="342" y="-5" on="0"/>
        <pt x="410" y="-5" on="0"/>
        <pt x="437" y="0" on="1"/>
        <pt x="437" y="1" on="1"/>
        <pt x="362" y="351" on="1"/>
        <pt x="353" y="389" on="0"/>
        <pt x="280" y="705" on="1"/>
        <pt x="236" y="701" on="0"/>
        <pt x="193" y="701" on="1"/>
        <pt x="172" y="701" on="1"/>
        <pt x="160" y="701" on="0"/>
        <pt x="157" y="700" on="1"/>
        <pt x="115" y="558" on="0"/>
        <pt x="43" y="226" on="0"/>
        <pt x="5" y="4" on="0"/>
        <pt x="4" y="2" on="1"/>
        <pt x="5" y="1" on="0"/>
        <pt x="6" y="1" on="1"/>
        <pt x="30" y="1" on="1"/>
        <pt x="133" y="-1" on="1"/>
        <pt x="143" y="-1" on="0"/>
        <pt x="149" y="1" on="1"/>
        <pt x="162" y="24" on="0"/>
        <pt x="185" y="149" on="0"/>
      </contour>
      <contour>
        <pt x="260" y="286" on="1"/>
        <pt x="210" y="285" on="1"/>
        <pt x="205" y="285" on="0"/>
        <pt x="190" y="286" on="0"/>
        <pt x="186" y="286" on="1"/>
        <pt x="190" y="313" on="0"/>
        <pt x="199" y="389" on="0"/>
        <pt x="205" y="431" on="0"/>
        <pt x="208" y="454" on="1"/>
        <pt x="215" y="495" on="0"/>
        <pt x="222" y="495" on="1"/>
        <pt x="234" y="495" on="0"/>
      </contour>
      <contour>
        <pt x="235" y="410" on="1"/>
        <pt x="234" y="403" on="0"/>
        <pt x="219" y="296" on="1"/>
        <pt x="248" y="296" on="1"/>
        <pt x="245" y="323" on="0"/>
        <pt x="236" y="400" on="0"/>
      </contour>
    </TTGlyph>
    <TTGlyph name="AE" xMin="-10" yMin="-31" xMax="729" yMax="709">
      <contour>
        <pt x="708" y="127" on="1"/>
        <pt x="728" y="126" on="1"/>
        <pt x="728" y="115" on="1"/>
        <pt x="729" y="100" on="0"/>
        <pt x="729" y="22" on="0"/>
        <pt x="718" y="-26" on="1"/>
        <pt x="718" y="-26" on="0"/>
        <pt x="447" y="-29" on="1"/>
        <pt x="355" y="-29" on="0"/>
        <pt x="292" y="-25" on="1"/>
        <pt x="291" y="-22" on="0"/>
        <pt x="289" y="-12" on="0"/>
        <pt x="288" y="-10" on="1"/>
        <pt x="284" y="-5" on="0"/>
        <pt x="272" y="-5" on="1"/>
        <pt x="267" y="16" on="0"/>
        <pt x="253" y="61" on="0"/>
        <pt x="247" y="87" on="1"/>
        <pt x="240" y="88" on="0"/>
        <pt x="209" y="88" on="1"/>
        <pt x="204" y="73" on="0"/>
        <pt x="201" y="67" on="1"/>
        <pt x="202" y="68" on="1"/>
        <pt x="184" y="-14" on="0"/>
        <pt x="169" y="-29" on="1"/>
        <pt x="90" y="-27" on="1"/>
        <pt x="77" y="-27" on="0"/>
        <pt x="24" y="-31" on="0"/>
        <pt x="10" y="-31" on="1"/>
        <pt x="11" y="-23" on="0"/>
        <pt x="13" y="-9" on="1"/>
        <pt x="11" y="-10" on="0"/>
        <pt x="2" y="-11" on="0"/>
        <pt x="-10" y="-11" on="1"/>
        <pt x="4" y="66" on="0"/>
        <pt x="26" y="208" on="0"/>
        <pt x="123" y="611" on="0"/>
        <pt x="145" y="703" on="1"/>
        <pt x="279" y="709" on="0"/>
        <pt x="696" y="709" on="0"/>
        <pt x="704" y="708" on="1"/>
        <pt x="704" y="691" on="0"/>
        <pt x="714" y="688" on="1"/>
        <pt x="715" y="687" on="0"/>
        <pt x="724" y="688" on="1"/>
        <pt x="727" y="640" on="0"/>
        <pt x="727" y="632" on="1"/>
        <pt x="725" y="527" on="1"/>
        <pt x="682" y="516" on="0"/>
        <pt x="606" y="516" on="1"/>
        <pt x="571" y="516" on="1"/>
        <pt x="524" y="517" on="1"/>
        <pt x="489" y="517" on="0"/>
        <pt x="458" y="513" on="1"/>
        <pt x="455" y="444" on="1"/>
        <pt x="455" y="432" on="1"/>
        <pt x="491" y="432" on="1"/>
        <pt x="539" y="432" on="0"/>
        <pt x="561" y="428" on="1"/>
        <pt x="564" y="410" on="1"/>
        <pt x="567" y="410" on="0"/>
        <pt x="581" y="408" on="1"/>
        <pt x="586" y="382" on="0"/>
        <pt x="586" y="348" on="1"/>
        <pt x="584" y="252" on="1"/>
        <pt x="556" y="245" on="0"/>
        <pt x="518" y="245" on="1"/>
        <pt x="484" y="245" on="1"/>
        <pt x="464" y="245" on="0"/>
        <pt x="463" y="244" on="1"/>
        <pt x="460" y="187" on="0"/>
        <pt x="460" y="163" on="0"/>
        <pt x="461" y="152" on="1"/>
        <pt x="476" y="151" on="0"/>
        <pt x="507" y="151" on="1"/>
        <pt x="553" y="151" on="1"/>
        <pt x="649" y="151" on="0"/>
        <pt x="708" y="146" on="1"/>
      </contour>
      <contour>
        <pt x="425" y="1" on="1"/>
        <pt x="690" y="4" on="1"/>
        <pt x="692" y="6" on="1"/>
        <pt x="699" y="44" on="0"/>
        <pt x="699" y="119" on="0"/>
        <pt x="698" y="134" on="1"/>
        <pt x="698" y="137" on="1"/>
        <pt x="654" y="141" on="0"/>
        <pt x="475" y="141" on="0"/>
        <pt x="440" y="143" on="1"/>
        <pt x="439" y="143" on="1"/>
        <pt x="430" y="162" on="0"/>
        <pt x="430" y="251" on="0"/>
        <pt x="433" y="270" on="1"/>
        <pt x="438" y="275" on="0"/>
        <pt x="480" y="276" on="0"/>
        <pt x="538" y="277" on="0"/>
        <pt x="554" y="280" on="1"/>
        <pt x="556" y="366" on="1"/>
        <pt x="556" y="396" on="0"/>
        <pt x="552" y="419" on="1"/>
        <pt x="530" y="422" on="0"/>
        <pt x="507" y="422" on="1"/>
        <pt x="475" y="422" on="1"/>
        <pt x="446" y="422" on="0"/>
        <pt x="431" y="425" on="1"/>
        <pt x="425" y="439" on="0"/>
        <pt x="425" y="464" on="1"/>
        <pt x="428" y="529" on="1"/>
        <pt x="428" y="542" on="1"/>
        <pt x="462" y="547" on="0"/>
        <pt x="509" y="547" on="1"/>
        <pt x="592" y="546" on="1"/>
        <pt x="658" y="546" on="0"/>
        <pt x="695" y="555" on="1"/>
        <pt x="695" y="557" on="1"/>
        <pt x="697" y="652" on="1"/>
        <pt x="697" y="688" on="0"/>
        <pt x="695" y="699" on="1"/>
        <pt x="695" y="701" on="1"/>
        <pt x="334" y="701" on="0"/>
        <pt x="153" y="693" on="1"/>
        <pt x="96" y="445" on="0"/>
        <pt x="72" y="350" on="1"/>
        <pt x="36" y="209" on="0"/>
        <pt x="31" y="177" on="1"/>
        <pt x="25" y="141" on="1"/>
        <pt x="23" y="130" on="0"/>
        <pt x="9" y="41" on="0"/>
        <pt x="2" y="-1" on="1"/>
        <pt x="62" y="2" on="1"/>
        <pt x="145" y="1" on="1"/>
        <pt x="148" y="3" on="1"/>
        <pt x="153" y="24" on="0"/>
        <pt x="180" y="116" on="1"/>
        <pt x="183" y="118" on="1"/>
        <pt x="252" y="116" on="1"/>
        <pt x="252" y="115" on="1"/>
        <pt x="256" y="94" on="0"/>
        <pt x="276" y="21" on="0"/>
        <pt x="280" y="5" on="1"/>
        <pt x="343" y="1" on="0"/>
      </contour>
      <contour>
        <pt x="237" y="283" on="1"/>
        <pt x="200" y="285" on="1"/>
        <pt x="191" y="285" on="0"/>
        <pt x="188" y="284" on="1"/>
        <pt x="186" y="284" on="1"/>
        <pt x="190" y="328" on="0"/>
        <pt x="200" y="371" on="0"/>
        <pt x="218" y="421" on="1"/>
        <pt x="236" y="360" on="1"/>
        <pt x="250" y="312" on="0"/>
        <pt x="254" y="287" on="1"/>
        <pt x="250" y="283" on="0"/>
      </contour>
      <contour>
        <pt x="220" y="294" on="1"/>
        <pt x="229" y="291" on="0"/>
        <pt x="240" y="291" on="0"/>
        <pt x="242" y="292" on="0"/>
        <pt x="243" y="292" on="1"/>
        <pt x="241" y="301" on="0"/>
        <pt x="230" y="343" on="0"/>
        <pt x="229" y="347" on="1"/>
        <pt x="226" y="338" on="0"/>
        <pt x="219" y="294" on="1"/>
      </contour>
    </TTGlyph>
    <TTGlyph name="Aacute" xMin="-8" yMin="-35" xMax="469" yMax="930">
      <contour>
        <pt x="178" y="711" on="1"/>
        <pt x="192" y="710" on="1"/>
        <pt x="221" y="710" on="0"/>
        <pt x="288" y="716" on="1"/>
        <pt x="290" y="706" on="0"/>
        <pt x="294" y="694" on="1"/>
        <pt x="298" y="696" on="0"/>
        <pt x="308" y="696" on="1"/>
        <pt x="321" y="655" on="0"/>
        <pt x="387" y="354" on="0"/>
        <pt x="392" y="333" on="1"/>
        <pt x="469" y="-28" on="1"/>
        <pt x="429" y="-35" on="0"/>
        <pt x="359" y="-35" on="0"/>
        <pt x="315" y="-25" on="1"/>
        <pt x="314" y="-21" on="0"/>
        <pt x="311" y="-16" on="0"/>
        <pt x="310" y="-12" on="0"/>
        <pt x="307" y="-10" on="0"/>
        <pt x="306" y="-8" on="0"/>
        <pt x="303" y="-7" on="0"/>
        <pt x="302" y="-6" on="1"/>
        <pt x="299" y="-5" on="0"/>
        <pt x="295" y="-5" on="1"/>
        <pt x="286" y="22" on="0"/>
        <pt x="267" y="101" on="0"/>
        <pt x="255" y="139" on="0"/>
        <pt x="248" y="139" on="1"/>
        <pt x="220" y="138" on="1"/>
        <pt x="215" y="124" on="0"/>
        <pt x="192" y="1" on="0"/>
        <pt x="175" y="-29" on="1"/>
        <pt x="153" y="-31" on="1"/>
        <pt x="150" y="-31" on="0"/>
        <pt x="64" y="-29" on="1"/>
        <pt x="12" y="-28" on="1"/>
        <pt x="12" y="-25" on="1"/>
        <pt x="14" y="-8" on="1"/>
        <pt x="-8" y="-8" on="1"/>
        <pt x="56" y="407" on="0"/>
        <pt x="149" y="709" on="1"/>
        <pt x="159" y="711" on="0"/>
      </contour>
      <contour>
        <pt x="193" y="168" on="1"/>
        <pt x="222" y="169" on="1"/>
        <pt x="235" y="169" on="1"/>
        <pt x="237" y="169" on="0"/>
        <pt x="255" y="167" on="1"/>
        <pt x="265" y="146" on="0"/>
        <pt x="295" y="23" on="0"/>
        <pt x="302" y="4" on="1"/>
        <pt x="303" y="4" on="1"/>
        <pt x="342" y="-5" on="0"/>
        <pt x="410" y="-5" on="0"/>
        <pt x="437" y="0" on="1"/>
        <pt x="437" y="1" on="1"/>
        <pt x="362" y="351" on="1"/>
        <pt x="357" y="373" on="0"/>
        <pt x="338" y="456" on="1"/>
        <pt x="291" y="669" on="0"/>
        <pt x="280" y="705" on="1"/>
        <pt x="236" y="701" on="0"/>
        <pt x="193" y="701" on="1"/>
        <pt x="172" y="701" on="1"/>
        <pt x="160" y="701" on="0"/>
        <pt x="157" y="700" on="1"/>
        <pt x="59" y="375" on="0"/>
        <pt x="4" y="2" on="1"/>
        <pt x="5" y="1" on="0"/>
        <pt x="6" y="1" on="1"/>
        <pt x="30" y="1" on="1"/>
        <pt x="133" y="-1" on="1"/>
        <pt x="143" y="-1" on="0"/>
        <pt x="149" y="1" on="1"/>
        <pt x="162" y="24" on="0"/>
        <pt x="185" y="149" on="0"/>
      </contour>
      <contour>
        <pt x="292" y="721" on="1"/>
        <pt x="271" y="718" on="0"/>
        <pt x="167" y="718" on="0"/>
        <pt x="131" y="729" on="1"/>
        <pt x="137" y="733" on="0"/>
        <pt x="146" y="742" on="1"/>
        <pt x="141" y="743" on="0"/>
        <pt x="133" y="744" on="1"/>
        <pt x="117" y="748" on="0"/>
        <pt x="111" y="749" on="1"/>
        <pt x="145" y="780" on="0"/>
        <pt x="263" y="901" on="0"/>
        <pt x="300" y="930" on="1"/>
        <pt x="319" y="909" on="1"/>
        <pt x="320" y="910" on="1"/>
        <pt x="401" y="826" on="1"/>
        <pt x="399" y="824" on="0"/>
        <pt x="363" y="791" on="1"/>
        <pt x="364" y="791" on="1"/>
        <pt x="303" y="741" on="0"/>
      </contour>
      <contour>
        <pt x="132" y="754" on="1"/>
        <pt x="150" y="748" on="0"/>
        <pt x="256" y="748" on="0"/>
        <pt x="266" y="750" on="1"/>
        <pt x="275" y="765" on="0"/>
        <pt x="361" y="840" on="0"/>
        <pt x="368" y="847" on="1"/>
        <pt x="299" y="917" on="1"/>
        <pt x="271" y="895" on="0"/>
        <pt x="138" y="760" on="0"/>
      </contour>
      <contour>
        <pt x="260" y="286" on="1"/>
        <pt x="210" y="285" on="1"/>
        <pt x="205" y="285" on="0"/>
        <pt x="190" y="286" on="0"/>
        <pt x="186" y="286" on="1"/>
        <pt x="190" y="313" on="0"/>
        <pt x="199" y="389" on="0"/>
        <pt x="205" y="431" on="0"/>
        <pt x="208" y="454" on="1"/>
        <pt x="215" y="495" on="0"/>
        <pt x="222" y="495" on="1"/>
        <pt x="234" y="495" on="0"/>
      </contour>
      <contour>
        <pt x="235" y="410" on="1"/>
        <pt x="234" y="403" on="0"/>
        <pt x="219" y="296" on="1"/>
        <pt x="248" y="296" on="1"/>
        <pt x="245" y="323" on="0"/>
        <pt x="236" y="400" on="0"/>
      </contour>
    </TTGlyph>
    <TTGlyph name="Acircumflex" xMin="-9" yMin="-35" xMax="469" yMax="932">
      <contour>
        <pt x="293" y="694" on="1"/>
        <pt x="308" y="696" on="1"/>
        <pt x="308" y="693" on="0"/>
        <pt x="392" y="333" on="1"/>
        <pt x="469" y="-28" on="1"/>
        <pt x="429" y="-35" on="0"/>
        <pt x="359" y="-35" on="0"/>
        <pt x="315" y="-25" on="1"/>
        <pt x="314" y="-21" on="0"/>
        <pt x="311" y="-16" on="0"/>
        <pt x="310" y="-12" on="0"/>
        <pt x="307" y="-10" on="0"/>
        <pt x="306" y="-8" on="0"/>
        <pt x="303" y="-7" on="0"/>
        <pt x="302" y="-6" on="1"/>
        <pt x="299" y="-5" on="0"/>
        <pt x="295" y="-5" on="1"/>
        <pt x="286" y="22" on="0"/>
        <pt x="267" y="101" on="0"/>
        <pt x="255" y="139" on="0"/>
        <pt x="248" y="139" on="1"/>
        <pt x="220" y="138" on="1"/>
        <pt x="215" y="124" on="0"/>
        <pt x="192" y="1" on="0"/>
        <pt x="175" y="-29" on="1"/>
        <pt x="175" y="-29" on="0"/>
        <pt x="153" y="-31" on="1"/>
        <pt x="150" y="-31" on="0"/>
        <pt x="64" y="-29" on="1"/>
        <pt x="11" y="-28" on="1"/>
        <pt x="14" y="-8" on="1"/>
        <pt x="-9" y="-8" on="1"/>
        <pt x="5" y="66" on="1"/>
        <pt x="74" y="459" on="0"/>
        <pt x="149" y="709" on="1"/>
        <pt x="159" y="711" on="0"/>
        <pt x="178" y="711" on="1"/>
        <pt x="192" y="710" on="1"/>
        <pt x="221" y="710" on="0"/>
        <pt x="288" y="716" on="1"/>
        <pt x="292" y="698" on="0"/>
      </contour>
      <contour>
        <pt x="193" y="168" on="1"/>
        <pt x="222" y="169" on="1"/>
        <pt x="235" y="169" on="1"/>
        <pt x="237" y="169" on="0"/>
        <pt x="255" y="167" on="1"/>
        <pt x="265" y="146" on="0"/>
        <pt x="295" y="23" on="0"/>
        <pt x="302" y="4" on="1"/>
        <pt x="303" y="4" on="1"/>
        <pt x="342" y="-5" on="0"/>
        <pt x="410" y="-5" on="0"/>
        <pt x="437" y="0" on="1"/>
        <pt x="437" y="1" on="1"/>
        <pt x="362" y="351" on="1"/>
        <pt x="353" y="389" on="0"/>
        <pt x="280" y="705" on="1"/>
        <pt x="236" y="701" on="0"/>
        <pt x="193" y="701" on="1"/>
        <pt x="172" y="701" on="1"/>
        <pt x="160" y="701" on="0"/>
        <pt x="157" y="700" on="1"/>
        <pt x="115" y="558" on="0"/>
        <pt x="43" y="226" on="0"/>
        <pt x="5" y="4" on="0"/>
        <pt x="4" y="2" on="1"/>
        <pt x="5" y="1" on="0"/>
        <pt x="6" y="1" on="1"/>
        <pt x="30" y="1" on="1"/>
        <pt x="133" y="-1" on="1"/>
        <pt x="143" y="-1" on="0"/>
        <pt x="149" y="1" on="1"/>
        <pt x="162" y="24" on="0"/>
        <pt x="185" y="149" on="0"/>
      </contour>
      <contour>
        <pt x="303" y="719" on="1"/>
        <pt x="272" y="719" on="0"/>
        <pt x="235" y="768" on="1"/>
        <pt x="229" y="764" on="0"/>
        <pt x="218" y="750" on="1"/>
        <pt x="192" y="719" on="0"/>
        <pt x="168" y="719" on="1"/>
        <pt x="163" y="719" on="0"/>
        <pt x="139" y="721" on="0"/>
        <pt x="86" y="724" on="0"/>
        <pt x="60" y="726" on="1"/>
        <pt x="62" y="729" on="0"/>
        <pt x="73" y="743" on="1"/>
        <pt x="40" y="746" on="1"/>
        <pt x="86" y="807" on="0"/>
        <pt x="150" y="868" on="0"/>
        <pt x="167" y="884" on="0"/>
        <pt x="214" y="925" on="0"/>
        <pt x="221" y="932" on="1"/>
        <pt x="241" y="912" on="1"/>
        <pt x="419" y="749" on="1"/>
        <pt x="397" y="729" on="1"/>
        <pt x="398" y="728" on="0"/>
        <pt x="398" y="726" on="0"/>
        <pt x="388" y="724" on="1"/>
        <pt x="351" y="719" on="0"/>
        <pt x="338" y="719" on="1"/>
        <pt x="320" y="719" on="0"/>
      </contour>
      <contour>
        <pt x="59" y="755" on="1"/>
        <pt x="130" y="749" on="0"/>
        <pt x="150" y="749" on="0"/>
        <pt x="166" y="751" on="1"/>
        <pt x="171" y="753" on="0"/>
        <pt x="213" y="798" on="0"/>
        <pt x="218" y="800" on="1"/>
        <pt x="223" y="797" on="0"/>
        <pt x="263" y="751" on="0"/>
        <pt x="278" y="749" on="0"/>
        <pt x="324" y="749" on="0"/>
        <pt x="358" y="752" on="0"/>
        <pt x="380" y="756" on="0"/>
        <pt x="382" y="756" on="1"/>
        <pt x="384" y="756" on="1"/>
        <pt x="221" y="918" on="1"/>
        <pt x="208" y="906" on="0"/>
        <pt x="148" y="851" on="0"/>
        <pt x="133" y="837" on="1"/>
        <pt x="93" y="800" on="0"/>
      </contour>
      <contour>
        <pt x="260" y="286" on="1"/>
        <pt x="210" y="285" on="1"/>
        <pt x="205" y="285" on="0"/>
        <pt x="190" y="286" on="0"/>
        <pt x="186" y="286" on="1"/>
        <pt x="190" y="313" on="0"/>
        <pt x="199" y="389" on="0"/>
        <pt x="205" y="431" on="0"/>
        <pt x="208" y="454" on="1"/>
        <pt x="215" y="495" on="0"/>
        <pt x="222" y="495" on="1"/>
        <pt x="234" y="495" on="0"/>
      </contour>
      <contour>
        <pt x="235" y="410" on="1"/>
        <pt x="234" y="403" on="0"/>
        <pt x="219" y="296" on="1"/>
        <pt x="248" y="296" on="1"/>
        <pt x="245" y="323" on="0"/>
        <pt x="236" y="400" on="0"/>
      </contour>
    </TTGlyph>
    <TTGlyph name="Adieresis" xMin="-9" yMin="-35" xMax="469" yMax="877">
      <contour>
        <pt x="293" y="694" on="1"/>
        <pt x="308" y="696" on="1"/>
        <pt x="308" y="693" on="0"/>
        <pt x="392" y="333" on="1"/>
        <pt x="469" y="-28" on="1"/>
        <pt x="429" y="-35" on="0"/>
        <pt x="359" y="-35" on="0"/>
        <pt x="315" y="-25" on="1"/>
        <pt x="314" y="-21" on="0"/>
        <pt x="311" y="-16" on="0"/>
        <pt x="310" y="-12" on="0"/>
        <pt x="307" y="-10" on="0"/>
        <pt x="306" y="-8" on="0"/>
        <pt x="303" y="-7" on="0"/>
        <pt x="302" y="-6" on="1"/>
        <pt x="299" y="-5" on="0"/>
        <pt x="295" y="-5" on="1"/>
        <pt x="286" y="22" on="0"/>
        <pt x="267" y="101" on="0"/>
        <pt x="255" y="139" on="0"/>
        <pt x="248" y="139" on="1"/>
        <pt x="220" y="138" on="1"/>
        <pt x="215" y="124" on="0"/>
        <pt x="192" y="1" on="0"/>
        <pt x="175" y="-29" on="1"/>
        <pt x="175" y="-29" on="0"/>
        <pt x="153" y="-31" on="1"/>
        <pt x="150" y="-31" on="0"/>
        <pt x="64" y="-29" on="1"/>
        <pt x="11" y="-28" on="1"/>
        <pt x="14" y="-8" on="1"/>
        <pt x="-9" y="-8" on="1"/>
        <pt x="5" y="66" on="1"/>
        <pt x="74" y="459" on="0"/>
        <pt x="149" y="709" on="1"/>
        <pt x="159" y="711" on="0"/>
        <pt x="178" y="711" on="1"/>
        <pt x="192" y="710" on="1"/>
        <pt x="221" y="710" on="0"/>
        <pt x="288" y="716" on="1"/>
        <pt x="292" y="698" on="0"/>
      </contour>
      <contour>
        <pt x="193" y="168" on="1"/>
        <pt x="222" y="169" on="1"/>
        <pt x="235" y="169" on="1"/>
        <pt x="237" y="169" on="0"/>
        <pt x="255" y="167" on="1"/>
        <pt x="265" y="146" on="0"/>
        <pt x="295" y="23" on="0"/>
        <pt x="302" y="4" on="1"/>
        <pt x="303" y="4" on="1"/>
        <pt x="342" y="-5" on="0"/>
        <pt x="410" y="-5" on="0"/>
        <pt x="437" y="0" on="1"/>
        <pt x="437" y="1" on="1"/>
        <pt x="362" y="351" on="1"/>
        <pt x="353" y="389" on="0"/>
        <pt x="280" y="705" on="1"/>
        <pt x="236" y="701" on="0"/>
        <pt x="193" y="701" on="1"/>
        <pt x="172" y="701" on="1"/>
        <pt x="160" y="701" on="0"/>
        <pt x="157" y="700" on="1"/>
        <pt x="115" y="558" on="0"/>
        <pt x="43" y="226" on="0"/>
        <pt x="5" y="4" on="0"/>
        <pt x="4" y="2" on="1"/>
        <pt x="5" y="1" on="0"/>
        <pt x="6" y="1" on="1"/>
        <pt x="30" y="1" on="1"/>
        <pt x="133" y="-1" on="1"/>
        <pt x="143" y="-1" on="0"/>
        <pt x="149" y="1" on="1"/>
        <pt x="162" y="24" on="0"/>
        <pt x="185" y="149" on="0"/>
      </contour>
      <contour>
        <pt x="254" y="729" on="1"/>
        <pt x="251" y="749" on="1"/>
        <pt x="234" y="749" on="1"/>
        <pt x="230" y="769" on="0"/>
        <pt x="230" y="803" on="1"/>
        <pt x="232" y="868" on="1"/>
        <pt x="261" y="877" on="0"/>
        <pt x="340" y="877" on="0"/>
        <pt x="361" y="867" on="1"/>
        <pt x="361" y="853" on="1"/>
        <pt x="373" y="849" on="0"/>
        <pt x="381" y="847" on="1"/>
        <pt x="381" y="800" on="0"/>
        <pt x="372" y="728" on="1"/>
      </contour>
      <contour>
        <pt x="80" y="729" on="1"/>
        <pt x="77" y="749" on="1"/>
        <pt x="60" y="749" on="1"/>
        <pt x="56" y="769" on="0"/>
        <pt x="56" y="803" on="1"/>
        <pt x="58" y="868" on="1"/>
        <pt x="87" y="877" on="0"/>
        <pt x="166" y="877" on="0"/>
        <pt x="187" y="867" on="1"/>
        <pt x="187" y="853" on="1"/>
        <pt x="199" y="849" on="0"/>
        <pt x="207" y="847" on="1"/>
        <pt x="207" y="800" on="0"/>
        <pt x="198" y="728" on="1"/>
      </contour>
      <contour>
        <pt x="242" y="860" on="1"/>
        <pt x="240" y="799" on="1"/>
        <pt x="240" y="774" on="0"/>
        <pt x="243" y="759" on="1"/>
        <pt x="246" y="759" on="1"/>
        <pt x="343" y="758" on="1"/>
        <pt x="345" y="758" on="1"/>
        <pt x="345" y="760" on="1"/>
        <pt x="345" y="773" on="0"/>
        <pt x="350" y="839" on="1"/>
        <pt x="351" y="861" on="1"/>
        <pt x="340" y="866" on="0"/>
        <pt x="262" y="866" on="0"/>
      </contour>
      <contour>
        <pt x="68" y="860" on="1"/>
        <pt x="66" y="799" on="1"/>
        <pt x="66" y="774" on="0"/>
        <pt x="69" y="759" on="1"/>
        <pt x="72" y="759" on="1"/>
        <pt x="169" y="758" on="1"/>
        <pt x="171" y="759" on="1"/>
        <pt x="171" y="760" on="1"/>
        <pt x="171" y="773" on="0"/>
        <pt x="176" y="839" on="1"/>
        <pt x="177" y="861" on="1"/>
        <pt x="166" y="866" on="0"/>
        <pt x="88" y="866" on="0"/>
      </contour>
      <contour>
        <pt x="260" y="286" on="1"/>
        <pt x="210" y="285" on="1"/>
        <pt x="205" y="285" on="0"/>
        <pt x="190" y="286" on="0"/>
        <pt x="186" y="286" on="1"/>
        <pt x="190" y="313" on="0"/>
        <pt x="199" y="389" on="0"/>
        <pt x="205" y="431" on="0"/>
        <pt x="208" y="454" on="1"/>
        <pt x="215" y="495" on="0"/>
        <pt x="222" y="495" on="1"/>
        <pt x="234" y="495" on="0"/>
      </contour>
      <contour>
        <pt x="235" y="410" on="1"/>
        <pt x="234" y="403" on="0"/>
        <pt x="219" y="296" on="1"/>
        <pt x="248" y="296" on="1"/>
        <pt x="245" y="323" on="0"/>
        <pt x="236" y="400" on="0"/>
      </contour>
    </TTGlyph>
    <TTGlyph name="Agrave" xMin="-8" yMin="-35" xMax="469" yMax="930">
      <contour>
        <pt x="178" y="711" on="1"/>
        <pt x="192" y="710" on="1"/>
        <pt x="221" y="710" on="0"/>
        <pt x="288" y="716" on="1"/>
        <pt x="290" y="706" on="0"/>
        <pt x="294" y="694" on="1"/>
        <pt x="298" y="696" on="0"/>
        <pt x="308" y="696" on="1"/>
        <pt x="321" y="655" on="0"/>
        <pt x="387" y="354" on="0"/>
        <pt x="392" y="333" on="1"/>
        <pt x="469" y="-28" on="1"/>
        <pt x="429" y="-35" on="0"/>
        <pt x="359" y="-35" on="0"/>
        <pt x="315" y="-25" on="1"/>
        <pt x="314" y="-21" on="0"/>
        <pt x="311" y="-16" on="0"/>
        <pt x="310" y="-12" on="0"/>
        <pt x="307" y="-10" on="0"/>
        <pt x="306" y="-8" on="0"/>
        <pt x="303" y="-7" on="0"/>
        <pt x="302" y="-6" on="1"/>
        <pt x="299" y="-5" on="0"/>
        <pt x="295" y="-5" on="1"/>
        <pt x="286" y="22" on="0"/>
        <pt x="267" y="101" on="0"/>
        <pt x="255" y="139" on="0"/>
        <pt x="248" y="139" on="1"/>
        <pt x="220" y="138" on="1"/>
        <pt x="215" y="124" on="0"/>
        <pt x="192" y="1" on="0"/>
        <pt x="175" y="-29" on="1"/>
        <pt x="153" y="-31" on="1"/>
        <pt x="150" y="-31" on="0"/>
        <pt x="64" y="-29" on="1"/>
        <pt x="12" y="-28" on="1"/>
        <pt x="12" y="-25" on="1"/>
        <pt x="14" y="-8" on="1"/>
        <pt x="-8" y="-8" on="1"/>
        <pt x="19" y="165" on="0"/>
        <pt x="106" y="564" on="0"/>
        <pt x="149" y="709" on="1"/>
        <pt x="159" y="711" on="0"/>
      </contour>
      <contour>
        <pt x="193" y="168" on="1"/>
        <pt x="222" y="169" on="1"/>
        <pt x="235" y="169" on="1"/>
        <pt x="237" y="169" on="0"/>
        <pt x="255" y="167" on="1"/>
        <pt x="265" y="146" on="0"/>
        <pt x="295" y="23" on="0"/>
        <pt x="302" y="4" on="1"/>
        <pt x="303" y="4" on="1"/>
        <pt x="342" y="-5" on="0"/>
        <pt x="410" y="-5" on="0"/>
        <pt x="437" y="0" on="1"/>
        <pt x="437" y="1" on="1"/>
        <pt x="362" y="351" on="1"/>
        <pt x="357" y="373" on="0"/>
        <pt x="338" y="456" on="1"/>
        <pt x="291" y="669" on="0"/>
        <pt x="280" y="705" on="1"/>
        <pt x="236" y="701" on="0"/>
        <pt x="193" y="701" on="1"/>
        <pt x="172" y="701" on="1"/>
        <pt x="160" y="701" on="0"/>
        <pt x="157" y="700" on="1"/>
        <pt x="59" y="375" on="0"/>
        <pt x="4" y="2" on="1"/>
        <pt x="5" y="1" on="0"/>
        <pt x="6" y="1" on="1"/>
        <pt x="30" y="1" on="1"/>
        <pt x="133" y="-1" on="1"/>
        <pt x="143" y="-1" on="0"/>
        <pt x="149" y="1" on="1"/>
        <pt x="162" y="24" on="0"/>
        <pt x="185" y="149" on="0"/>
      </contour>
      <contour>
        <pt x="331" y="728" on="1"/>
        <pt x="285" y="718" on="0"/>
        <pt x="191" y="718" on="0"/>
        <pt x="170" y="721" on="1"/>
        <pt x="142" y="754" on="0"/>
        <pt x="100" y="790" on="1"/>
        <pt x="100" y="789" on="1"/>
        <pt x="88" y="799" on="0"/>
        <pt x="40" y="847" on="1"/>
        <pt x="122" y="930" on="1"/>
        <pt x="156" y="903" on="0"/>
        <pt x="281" y="772" on="0"/>
        <pt x="311" y="748" on="1"/>
        <pt x="310" y="747" on="1"/>
        <pt x="324" y="733" on="0"/>
      </contour>
      <contour>
        <pt x="156" y="750" on="1"/>
        <pt x="166" y="748" on="0"/>
        <pt x="270" y="748" on="0"/>
        <pt x="290" y="754" on="1"/>
        <pt x="284" y="760" on="0"/>
        <pt x="151" y="895" on="0"/>
        <pt x="123" y="917" on="1"/>
        <pt x="54" y="847" on="1"/>
        <pt x="58" y="843" on="0"/>
        <pt x="148" y="761" on="0"/>
      </contour>
      <contour>
        <pt x="260" y="286" on="1"/>
        <pt x="210" y="285" on="1"/>
        <pt x="205" y="285" on="0"/>
        <pt x="190" y="286" on="0"/>
        <pt x="186" y="286" on="1"/>
        <pt x="190" y="313" on="0"/>
        <pt x="199" y="389" on="0"/>
        <pt x="205" y="431" on="0"/>
        <pt x="208" y="454" on="1"/>
        <pt x="215" y="495" on="0"/>
        <pt x="222" y="495" on="1"/>
        <pt x="234" y="495" on="0"/>
      </contour>
      <contour>
        <pt x="235" y="410" on="1"/>
        <pt x="234" y="403" on="0"/>
        <pt x="219" y="296" on="1"/>
        <pt x="248" y="296" on="1"/>
        <pt x="245" y="323" on="0"/>
        <pt x="236" y="400" on="0"/>
      </contour>
    </TTGlyph>
    <TTGlyph name="Aring" xMin="-9" yMin="-35" xMax="469" yMax="945">
      <contour>
        <pt x="293" y="694" on="1"/>
        <pt x="308" y="696" on="1"/>
        <pt x="308" y="693" on="0"/>
        <pt x="392" y="333" on="1"/>
        <pt x="469" y="-28" on="1"/>
        <pt x="429" y="-35" on="0"/>
        <pt x="359" y="-35" on="0"/>
        <pt x="315" y="-25" on="1"/>
        <pt x="314" y="-21" on="0"/>
        <pt x="311" y="-16" on="0"/>
        <pt x="310" y="-12" on="0"/>
        <pt x="307" y="-10" on="0"/>
        <pt x="306" y="-8" on="0"/>
        <pt x="303" y="-7" on="0"/>
        <pt x="302" y="-6" on="1"/>
        <pt x="299" y="-5" on="0"/>
        <pt x="295" y="-5" on="1"/>
        <pt x="286" y="22" on="0"/>
        <pt x="267" y="101" on="0"/>
        <pt x="255" y="139" on="0"/>
        <pt x="248" y="139" on="1"/>
        <pt x="220" y="138" on="1"/>
        <pt x="215" y="124" on="0"/>
        <pt x="192" y="1" on="0"/>
        <pt x="175" y="-29" on="1"/>
        <pt x="175" y="-29" on="0"/>
        <pt x="153" y="-31" on="1"/>
        <pt x="150" y="-31" on="0"/>
        <pt x="64" y="-29" on="1"/>
        <pt x="11" y="-28" on="1"/>
        <pt x="14" y="-8" on="1"/>
        <pt x="-9" y="-8" on="1"/>
        <pt x="5" y="66" on="1"/>
        <pt x="74" y="459" on="0"/>
        <pt x="149" y="709" on="1"/>
        <pt x="159" y="711" on="0"/>
        <pt x="178" y="711" on="1"/>
        <pt x="192" y="710" on="1"/>
        <pt x="221" y="710" on="0"/>
        <pt x="288" y="716" on="1"/>
        <pt x="292" y="698" on="0"/>
      </contour>
      <contour>
        <pt x="193" y="168" on="1"/>
        <pt x="222" y="169" on="1"/>
        <pt x="235" y="169" on="1"/>
        <pt x="237" y="169" on="0"/>
        <pt x="255" y="167" on="1"/>
        <pt x="265" y="146" on="0"/>
        <pt x="295" y="23" on="0"/>
        <pt x="302" y="4" on="1"/>
        <pt x="303" y="4" on="1"/>
        <pt x="342" y="-5" on="0"/>
        <pt x="410" y="-5" on="0"/>
        <pt x="437" y="0" on="1"/>
        <pt x="437" y="1" on="1"/>
        <pt x="362" y="351" on="1"/>
        <pt x="353" y="389" on="0"/>
        <pt x="280" y="705" on="1"/>
        <pt x="236" y="701" on="0"/>
        <pt x="193" y="701" on="1"/>
        <pt x="172" y="701" on="1"/>
        <pt x="160" y="701" on="0"/>
        <pt x="157" y="700" on="1"/>
        <pt x="115" y="558" on="0"/>
        <pt x="43" y="226" on="0"/>
        <pt x="5" y="4" on="0"/>
        <pt x="4" y="2" on="1"/>
        <pt x="5" y="1" on="0"/>
        <pt x="6" y="1" on="1"/>
        <pt x="30" y="1" on="1"/>
        <pt x="133" y="-1" on="1"/>
        <pt x="143" y="-1" on="0"/>
        <pt x="149" y="1" on="1"/>
        <pt x="162" y="24" on="0"/>
        <pt x="185" y="149" on="0"/>
      </contour>
      <contour>
        <pt x="225" y="721" on="1"/>
        <pt x="203" y="721" on="0"/>
        <pt x="183" y="723" on="0"/>
        <pt x="154" y="737" on="0"/>
        <pt x="145" y="751" on="1"/>
        <pt x="114" y="770" on="0"/>
        <pt x="114" y="845" on="1"/>
        <pt x="114" y="894" on="0"/>
        <pt x="133" y="921" on="1"/>
        <pt x="163" y="945" on="0"/>
        <pt x="210" y="945" on="1"/>
        <pt x="282" y="945" on="0"/>
        <pt x="308" y="909" on="1"/>
        <pt x="308" y="907" on="1"/>
        <pt x="326" y="896" on="0"/>
        <pt x="336" y="860" on="0"/>
        <pt x="336" y="786" on="0"/>
        <pt x="321" y="753" on="1"/>
        <pt x="320" y="752" on="1"/>
        <pt x="299" y="721" on="0"/>
      </contour>
      <contour>
        <pt x="292" y="777" on="1"/>
        <pt x="306" y="814" on="0"/>
        <pt x="306" y="876" on="0"/>
        <pt x="298" y="906" on="1"/>
        <pt x="275" y="936" on="0"/>
        <pt x="204" y="936" on="1"/>
        <pt x="161" y="936" on="0"/>
        <pt x="124" y="894" on="0"/>
        <pt x="124" y="820" on="0"/>
        <pt x="127" y="793" on="0"/>
        <pt x="134" y="778" on="1"/>
        <pt x="148" y="751" on="0"/>
        <pt x="277" y="751" on="0"/>
      </contour>
      <contour>
        <pt x="260" y="286" on="1"/>
        <pt x="210" y="285" on="1"/>
        <pt x="205" y="285" on="0"/>
        <pt x="190" y="286" on="0"/>
        <pt x="186" y="286" on="1"/>
        <pt x="190" y="313" on="0"/>
        <pt x="199" y="389" on="0"/>
        <pt x="205" y="431" on="0"/>
        <pt x="208" y="454" on="1"/>
        <pt x="215" y="495" on="0"/>
        <pt x="222" y="495" on="1"/>
        <pt x="234" y="495" on="0"/>
      </contour>
      <contour>
        <pt x="169" y="848" on="1"/>
        <pt x="169" y="891" on="0"/>
        <pt x="262" y="891" on="0"/>
        <pt x="262" y="849" on="1"/>
        <pt x="262" y="830" on="0"/>
        <pt x="257" y="808" on="0"/>
        <pt x="238" y="798" on="0"/>
        <pt x="231" y="797" on="0"/>
        <pt x="214" y="795" on="1"/>
        <pt x="204" y="795" on="1"/>
        <pt x="169" y="795" on="0"/>
      </contour>
      <contour>
        <pt x="250" y="822" on="0"/>
        <pt x="252" y="834" on="0"/>
        <pt x="252" y="857" on="0"/>
        <pt x="246" y="861" on="0"/>
        <pt x="225" y="861" on="0"/>
        <pt x="210" y="856" on="1"/>
        <pt x="195" y="842" on="0"/>
        <pt x="200" y="805" on="1"/>
        <pt x="220" y="805" on="1"/>
        <pt x="235" y="806" on="0"/>
      </contour>
      <contour>
        <pt x="235" y="410" on="1"/>
        <pt x="234" y="403" on="0"/>
        <pt x="219" y="296" on="1"/>
        <pt x="248" y="296" on="1"/>
        <pt x="245" y="323" on="0"/>
        <pt x="236" y="400" on="0"/>
      </contour>
    </TTGlyph>
    <TTGlyph name="Atilde" xMin="-9" yMin="-35" xMax="469" yMax="931">
      <contour>
        <pt x="178" y="711" on="1"/>
        <pt x="192" y="710" on="1"/>
        <pt x="221" y="710" on="0"/>
        <pt x="288" y="716" on="1"/>
        <pt x="290" y="706" on="0"/>
        <pt x="294" y="694" on="1"/>
        <pt x="298" y="696" on="0"/>
        <pt x="308" y="696" on="1"/>
        <pt x="321" y="655" on="0"/>
        <pt x="387" y="354" on="0"/>
        <pt x="392" y="333" on="1"/>
        <pt x="469" y="-28" on="1"/>
        <pt x="429" y="-35" on="0"/>
        <pt x="359" y="-35" on="0"/>
        <pt x="315" y="-25" on="1"/>
        <pt x="314" y="-21" on="0"/>
        <pt x="311" y="-16" on="0"/>
        <pt x="310" y="-12" on="0"/>
        <pt x="307" y="-10" on="0"/>
        <pt x="306" y="-8" on="0"/>
        <pt x="303" y="-7" on="0"/>
        <pt x="302" y="-6" on="1"/>
        <pt x="299" y="-5" on="0"/>
        <pt x="295" y="-5" on="1"/>
        <pt x="286" y="22" on="0"/>
        <pt x="267" y="101" on="0"/>
        <pt x="255" y="139" on="0"/>
        <pt x="248" y="139" on="1"/>
        <pt x="220" y="138" on="1"/>
        <pt x="215" y="124" on="0"/>
        <pt x="192" y="1" on="0"/>
        <pt x="175" y="-29" on="1"/>
        <pt x="153" y="-31" on="1"/>
        <pt x="150" y="-31" on="0"/>
        <pt x="64" y="-29" on="1"/>
        <pt x="11" y="-28" on="1"/>
        <pt x="14" y="-8" on="1"/>
        <pt x="-9" y="-8" on="1"/>
        <pt x="5" y="66" on="1"/>
        <pt x="74" y="459" on="0"/>
        <pt x="149" y="709" on="1"/>
        <pt x="159" y="711" on="0"/>
      </contour>
      <contour>
        <pt x="193" y="168" on="1"/>
        <pt x="222" y="169" on="1"/>
        <pt x="235" y="169" on="1"/>
        <pt x="237" y="169" on="0"/>
        <pt x="255" y="167" on="1"/>
        <pt x="265" y="146" on="0"/>
        <pt x="295" y="23" on="0"/>
        <pt x="302" y="4" on="1"/>
        <pt x="303" y="4" on="1"/>
        <pt x="342" y="-5" on="0"/>
        <pt x="410" y="-5" on="0"/>
        <pt x="437" y="0" on="1"/>
        <pt x="437" y="1" on="1"/>
        <pt x="362" y="351" on="1"/>
        <pt x="357" y="373" on="0"/>
        <pt x="338" y="456" on="1"/>
        <pt x="291" y="669" on="0"/>
        <pt x="280" y="705" on="1"/>
        <pt x="236" y="701" on="0"/>
        <pt x="193" y="701" on="1"/>
        <pt x="172" y="701" on="1"/>
        <pt x="160" y="701" on="0"/>
        <pt x="157" y="700" on="1"/>
        <pt x="115" y="558" on="0"/>
        <pt x="43" y="226" on="0"/>
        <pt x="5" y="4" on="0"/>
        <pt x="4" y="2" on="1"/>
        <pt x="5" y="1" on="0"/>
        <pt x="6" y="1" on="1"/>
        <pt x="30" y="1" on="1"/>
        <pt x="133" y="-1" on="1"/>
        <pt x="143" y="-1" on="0"/>
        <pt x="149" y="1" on="1"/>
        <pt x="162" y="24" on="0"/>
        <pt x="185" y="149" on="0"/>
      </contour>
      <contour>
        <pt x="431" y="902" on="1"/>
        <pt x="448" y="903" on="1"/>
        <pt x="450" y="891" on="1"/>
        <pt x="451" y="884" on="0"/>
        <pt x="451" y="873" on="1"/>
        <pt x="451" y="816" on="0"/>
        <pt x="383" y="719" on="0"/>
        <pt x="327" y="719" on="1"/>
        <pt x="292" y="719" on="0"/>
        <pt x="228" y="761" on="0"/>
        <pt x="216" y="791" on="1"/>
        <pt x="214" y="792" on="0"/>
        <pt x="208" y="792" on="0"/>
        <pt x="207" y="793" on="1"/>
        <pt x="176" y="793" on="0"/>
        <pt x="163" y="772" on="1"/>
        <pt x="160" y="763" on="0"/>
        <pt x="160" y="747" on="0"/>
        <pt x="164" y="738" on="1"/>
        <pt x="152" y="724" on="1"/>
        <pt x="135" y="728" on="0"/>
        <pt x="57" y="728" on="0"/>
        <pt x="23" y="726" on="1"/>
        <pt x="24" y="734" on="0"/>
        <pt x="29" y="747" on="1"/>
        <pt x="23" y="747" on="0"/>
        <pt x="6" y="746" on="0"/>
        <pt x="3" y="746" on="1"/>
        <pt x="50" y="931" on="0"/>
        <pt x="159" y="931" on="1"/>
        <pt x="216" y="931" on="0"/>
        <pt x="266" y="865" on="1"/>
        <pt x="266" y="866" on="1"/>
        <pt x="270" y="857" on="0"/>
        <pt x="296" y="857" on="0"/>
        <pt x="324" y="900" on="0"/>
        <pt x="329" y="919" on="1"/>
        <pt x="365" y="923" on="0"/>
        <pt x="428" y="923" on="1"/>
        <pt x="430" y="910" on="1"/>
      </contour>
      <contour>
        <pt x="421" y="891" on="1"/>
        <pt x="421" y="908" on="0"/>
        <pt x="418" y="913" on="1"/>
        <pt x="337" y="910" on="0"/>
        <pt x="336" y="910" on="1"/>
        <pt x="330" y="889" on="0"/>
        <pt x="300" y="847" on="0"/>
        <pt x="266" y="847" on="0"/>
        <pt x="233" y="884" on="0"/>
        <pt x="189" y="921" on="0"/>
        <pt x="158" y="921" on="1"/>
        <pt x="62" y="921" on="0"/>
        <pt x="17" y="757" on="1"/>
        <pt x="34" y="758" on="0"/>
        <pt x="117" y="758" on="0"/>
        <pt x="134" y="754" on="1"/>
        <pt x="134" y="755" on="1"/>
        <pt x="130" y="764" on="0"/>
        <pt x="130" y="775" on="1"/>
        <pt x="130" y="787" on="0"/>
        <pt x="137" y="801" on="1"/>
        <pt x="151" y="823" on="0"/>
        <pt x="188" y="823" on="1"/>
        <pt x="208" y="823" on="0"/>
        <pt x="223" y="800" on="1"/>
        <pt x="245" y="749" on="0"/>
        <pt x="359" y="749" on="0"/>
        <pt x="421" y="836" on="0"/>
      </contour>
      <contour>
        <pt x="260" y="286" on="1"/>
        <pt x="210" y="285" on="1"/>
        <pt x="205" y="285" on="0"/>
        <pt x="190" y="286" on="0"/>
        <pt x="186" y="286" on="1"/>
        <pt x="190" y="313" on="0"/>
        <pt x="199" y="389" on="0"/>
        <pt x="205" y="431" on="0"/>
        <pt x="208" y="454" on="1"/>
        <pt x="215" y="495" on="0"/>
        <pt x="222" y="495" on="1"/>
        <pt x="234" y="495" on="0"/>
      </contour>
      <contour>
        <pt x="235" y="410" on="1"/>
        <pt x="234" y="403" on="0"/>
        <pt x="219" y="296" on="1"/>
        <pt x="248" y="296" on="1"/>
        <pt x="245" y="323" on="0"/>
        <pt x="236" y="400" on="0"/>
      </contour>
    </TTGlyph>
    <TTGlyph name="B" xMin="30" yMin="-31" xMax="496" yMax="725">
      <contour>
        <pt x="30" y="235" on="1"/>
        <pt x="32" y="565" on="1"/>
        <pt x="32" y="701" on="1"/>
        <pt x="114" y="725" on="0"/>
        <pt x="196" y="725" on="1"/>
        <pt x="311" y="725" on="0"/>
        <pt x="469" y="605" on="0"/>
        <pt x="469" y="488" on="1"/>
        <pt x="469" y="414" on="0"/>
        <pt x="419" y="327" on="1"/>
        <pt x="419" y="325" on="1"/>
        <pt x="419" y="322" on="0"/>
        <pt x="423" y="318" on="1"/>
        <pt x="423" y="317" on="1"/>
        <pt x="448" y="287" on="0"/>
        <pt x="472" y="254" on="0"/>
        <pt x="496" y="193" on="0"/>
        <pt x="496" y="112" on="0"/>
        <pt x="466" y="40" on="0"/>
        <pt x="419" y="-2" on="0"/>
        <pt x="384" y="-14" on="1"/>
        <pt x="297" y="-46" on="0"/>
        <pt x="147" y="-31" on="1"/>
        <pt x="95" y="-28" on="0"/>
        <pt x="87" y="-28" on="1"/>
        <pt x="72" y="-28" on="1"/>
        <pt x="53" y="-28" on="0"/>
        <pt x="53" y="-8" on="1"/>
        <pt x="37" y="-4" on="0"/>
        <pt x="34" y="-3" on="1"/>
        <pt x="30" y="102" on="0"/>
      </contour>
      <contour>
        <pt x="66" y="2" on="1"/>
        <pt x="223" y="-5" on="1"/>
        <pt x="357" y="-5" on="0"/>
        <pt x="414" y="46" on="1"/>
        <pt x="466" y="92" on="0"/>
        <pt x="466" y="181" on="1"/>
        <pt x="466" y="211" on="0"/>
        <pt x="442" y="269" on="0"/>
        <pt x="419" y="301" on="0"/>
        <pt x="387" y="339" on="0"/>
        <pt x="387" y="348" on="0"/>
        <pt x="390" y="352" on="1"/>
        <pt x="439" y="434" on="0"/>
        <pt x="439" y="564" on="0"/>
        <pt x="399" y="647" on="0"/>
        <pt x="364" y="670" on="1"/>
        <pt x="296" y="715" on="0"/>
        <pt x="196" y="715" on="1"/>
        <pt x="122" y="715" on="0"/>
        <pt x="42" y="693" on="1"/>
        <pt x="41" y="692" on="1"/>
        <pt x="42" y="645" on="0"/>
        <pt x="42" y="553" on="1"/>
        <pt x="40" y="233" on="1"/>
        <pt x="40" y="107" on="0"/>
        <pt x="44" y="4" on="1"/>
        <pt x="52" y="2" on="0"/>
        <pt x="54" y="2" on="1"/>
      </contour>
      <contour>
        <pt x="224" y="139" on="1"/>
        <pt x="188" y="140" on="1"/>
        <pt x="186" y="141" on="1"/>
        <pt x="172" y="160" on="0"/>
        <pt x="172" y="248" on="0"/>
        <pt x="183" y="281" on="1"/>
        <pt x="190" y="280" on="0"/>
        <pt x="227" y="278" on="0"/>
        <pt x="248" y="276" on="0"/>
        <pt x="280" y="267" on="0"/>
        <pt x="289" y="260" on="1"/>
        <pt x="311" y="241" on="0"/>
        <pt x="311" y="178" on="0"/>
        <pt x="301" y="165" on="1"/>
        <pt x="280" y="139" on="0"/>
      </contour>
      <contour>
        <pt x="178" y="471" on="1"/>
        <pt x="180" y="531" on="1"/>
        <pt x="180" y="544" on="1"/>
        <pt x="193" y="551" on="0"/>
        <pt x="253" y="551" on="0"/>
        <pt x="313" y="524" on="0"/>
        <pt x="313" y="491" on="1"/>
        <pt x="313" y="470" on="0"/>
        <pt x="300" y="450" on="1"/>
        <pt x="282" y="417" on="0"/>
        <pt x="227" y="417" on="1"/>
        <pt x="204" y="417" on="0"/>
        <pt x="184" y="420" on="1"/>
        <pt x="178" y="440" on="0"/>
      </contour>
      <contour>
        <pt x="211" y="250" on="1"/>
        <pt x="202" y="205" on="0"/>
        <pt x="202" y="189" on="1"/>
        <pt x="202" y="166" on="1"/>
        <pt x="202" y="157" on="0"/>
        <pt x="206" y="154" on="0"/>
        <pt x="208" y="152" on="1"/>
        <pt x="212" y="149" on="0"/>
        <pt x="225" y="149" on="1"/>
        <pt x="274" y="149" on="0"/>
        <pt x="293" y="171" on="1"/>
        <pt x="307" y="191" on="0"/>
        <pt x="295" y="235" on="1"/>
        <pt x="283" y="247" on="0"/>
        <pt x="219" y="249" on="0"/>
      </contour>
      <contour>
        <pt x="208" y="433" on="1"/>
        <pt x="209" y="427" on="1"/>
        <pt x="227" y="427" on="1"/>
        <pt x="276" y="427" on="0"/>
        <pt x="291" y="455" on="1"/>
        <pt x="303" y="474" on="0"/>
        <pt x="303" y="491" on="1"/>
        <pt x="303" y="521" on="0"/>
        <pt x="237" y="521" on="1"/>
        <pt x="219" y="521" on="0"/>
        <pt x="211" y="518" on="1"/>
        <pt x="211" y="508" on="1"/>
      </contour>
    </TTGlyph>
    <TTGlyph name="C" xMin="21" yMin="-44" xMax="502" yMax="736">
      <contour>
        <pt x="23" y="536" on="1"/>
        <pt x="22" y="547" on="1"/>
        <pt x="22" y="580" on="0"/>
        <pt x="35" y="607" on="1"/>
        <pt x="81" y="736" on="0"/>
        <pt x="227" y="736" on="1"/>
        <pt x="333" y="736" on="0"/>
        <pt x="502" y="576" on="0"/>
        <pt x="502" y="475" on="1"/>
        <pt x="502" y="436" on="0"/>
        <pt x="486" y="392" on="1"/>
        <pt x="457" y="385" on="0"/>
        <pt x="379" y="385" on="0"/>
        <pt x="324" y="396" on="1"/>
        <pt x="322" y="412" on="1"/>
        <pt x="318" y="413" on="0"/>
        <pt x="313" y="414" on="0"/>
        <pt x="308" y="416" on="0"/>
        <pt x="306" y="418" on="0"/>
        <pt x="304" y="423" on="0"/>
        <pt x="303" y="426" on="0"/>
        <pt x="302" y="435" on="0"/>
        <pt x="301" y="441" on="0"/>
        <pt x="300" y="455" on="0"/>
        <pt x="300" y="465" on="0"/>
        <pt x="299" y="492" on="0"/>
        <pt x="296" y="504" on="0"/>
        <pt x="293" y="512" on="1"/>
        <pt x="288" y="528" on="0"/>
        <pt x="233" y="528" on="0"/>
        <pt x="220" y="515" on="1"/>
        <pt x="217" y="512" on="0"/>
        <pt x="210" y="390" on="0"/>
        <pt x="210" y="356" on="1"/>
        <pt x="210" y="267" on="1"/>
        <pt x="210" y="223" on="0"/>
        <pt x="216" y="199" on="0"/>
        <pt x="219" y="187" on="1"/>
        <pt x="225" y="164" on="0"/>
        <pt x="250" y="161" on="1"/>
        <pt x="275" y="161" on="0"/>
        <pt x="301" y="186" on="0"/>
        <pt x="306" y="217" on="0"/>
        <pt x="312" y="278" on="0"/>
        <pt x="316" y="297" on="1"/>
        <pt x="337" y="294" on="0"/>
        <pt x="357" y="294" on="1"/>
        <pt x="404" y="295" on="1"/>
        <pt x="442" y="295" on="0"/>
        <pt x="465" y="289" on="1"/>
        <pt x="466" y="286" on="0"/>
        <pt x="468" y="275" on="0"/>
        <pt x="470" y="272" on="1"/>
        <pt x="485" y="269" on="1"/>
        <pt x="499" y="230" on="0"/>
        <pt x="499" y="189" on="1"/>
        <pt x="499" y="83" on="0"/>
        <pt x="357" y="-44" on="0"/>
        <pt x="244" y="-44" on="1"/>
        <pt x="163" y="-44" on="0"/>
        <pt x="34" y="46" on="0"/>
        <pt x="26" y="121" on="1"/>
        <pt x="21" y="221" on="0"/>
        <pt x="21" y="374" on="0"/>
      </contour>
      <contour>
        <pt x="406" y="285" on="1"/>
        <pt x="353" y="284" on="1"/>
        <pt x="342" y="284" on="0"/>
        <pt x="324" y="286" on="1"/>
        <pt x="320" y="272" on="0"/>
        <pt x="316" y="214" on="0"/>
        <pt x="310" y="180" on="0"/>
        <pt x="278" y="151" on="0"/>
        <pt x="224" y="151" on="0"/>
        <pt x="193" y="183" on="0"/>
        <pt x="187" y="216" on="1"/>
        <pt x="179" y="260" on="0"/>
        <pt x="179" y="414" on="0"/>
        <pt x="182" y="461" on="1"/>
        <pt x="187" y="536" on="0"/>
        <pt x="193" y="542" on="1"/>
        <pt x="209" y="558" on="0"/>
        <pt x="268" y="558" on="0"/>
        <pt x="294" y="542" on="0"/>
        <pt x="305" y="509" on="0"/>
        <pt x="309" y="480" on="0"/>
        <pt x="311" y="436" on="0"/>
        <pt x="313" y="425" on="1"/>
        <pt x="357" y="415" on="0"/>
        <pt x="430" y="415" on="0"/>
        <pt x="459" y="421" on="1"/>
        <pt x="472" y="456" on="0"/>
        <pt x="472" y="495" on="1"/>
        <pt x="472" y="590" on="0"/>
        <pt x="325" y="726" on="0"/>
        <pt x="227" y="726" on="1"/>
        <pt x="87" y="726" on="0"/>
        <pt x="44" y="604" on="1"/>
        <pt x="32" y="575" on="0"/>
        <pt x="32" y="540" on="0"/>
        <pt x="33" y="537" on="1"/>
        <pt x="31" y="375" on="0"/>
        <pt x="31" y="222" on="0"/>
        <pt x="36" y="122" on="1"/>
        <pt x="42" y="54" on="0"/>
        <pt x="152" y="-14" on="0"/>
        <pt x="224" y="-14" on="1"/>
        <pt x="331" y="-14" on="0"/>
        <pt x="469" y="108" on="0"/>
        <pt x="469" y="209" on="1"/>
        <pt x="469" y="247" on="0"/>
        <pt x="458" y="280" on="1"/>
        <pt x="439" y="285" on="0"/>
      </contour>
    </TTGlyph>
    <TTGlyph name="Ccedilla" xMin="23" yMin="-159" xMax="487" yMax="703">
      <contour>
        <pt x="242" y="-157" on="1"/>
        <pt x="188" y="-159" on="1"/>
        <pt x="169" y="-159" on="0"/>
        <pt x="161" y="-152" on="0"/>
        <pt x="161" y="-145" on="1"/>
        <pt x="161" y="-139" on="1"/>
        <pt x="146" y="-139" on="0"/>
        <pt x="141" y="-135" on="0"/>
        <pt x="141" y="-116" on="0"/>
        <pt x="160" y="-49" on="0"/>
        <pt x="162" y="-37" on="1"/>
        <pt x="98" y="-29" on="0"/>
        <pt x="27" y="98" on="0"/>
        <pt x="25" y="184" on="1"/>
        <pt x="25" y="194" on="1"/>
        <pt x="23" y="280" on="0"/>
        <pt x="23" y="365" on="1"/>
        <pt x="23" y="513" on="0"/>
        <pt x="29" y="536" on="1"/>
        <pt x="38" y="635" on="0"/>
        <pt x="94" y="682" on="1"/>
        <pt x="125" y="703" on="0"/>
        <pt x="182" y="703" on="1"/>
        <pt x="226" y="703" on="1"/>
        <pt x="346" y="703" on="0"/>
        <pt x="406" y="635" on="1"/>
        <pt x="444" y="602" on="0"/>
        <pt x="487" y="504" on="0"/>
        <pt x="487" y="452" on="1"/>
        <pt x="487" y="431" on="0"/>
        <pt x="478" y="377" on="0"/>
        <pt x="466" y="377" on="1"/>
        <pt x="439" y="371" on="0"/>
        <pt x="386" y="371" on="0"/>
        <pt x="323" y="380" on="1"/>
        <pt x="322" y="382" on="0"/>
        <pt x="320" y="389" on="0"/>
        <pt x="319" y="392" on="0"/>
        <pt x="316" y="396" on="0"/>
        <pt x="314" y="396" on="1"/>
        <pt x="307" y="399" on="0"/>
        <pt x="303" y="400" on="1"/>
        <pt x="296" y="418" on="0"/>
        <pt x="292" y="480" on="0"/>
        <pt x="280" y="510" on="0"/>
        <pt x="247" y="510" on="0"/>
        <pt x="226" y="498" on="0"/>
        <pt x="214" y="473" on="0"/>
        <pt x="210" y="460" on="1"/>
        <pt x="205" y="440" on="0"/>
        <pt x="205" y="394" on="1"/>
        <pt x="206" y="329" on="1"/>
        <pt x="206" y="286" on="1"/>
        <pt x="206" y="216" on="0"/>
        <pt x="211" y="200" on="1"/>
        <pt x="220" y="170" on="0"/>
        <pt x="231" y="158" on="0"/>
        <pt x="238" y="155" on="0"/>
        <pt x="263" y="155" on="0"/>
        <pt x="285" y="166" on="0"/>
        <pt x="296" y="194" on="0"/>
        <pt x="300" y="217" on="0"/>
        <pt x="305" y="269" on="0"/>
        <pt x="307" y="284" on="1"/>
        <pt x="387" y="286" on="1"/>
        <pt x="428" y="286" on="0"/>
        <pt x="454" y="278" on="1"/>
        <pt x="456" y="266" on="0"/>
        <pt x="462" y="260" on="0"/>
        <pt x="474" y="258" on="1"/>
        <pt x="487" y="214" on="0"/>
        <pt x="487" y="180" on="1"/>
        <pt x="487" y="96" on="0"/>
        <pt x="383" y="-33" on="0"/>
        <pt x="299" y="-39" on="1"/>
        <pt x="298" y="-40" on="0"/>
        <pt x="290" y="-74" on="0"/>
        <pt x="269" y="-158" on="1"/>
        <pt x="258" y="-157" on="0"/>
      </contour>
      <contour>
        <pt x="176" y="348" on="1"/>
        <pt x="175" y="418" on="1"/>
        <pt x="175" y="468" on="0"/>
        <pt x="186" y="500" on="0"/>
        <pt x="193" y="514" on="1"/>
        <pt x="207" y="540" on="0"/>
        <pt x="275" y="540" on="0"/>
        <pt x="301" y="497" on="0"/>
        <pt x="306" y="420" on="0"/>
        <pt x="310" y="409" on="1"/>
        <pt x="312" y="409" on="1"/>
        <pt x="368" y="401" on="0"/>
        <pt x="394" y="401" on="1"/>
        <pt x="426" y="401" on="0"/>
        <pt x="447" y="408" on="1"/>
        <pt x="457" y="437" on="0"/>
        <pt x="457" y="472" on="1"/>
        <pt x="457" y="538" on="0"/>
        <pt x="388" y="656" on="0"/>
        <pt x="331" y="679" on="1"/>
        <pt x="297" y="693" on="0"/>
        <pt x="226" y="693" on="1"/>
        <pt x="182" y="693" on="1"/>
        <pt x="129" y="693" on="0"/>
        <pt x="103" y="676" on="1"/>
        <pt x="38" y="623" on="0"/>
        <pt x="38" y="524" on="1"/>
        <pt x="33" y="449" on="0"/>
        <pt x="33" y="288" on="0"/>
        <pt x="35" y="194" on="1"/>
        <pt x="35" y="184" on="1"/>
        <pt x="37" y="133" on="0"/>
        <pt x="58" y="52" on="0"/>
        <pt x="115" y="-8" on="0"/>
        <pt x="159" y="-8" on="1"/>
        <pt x="170" y="-8" on="0"/>
        <pt x="177" y="-7" on="1"/>
        <pt x="177" y="-10" on="1"/>
        <pt x="151" y="-125" on="1"/>
        <pt x="151" y="-129" on="0"/>
        <pt x="168" y="-129" on="1"/>
        <pt x="225" y="-126" on="1"/>
        <pt x="225" y="-126" on="0"/>
        <pt x="241" y="-127" on="1"/>
        <pt x="241" y="-125" on="1"/>
        <pt x="247" y="-105" on="0"/>
        <pt x="258" y="-61" on="1"/>
        <pt x="258" y="-61" on="0"/>
        <pt x="271" y="-9" on="1"/>
        <pt x="274" y="-10" on="1"/>
        <pt x="356" y="-6" on="0"/>
        <pt x="457" y="118" on="0"/>
        <pt x="457" y="200" on="1"/>
        <pt x="457" y="232" on="0"/>
        <pt x="446" y="270" on="1"/>
        <pt x="427" y="276" on="0"/>
        <pt x="388" y="276" on="1"/>
        <pt x="388" y="276" on="0"/>
        <pt x="316" y="274" on="1"/>
        <pt x="315" y="264" on="0"/>
        <pt x="312" y="227" on="0"/>
        <pt x="310" y="204" on="0"/>
        <pt x="301" y="174" on="0"/>
        <pt x="294" y="166" on="1"/>
        <pt x="279" y="145" on="0"/>
        <pt x="244" y="145" on="1"/>
        <pt x="210" y="145" on="0"/>
        <pt x="195" y="176" on="1"/>
        <pt x="180" y="208" on="0"/>
        <pt x="178" y="238" on="1"/>
        <pt x="175" y="300" on="0"/>
        <pt x="175" y="311" on="1"/>
      </contour>
    </TTGlyph>
    <TTGlyph name="D" xMin="29" yMin="-29" xMax="492" yMax="712">
      <contour>
        <pt x="64" y="-8" on="1"/>
        <pt x="47" y="-9" on="1"/>
        <pt x="29" y="122" on="0"/>
        <pt x="29" y="326" on="1"/>
        <pt x="31" y="590" on="1"/>
        <pt x="31" y="655" on="0"/>
        <pt x="30" y="689" on="0"/>
        <pt x="32" y="694" on="0"/>
        <pt x="38" y="700" on="1"/>
        <pt x="81" y="712" on="0"/>
        <pt x="153" y="712" on="1"/>
        <pt x="246" y="710" on="1"/>
        <pt x="272" y="710" on="0"/>
        <pt x="285" y="711" on="1"/>
        <pt x="325" y="699" on="0"/>
        <pt x="403" y="636" on="0"/>
        <pt x="422" y="602" on="1"/>
        <pt x="421" y="602" on="1"/>
        <pt x="464" y="537" on="0"/>
        <pt x="483" y="452" on="1"/>
        <pt x="482" y="453" on="1"/>
        <pt x="490" y="429" on="0"/>
        <pt x="492" y="386" on="1"/>
        <pt x="491" y="368" on="0"/>
        <pt x="490" y="327" on="1"/>
        <pt x="486" y="242" on="0"/>
        <pt x="478" y="200" on="1"/>
        <pt x="441" y="95" on="0"/>
        <pt x="345" y="-25" on="1"/>
        <pt x="312" y="-26" on="0"/>
        <pt x="67" y="-29" on="1"/>
      </contour>
      <contour>
        <pt x="284" y="701" on="1"/>
        <pt x="255" y="700" on="1"/>
        <pt x="156" y="702" on="1"/>
        <pt x="87" y="702" on="0"/>
        <pt x="43" y="691" on="1"/>
        <pt x="40" y="688" on="0"/>
        <pt x="40" y="687" on="1"/>
        <pt x="41" y="655" on="0"/>
        <pt x="41" y="591" on="1"/>
        <pt x="39" y="322" on="1"/>
        <pt x="39" y="115" on="0"/>
        <pt x="56" y="1" on="1"/>
        <pt x="57" y="2" on="1"/>
        <pt x="232" y="2" on="0"/>
        <pt x="320" y="5" on="1"/>
        <pt x="416" y="126" on="0"/>
        <pt x="447" y="217" on="1"/>
        <pt x="448" y="219" on="1"/>
        <pt x="457" y="266" on="0"/>
        <pt x="461" y="392" on="0"/>
        <pt x="462" y="407" on="1"/>
        <pt x="456" y="519" on="0"/>
        <pt x="393" y="617" on="1"/>
        <pt x="375" y="647" on="0"/>
        <pt x="316" y="693" on="0"/>
      </contour>
      <contour>
        <pt x="182" y="293" on="1"/>
        <pt x="184" y="420" on="1"/>
        <pt x="184" y="443" on="0"/>
        <pt x="182" y="481" on="1"/>
        <pt x="182" y="485" on="1"/>
        <pt x="185" y="485" on="1"/>
        <pt x="203" y="488" on="0"/>
        <pt x="223" y="488" on="1"/>
        <pt x="264" y="488" on="0"/>
        <pt x="315" y="438" on="0"/>
        <pt x="329" y="379" on="0"/>
        <pt x="329" y="298" on="0"/>
        <pt x="301" y="254" on="1"/>
        <pt x="275" y="216" on="0"/>
        <pt x="254" y="216" on="1"/>
        <pt x="252" y="216" on="1"/>
        <pt x="235" y="213" on="0"/>
        <pt x="194" y="213" on="0"/>
        <pt x="184" y="222" on="1"/>
        <pt x="182" y="268" on="0"/>
      </contour>
      <contour>
        <pt x="211" y="239" on="1"/>
        <pt x="212" y="223" on="1"/>
        <pt x="217" y="223" on="1"/>
        <pt x="220" y="223" on="0"/>
        <pt x="254" y="226" on="0"/>
        <pt x="254" y="225" on="0"/>
        <pt x="258" y="225" on="0"/>
        <pt x="266" y="231" on="1"/>
        <pt x="265" y="231" on="1"/>
        <pt x="280" y="240" on="0"/>
        <pt x="293" y="260" on="1"/>
        <pt x="293" y="259" on="1"/>
        <pt x="319" y="298" on="0"/>
        <pt x="319" y="399" on="0"/>
        <pt x="289" y="451" on="1"/>
        <pt x="279" y="456" on="1"/>
        <pt x="255" y="458" on="0"/>
        <pt x="234" y="458" on="0"/>
        <pt x="212" y="456" on="1"/>
        <pt x="214" y="418" on="0"/>
        <pt x="214" y="393" on="1"/>
      </contour>
    </TTGlyph>
    <TTGlyph name="E" xMin="29" yMin="-30" xMax="495" yMax="708">
      <contour>
        <pt x="473" y="135" on="1"/>
        <pt x="474" y="126" on="1"/>
        <pt x="486" y="126" on="0"/>
        <pt x="493" y="127" on="1"/>
        <pt x="493" y="115" on="1"/>
        <pt x="495" y="85" on="0"/>
        <pt x="495" y="21" on="0"/>
        <pt x="483" y="-27" on="1"/>
        <pt x="221" y="-30" on="1"/>
        <pt x="132" y="-30" on="0"/>
        <pt x="55" y="-24" on="1"/>
        <pt x="55" y="-5" on="1"/>
        <pt x="55" y="-5" on="0"/>
        <pt x="35" y="-4" on="1"/>
        <pt x="29" y="439" on="1"/>
        <pt x="29" y="565" on="0"/>
        <pt x="37" y="699" on="1"/>
        <pt x="224" y="708" on="0"/>
        <pt x="387" y="708" on="1"/>
        <pt x="466" y="708" on="0"/>
        <pt x="470" y="696" on="1"/>
        <pt x="470" y="686" on="0"/>
        <pt x="490" y="677" on="0"/>
        <pt x="490" y="676" on="1"/>
        <pt x="494" y="653" on="0"/>
        <pt x="494" y="624" on="1"/>
        <pt x="490" y="524" on="1"/>
        <pt x="439" y="512" on="0"/>
        <pt x="361" y="512" on="1"/>
        <pt x="325" y="512" on="1"/>
        <pt x="286" y="513" on="1"/>
        <pt x="256" y="513" on="0"/>
        <pt x="224" y="510" on="1"/>
        <pt x="221" y="438" on="1"/>
        <pt x="221" y="429" on="1"/>
        <pt x="239" y="428" on="1"/>
        <pt x="278" y="429" on="1"/>
        <pt x="283" y="429" on="0"/>
        <pt x="328" y="426" on="1"/>
        <pt x="328" y="407" on="0"/>
        <pt x="337" y="407" on="1"/>
        <pt x="348" y="406" on="1"/>
        <pt x="353" y="380" on="0"/>
        <pt x="353" y="345" on="1"/>
        <pt x="351" y="250" on="1"/>
        <pt x="323" y="242" on="0"/>
        <pt x="234" y="241" on="0"/>
        <pt x="229" y="240" on="1"/>
        <pt x="226" y="225" on="0"/>
        <pt x="226" y="164" on="0"/>
        <pt x="227" y="151" on="1"/>
        <pt x="347" y="145" on="0"/>
        <pt x="441" y="145" on="0"/>
        <pt x="473" y="147" on="1"/>
      </contour>
      <contour>
        <pt x="190" y="0" on="1"/>
        <pt x="455" y="3" on="1"/>
        <pt x="465" y="42" on="0"/>
        <pt x="465" y="104" on="0"/>
        <pt x="463" y="134" on="1"/>
        <pt x="463" y="136" on="1"/>
        <pt x="448" y="135" on="0"/>
        <pt x="420" y="135" on="1"/>
        <pt x="201" y="141" on="1"/>
        <pt x="200" y="142" on="1"/>
        <pt x="196" y="167" on="0"/>
        <pt x="196" y="246" on="0"/>
        <pt x="200" y="267" on="1"/>
        <pt x="206" y="272" on="0"/>
        <pt x="301" y="272" on="0"/>
        <pt x="321" y="278" on="1"/>
        <pt x="322" y="365" on="1"/>
        <pt x="322" y="400" on="0"/>
        <pt x="319" y="417" on="1"/>
        <pt x="319" y="418" on="1"/>
        <pt x="250" y="418" on="0"/>
        <pt x="196" y="421" on="1"/>
        <pt x="195" y="422" on="1"/>
        <pt x="191" y="437" on="0"/>
        <pt x="191" y="460" on="1"/>
        <pt x="194" y="539" on="1"/>
        <pt x="206" y="542" on="0"/>
        <pt x="265" y="542" on="1"/>
        <pt x="344" y="542" on="1"/>
        <pt x="417" y="542" on="0"/>
        <pt x="460" y="552" on="1"/>
        <pt x="460" y="553" on="1"/>
        <pt x="463" y="648" on="1"/>
        <pt x="463" y="671" on="0"/>
        <pt x="460" y="695" on="1"/>
        <pt x="460" y="698" on="0"/>
        <pt x="231" y="698" on="0"/>
        <pt x="46" y="689" on="1"/>
        <pt x="40" y="592" on="0"/>
        <pt x="40" y="449" on="1"/>
        <pt x="45" y="5" on="1"/>
        <pt x="104" y="0" on="0"/>
      </contour>
    </TTGlyph>
    <TTGlyph name="Eacute" xMin="29" yMin="-30" xMax="495" yMax="930">
      <contour>
        <pt x="473" y="135" on="1"/>
        <pt x="474" y="126" on="1"/>
        <pt x="486" y="126" on="0"/>
        <pt x="493" y="127" on="1"/>
        <pt x="493" y="115" on="1"/>
        <pt x="495" y="85" on="0"/>
        <pt x="495" y="21" on="0"/>
        <pt x="483" y="-27" on="1"/>
        <pt x="221" y="-30" on="1"/>
        <pt x="132" y="-30" on="0"/>
        <pt x="55" y="-24" on="1"/>
        <pt x="55" y="-5" on="1"/>
        <pt x="55" y="-5" on="0"/>
        <pt x="35" y="-4" on="1"/>
        <pt x="29" y="439" on="1"/>
        <pt x="29" y="565" on="0"/>
        <pt x="37" y="699" on="1"/>
        <pt x="224" y="708" on="0"/>
        <pt x="387" y="708" on="1"/>
        <pt x="466" y="708" on="0"/>
        <pt x="470" y="696" on="1"/>
        <pt x="470" y="685" on="0"/>
        <pt x="490" y="677" on="0"/>
        <pt x="490" y="676" on="1"/>
        <pt x="494" y="653" on="0"/>
        <pt x="494" y="624" on="1"/>
        <pt x="490" y="524" on="1"/>
        <pt x="439" y="512" on="0"/>
        <pt x="361" y="512" on="1"/>
        <pt x="325" y="512" on="1"/>
        <pt x="286" y="513" on="1"/>
        <pt x="256" y="513" on="0"/>
        <pt x="224" y="510" on="1"/>
        <pt x="221" y="438" on="1"/>
        <pt x="221" y="429" on="1"/>
        <pt x="239" y="428" on="1"/>
        <pt x="278" y="429" on="1"/>
        <pt x="283" y="429" on="0"/>
        <pt x="328" y="426" on="1"/>
        <pt x="328" y="407" on="0"/>
        <pt x="337" y="407" on="1"/>
        <pt x="348" y="406" on="1"/>
        <pt x="353" y="380" on="0"/>
        <pt x="353" y="345" on="1"/>
        <pt x="351" y="250" on="1"/>
        <pt x="323" y="242" on="0"/>
        <pt x="234" y="241" on="0"/>
        <pt x="229" y="240" on="1"/>
        <pt x="226" y="225" on="0"/>
        <pt x="226" y="164" on="0"/>
        <pt x="227" y="151" on="1"/>
        <pt x="347" y="145" on="0"/>
        <pt x="441" y="145" on="0"/>
        <pt x="473" y="147" on="1"/>
      </contour>
      <contour>
        <pt x="190" y="0" on="1"/>
        <pt x="455" y="3" on="1"/>
        <pt x="465" y="42" on="0"/>
        <pt x="465" y="104" on="0"/>
        <pt x="463" y="134" on="1"/>
        <pt x="463" y="136" on="1"/>
        <pt x="448" y="135" on="0"/>
        <pt x="420" y="135" on="1"/>
        <pt x="201" y="141" on="1"/>
        <pt x="200" y="142" on="1"/>
        <pt x="196" y="167" on="0"/>
        <pt x="196" y="246" on="0"/>
        <pt x="200" y="267" on="1"/>
        <pt x="206" y="272" on="0"/>
        <pt x="301" y="272" on="0"/>
        <pt x="321" y="278" on="1"/>
        <pt x="322" y="365" on="1"/>
        <pt x="322" y="400" on="0"/>
        <pt x="319" y="417" on="1"/>
        <pt x="319" y="418" on="1"/>
        <pt x="250" y="418" on="0"/>
        <pt x="196" y="421" on="1"/>
        <pt x="195" y="422" on="1"/>
        <pt x="191" y="437" on="0"/>
        <pt x="191" y="460" on="1"/>
        <pt x="194" y="539" on="1"/>
        <pt x="206" y="542" on="0"/>
        <pt x="265" y="542" on="1"/>
        <pt x="344" y="542" on="1"/>
        <pt x="417" y="542" on="0"/>
        <pt x="460" y="552" on="1"/>
        <pt x="460" y="553" on="1"/>
        <pt x="463" y="648" on="1"/>
        <pt x="463" y="671" on="0"/>
        <pt x="460" y="695" on="1"/>
        <pt x="460" y="698" on="0"/>
        <pt x="231" y="698" on="0"/>
        <pt x="46" y="689" on="1"/>
        <pt x="40" y="592" on="0"/>
        <pt x="40" y="449" on="1"/>
        <pt x="45" y="5" on="1"/>
        <pt x="104" y="0" on="0"/>
      </contour>
      <contour>
        <pt x="320" y="721" on="1"/>
        <pt x="299" y="718" on="0"/>
        <pt x="195" y="718" on="0"/>
        <pt x="159" y="729" on="1"/>
        <pt x="168" y="738" on="0"/>
        <pt x="174" y="742" on="1"/>
        <pt x="169" y="743" on="0"/>
        <pt x="161" y="744" on="1"/>
        <pt x="145" y="748" on="0"/>
        <pt x="139" y="749" on="1"/>
        <pt x="173" y="780" on="0"/>
        <pt x="291" y="901" on="0"/>
        <pt x="328" y="930" on="1"/>
        <pt x="347" y="909" on="1"/>
        <pt x="348" y="910" on="1"/>
        <pt x="429" y="826" on="1"/>
        <pt x="427" y="824" on="0"/>
        <pt x="391" y="791" on="1"/>
        <pt x="392" y="791" on="1"/>
        <pt x="331" y="741" on="0"/>
      </contour>
      <contour>
        <pt x="160" y="754" on="1"/>
        <pt x="178" y="748" on="0"/>
        <pt x="284" y="748" on="0"/>
        <pt x="294" y="750" on="1"/>
        <pt x="303" y="765" on="0"/>
        <pt x="389" y="840" on="0"/>
        <pt x="396" y="847" on="1"/>
        <pt x="327" y="917" on="1"/>
        <pt x="299" y="895" on="0"/>
        <pt x="166" y="760" on="0"/>
      </contour>
    </TTGlyph>
    <TTGlyph name="Ecircumflex" xMin="29" yMin="-30" xMax="495" yMax="932">
      <contour>
        <pt x="473" y="135" on="1"/>
        <pt x="474" y="126" on="1"/>
        <pt x="486" y="126" on="0"/>
        <pt x="493" y="127" on="1"/>
        <pt x="493" y="115" on="1"/>
        <pt x="495" y="85" on="0"/>
        <pt x="495" y="21" on="0"/>
        <pt x="483" y="-27" on="1"/>
        <pt x="221" y="-30" on="1"/>
        <pt x="132" y="-30" on="0"/>
        <pt x="55" y="-24" on="1"/>
        <pt x="55" y="-5" on="1"/>
        <pt x="55" y="-5" on="0"/>
        <pt x="35" y="-4" on="1"/>
        <pt x="29" y="439" on="1"/>
        <pt x="29" y="565" on="0"/>
        <pt x="37" y="699" on="1"/>
        <pt x="224" y="708" on="0"/>
        <pt x="387" y="708" on="1"/>
        <pt x="466" y="708" on="0"/>
        <pt x="470" y="696" on="1"/>
        <pt x="470" y="685" on="0"/>
        <pt x="490" y="677" on="0"/>
        <pt x="490" y="676" on="1"/>
        <pt x="494" y="653" on="0"/>
        <pt x="494" y="624" on="1"/>
        <pt x="490" y="524" on="1"/>
        <pt x="439" y="512" on="0"/>
        <pt x="361" y="512" on="1"/>
        <pt x="325" y="512" on="1"/>
        <pt x="286" y="513" on="1"/>
        <pt x="256" y="513" on="0"/>
        <pt x="224" y="510" on="1"/>
        <pt x="221" y="438" on="1"/>
        <pt x="221" y="429" on="1"/>
        <pt x="239" y="428" on="1"/>
        <pt x="278" y="429" on="1"/>
        <pt x="283" y="429" on="0"/>
        <pt x="328" y="426" on="1"/>
        <pt x="328" y="407" on="0"/>
        <pt x="337" y="407" on="1"/>
        <pt x="348" y="406" on="1"/>
        <pt x="353" y="380" on="0"/>
        <pt x="353" y="345" on="1"/>
        <pt x="351" y="250" on="1"/>
        <pt x="323" y="242" on="0"/>
        <pt x="234" y="241" on="0"/>
        <pt x="229" y="240" on="1"/>
        <pt x="226" y="225" on="0"/>
        <pt x="226" y="164" on="0"/>
        <pt x="227" y="151" on="1"/>
        <pt x="347" y="145" on="0"/>
        <pt x="441" y="145" on="0"/>
        <pt x="473" y="147" on="1"/>
      </contour>
      <contour>
        <pt x="190" y="0" on="1"/>
        <pt x="455" y="3" on="1"/>
        <pt x="465" y="42" on="0"/>
        <pt x="465" y="104" on="0"/>
        <pt x="463" y="134" on="1"/>
        <pt x="463" y="136" on="1"/>
        <pt x="448" y="135" on="0"/>
        <pt x="420" y="135" on="1"/>
        <pt x="201" y="141" on="1"/>
        <pt x="200" y="142" on="1"/>
        <pt x="196" y="167" on="0"/>
        <pt x="196" y="246" on="0"/>
        <pt x="200" y="267" on="1"/>
        <pt x="206" y="272" on="0"/>
        <pt x="301" y="272" on="0"/>
        <pt x="321" y="278" on="1"/>
        <pt x="322" y="365" on="1"/>
        <pt x="322" y="400" on="0"/>
        <pt x="319" y="417" on="1"/>
        <pt x="319" y="418" on="1"/>
        <pt x="250" y="418" on="0"/>
        <pt x="196" y="421" on="1"/>
        <pt x="195" y="422" on="1"/>
        <pt x="191" y="437" on="0"/>
        <pt x="191" y="460" on="1"/>
        <pt x="194" y="539" on="1"/>
        <pt x="206" y="542" on="0"/>
        <pt x="265" y="542" on="1"/>
        <pt x="344" y="542" on="1"/>
        <pt x="417" y="542" on="0"/>
        <pt x="460" y="552" on="1"/>
        <pt x="460" y="553" on="1"/>
        <pt x="463" y="648" on="1"/>
        <pt x="463" y="671" on="0"/>
        <pt x="460" y="695" on="1"/>
        <pt x="460" y="698" on="0"/>
        <pt x="231" y="698" on="0"/>
        <pt x="46" y="689" on="1"/>
        <pt x="40" y="592" on="0"/>
        <pt x="40" y="449" on="1"/>
        <pt x="45" y="5" on="1"/>
        <pt x="104" y="0" on="0"/>
      </contour>
      <contour>
        <pt x="429" y="728" on="0"/>
        <pt x="429" y="726" on="0"/>
        <pt x="419" y="724" on="1"/>
        <pt x="382" y="719" on="0"/>
        <pt x="368" y="719" on="1"/>
        <pt x="352" y="719" on="0"/>
        <pt x="333" y="719" on="0"/>
        <pt x="320" y="721" on="0"/>
        <pt x="314" y="724" on="0"/>
        <pt x="301" y="731" on="0"/>
        <pt x="296" y="736" on="1"/>
        <pt x="284" y="748" on="0"/>
        <pt x="266" y="768" on="1"/>
        <pt x="260" y="764" on="0"/>
        <pt x="248" y="750" on="1"/>
        <pt x="223" y="719" on="0"/>
        <pt x="199" y="719" on="1"/>
        <pt x="194" y="719" on="0"/>
        <pt x="170" y="721" on="0"/>
        <pt x="117" y="724" on="0"/>
        <pt x="91" y="726" on="1"/>
        <pt x="92" y="729" on="0"/>
        <pt x="104" y="743" on="1"/>
        <pt x="71" y="746" on="1"/>
        <pt x="117" y="807" on="0"/>
        <pt x="181" y="868" on="0"/>
        <pt x="198" y="884" on="0"/>
        <pt x="245" y="925" on="0"/>
        <pt x="252" y="932" on="1"/>
        <pt x="442" y="743" on="1"/>
        <pt x="428" y="729" on="1"/>
      </contour>
      <contour>
        <pt x="90" y="755" on="1"/>
        <pt x="161" y="749" on="0"/>
        <pt x="181" y="749" on="0"/>
        <pt x="197" y="751" on="1"/>
        <pt x="202" y="753" on="0"/>
        <pt x="244" y="798" on="0"/>
        <pt x="249" y="800" on="1"/>
        <pt x="254" y="797" on="0"/>
        <pt x="294" y="751" on="0"/>
        <pt x="309" y="749" on="0"/>
        <pt x="355" y="749" on="0"/>
        <pt x="389" y="752" on="0"/>
        <pt x="411" y="756" on="0"/>
        <pt x="413" y="756" on="1"/>
        <pt x="415" y="756" on="1"/>
        <pt x="252" y="918" on="1"/>
        <pt x="239" y="906" on="0"/>
        <pt x="179" y="851" on="0"/>
        <pt x="164" y="837" on="1"/>
        <pt x="124" y="800" on="0"/>
      </contour>
    </TTGlyph>
    <TTGlyph name="Edieresis" xMin="29" yMin="-30" xMax="495" yMax="877">
      <contour>
        <pt x="473" y="135" on="1"/>
        <pt x="474" y="126" on="1"/>
        <pt x="486" y="126" on="0"/>
        <pt x="493" y="127" on="1"/>
        <pt x="493" y="115" on="1"/>
        <pt x="495" y="85" on="0"/>
        <pt x="495" y="21" on="0"/>
        <pt x="483" y="-27" on="1"/>
        <pt x="221" y="-30" on="1"/>
        <pt x="132" y="-30" on="0"/>
        <pt x="55" y="-24" on="1"/>
        <pt x="55" y="-5" on="1"/>
        <pt x="55" y="-5" on="0"/>
        <pt x="35" y="-4" on="1"/>
        <pt x="29" y="439" on="1"/>
        <pt x="29" y="565" on="0"/>
        <pt x="37" y="699" on="1"/>
        <pt x="224" y="708" on="0"/>
        <pt x="387" y="708" on="1"/>
        <pt x="466" y="708" on="0"/>
        <pt x="470" y="696" on="1"/>
        <pt x="470" y="685" on="0"/>
        <pt x="490" y="677" on="0"/>
        <pt x="490" y="675" on="1"/>
        <pt x="494" y="653" on="0"/>
        <pt x="494" y="624" on="1"/>
        <pt x="490" y="524" on="1"/>
        <pt x="439" y="512" on="0"/>
        <pt x="361" y="512" on="1"/>
        <pt x="325" y="512" on="1"/>
        <pt x="286" y="513" on="1"/>
        <pt x="256" y="513" on="0"/>
        <pt x="224" y="510" on="1"/>
        <pt x="221" y="438" on="1"/>
        <pt x="221" y="429" on="1"/>
        <pt x="239" y="428" on="1"/>
        <pt x="278" y="429" on="1"/>
        <pt x="283" y="429" on="0"/>
        <pt x="328" y="426" on="1"/>
        <pt x="328" y="407" on="0"/>
        <pt x="337" y="407" on="1"/>
        <pt x="348" y="406" on="1"/>
        <pt x="353" y="380" on="0"/>
        <pt x="353" y="345" on="1"/>
        <pt x="351" y="250" on="1"/>
        <pt x="323" y="242" on="0"/>
        <pt x="234" y="241" on="0"/>
        <pt x="229" y="240" on="1"/>
        <pt x="226" y="225" on="0"/>
        <pt x="226" y="164" on="0"/>
        <pt x="227" y="151" on="1"/>
        <pt x="347" y="145" on="0"/>
        <pt x="441" y="145" on="0"/>
        <pt x="473" y="147" on="1"/>
      </contour>
      <contour>
        <pt x="190" y="0" on="1"/>
        <pt x="455" y="3" on="1"/>
        <pt x="465" y="42" on="0"/>
        <pt x="465" y="104" on="0"/>
        <pt x="463" y="134" on="1"/>
        <pt x="463" y="136" on="1"/>
        <pt x="448" y="135" on="0"/>
        <pt x="420" y="135" on="1"/>
        <pt x="201" y="141" on="1"/>
        <pt x="200" y="142" on="1"/>
        <pt x="196" y="167" on="0"/>
        <pt x="196" y="246" on="0"/>
        <pt x="200" y="267" on="1"/>
        <pt x="206" y="272" on="0"/>
        <pt x="301" y="272" on="0"/>
        <pt x="321" y="278" on="1"/>
        <pt x="322" y="365" on="1"/>
        <pt x="322" y="400" on="0"/>
        <pt x="319" y="417" on="1"/>
        <pt x="319" y="418" on="1"/>
        <pt x="250" y="418" on="0"/>
        <pt x="196" y="421" on="1"/>
        <pt x="195" y="422" on="1"/>
        <pt x="191" y="437" on="0"/>
        <pt x="191" y="460" on="1"/>
        <pt x="194" y="539" on="1"/>
        <pt x="206" y="542" on="0"/>
        <pt x="265" y="542" on="1"/>
        <pt x="344" y="542" on="1"/>
        <pt x="417" y="542" on="0"/>
        <pt x="460" y="552" on="1"/>
        <pt x="460" y="553" on="1"/>
        <pt x="463" y="648" on="1"/>
        <pt x="463" y="671" on="0"/>
        <pt x="460" y="695" on="1"/>
        <pt x="460" y="698" on="0"/>
        <pt x="231" y="698" on="0"/>
        <pt x="46" y="689" on="1"/>
        <pt x="40" y="592" on="0"/>
        <pt x="40" y="449" on="1"/>
        <pt x="45" y="5" on="1"/>
        <pt x="104" y="0" on="0"/>
      </contour>
      <contour>
        <pt x="293" y="729" on="1"/>
        <pt x="290" y="749" on="1"/>
        <pt x="273" y="749" on="1"/>
        <pt x="269" y="769" on="0"/>
        <pt x="269" y="803" on="1"/>
        <pt x="271" y="868" on="1"/>
        <pt x="300" y="877" on="0"/>
        <pt x="379" y="877" on="0"/>
        <pt x="400" y="867" on="1"/>
        <pt x="400" y="853" on="1"/>
        <pt x="412" y="849" on="0"/>
        <pt x="420" y="847" on="1"/>
        <pt x="420" y="800" on="0"/>
        <pt x="411" y="728" on="1"/>
      </contour>
      <contour>
        <pt x="119" y="729" on="1"/>
        <pt x="116" y="749" on="1"/>
        <pt x="99" y="749" on="1"/>
        <pt x="95" y="769" on="0"/>
        <pt x="95" y="803" on="1"/>
        <pt x="97" y="868" on="1"/>
        <pt x="126" y="877" on="0"/>
        <pt x="205" y="877" on="0"/>
        <pt x="226" y="867" on="1"/>
        <pt x="226" y="853" on="1"/>
        <pt x="234" y="851" on="0"/>
        <pt x="246" y="847" on="1"/>
        <pt x="246" y="800" on="0"/>
        <pt x="237" y="728" on="1"/>
      </contour>
      <contour>
        <pt x="281" y="860" on="1"/>
        <pt x="279" y="799" on="1"/>
        <pt x="279" y="774" on="0"/>
        <pt x="282" y="759" on="1"/>
        <pt x="285" y="759" on="1"/>
        <pt x="382" y="758" on="1"/>
        <pt x="384" y="758" on="1"/>
        <pt x="384" y="760" on="1"/>
        <pt x="384" y="773" on="0"/>
        <pt x="388" y="839" on="1"/>
        <pt x="390" y="861" on="1"/>
        <pt x="379" y="866" on="0"/>
        <pt x="300" y="866" on="0"/>
      </contour>
      <contour>
        <pt x="107" y="860" on="1"/>
        <pt x="105" y="799" on="1"/>
        <pt x="105" y="774" on="0"/>
        <pt x="108" y="759" on="1"/>
        <pt x="210" y="759" on="1"/>
        <pt x="210" y="760" on="1"/>
        <pt x="210" y="773" on="0"/>
        <pt x="214" y="839" on="1"/>
        <pt x="216" y="861" on="1"/>
        <pt x="205" y="866" on="0"/>
        <pt x="126" y="866" on="0"/>
      </contour>
    </TTGlyph>
    <TTGlyph name="Egrave" xMin="29" yMin="-30" xMax="495" yMax="930">
      <contour>
        <pt x="473" y="135" on="1"/>
        <pt x="474" y="126" on="1"/>
        <pt x="486" y="126" on="0"/>
        <pt x="493" y="127" on="1"/>
        <pt x="493" y="115" on="1"/>
        <pt x="495" y="85" on="0"/>
        <pt x="495" y="21" on="0"/>
        <pt x="483" y="-27" on="1"/>
        <pt x="221" y="-30" on="1"/>
        <pt x="132" y="-30" on="0"/>
        <pt x="55" y="-24" on="1"/>
        <pt x="55" y="-5" on="1"/>
        <pt x="55" y="-5" on="0"/>
        <pt x="35" y="-4" on="1"/>
        <pt x="29" y="439" on="1"/>
        <pt x="29" y="565" on="0"/>
        <pt x="37" y="699" on="1"/>
        <pt x="224" y="708" on="0"/>
        <pt x="438" y="708" on="0"/>
        <pt x="468" y="699" on="0"/>
        <pt x="472" y="684" on="1"/>
        <pt x="488" y="681" on="0"/>
        <pt x="490" y="676" on="1"/>
        <pt x="494" y="653" on="0"/>
        <pt x="494" y="624" on="1"/>
        <pt x="490" y="524" on="1"/>
        <pt x="439" y="512" on="0"/>
        <pt x="361" y="512" on="1"/>
        <pt x="325" y="512" on="1"/>
        <pt x="286" y="513" on="1"/>
        <pt x="256" y="513" on="0"/>
        <pt x="224" y="510" on="1"/>
        <pt x="221" y="438" on="1"/>
        <pt x="221" y="429" on="1"/>
        <pt x="239" y="428" on="1"/>
        <pt x="278" y="429" on="1"/>
        <pt x="283" y="429" on="0"/>
        <pt x="328" y="426" on="1"/>
        <pt x="328" y="407" on="0"/>
        <pt x="337" y="407" on="1"/>
        <pt x="348" y="406" on="1"/>
        <pt x="353" y="380" on="0"/>
        <pt x="353" y="345" on="1"/>
        <pt x="351" y="250" on="1"/>
        <pt x="323" y="242" on="0"/>
        <pt x="234" y="241" on="0"/>
        <pt x="229" y="240" on="1"/>
        <pt x="226" y="225" on="0"/>
        <pt x="226" y="164" on="0"/>
        <pt x="227" y="151" on="1"/>
        <pt x="347" y="145" on="0"/>
        <pt x="441" y="145" on="0"/>
        <pt x="473" y="147" on="1"/>
      </contour>
      <contour>
        <pt x="190" y="0" on="1"/>
        <pt x="455" y="3" on="1"/>
        <pt x="465" y="42" on="0"/>
        <pt x="465" y="104" on="0"/>
        <pt x="463" y="134" on="1"/>
        <pt x="463" y="136" on="1"/>
        <pt x="448" y="135" on="0"/>
        <pt x="420" y="135" on="1"/>
        <pt x="201" y="141" on="1"/>
        <pt x="200" y="142" on="1"/>
        <pt x="196" y="167" on="0"/>
        <pt x="196" y="246" on="0"/>
        <pt x="200" y="267" on="1"/>
        <pt x="206" y="272" on="0"/>
        <pt x="301" y="272" on="0"/>
        <pt x="321" y="278" on="1"/>
        <pt x="322" y="365" on="1"/>
        <pt x="322" y="400" on="0"/>
        <pt x="319" y="417" on="1"/>
        <pt x="319" y="418" on="1"/>
        <pt x="250" y="418" on="0"/>
        <pt x="196" y="421" on="1"/>
        <pt x="195" y="422" on="1"/>
        <pt x="191" y="437" on="0"/>
        <pt x="191" y="460" on="1"/>
        <pt x="194" y="539" on="1"/>
        <pt x="206" y="542" on="0"/>
        <pt x="265" y="542" on="1"/>
        <pt x="344" y="542" on="1"/>
        <pt x="417" y="542" on="0"/>
        <pt x="460" y="552" on="1"/>
        <pt x="460" y="553" on="1"/>
        <pt x="463" y="648" on="1"/>
        <pt x="463" y="671" on="0"/>
        <pt x="460" y="695" on="1"/>
        <pt x="460" y="698" on="0"/>
        <pt x="231" y="698" on="0"/>
        <pt x="46" y="689" on="1"/>
        <pt x="40" y="592" on="0"/>
        <pt x="40" y="449" on="1"/>
        <pt x="45" y="5" on="1"/>
        <pt x="104" y="0" on="0"/>
      </contour>
      <contour>
        <pt x="388" y="728" on="1"/>
        <pt x="342" y="718" on="0"/>
        <pt x="248" y="718" on="0"/>
        <pt x="227" y="721" on="1"/>
        <pt x="199" y="754" on="0"/>
        <pt x="157" y="790" on="1"/>
        <pt x="157" y="789" on="1"/>
        <pt x="145" y="799" on="0"/>
        <pt x="97" y="847" on="1"/>
        <pt x="179" y="930" on="1"/>
        <pt x="222" y="895" on="0"/>
        <pt x="277" y="838" on="1"/>
        <pt x="359" y="755" on="0"/>
        <pt x="368" y="748" on="1"/>
        <pt x="367" y="747" on="1"/>
        <pt x="381" y="733" on="0"/>
      </contour>
      <contour>
        <pt x="213" y="750" on="1"/>
        <pt x="223" y="748" on="0"/>
        <pt x="328" y="748" on="0"/>
        <pt x="347" y="754" on="1"/>
        <pt x="341" y="760" on="0"/>
        <pt x="208" y="895" on="0"/>
        <pt x="180" y="917" on="1"/>
        <pt x="111" y="847" on="1"/>
        <pt x="115" y="843" on="0"/>
        <pt x="205" y="761" on="0"/>
      </contour>
    </TTGlyph>
    <TTGlyph name="Eth" xMin="-15" yMin="-30" xMax="491" yMax="715">
      <contour>
        <pt x="42" y="419" on="1"/>
        <pt x="43" y="546" on="1"/>
        <pt x="43" y="598" on="0"/>
        <pt x="41" y="696" on="1"/>
        <pt x="149" y="715" on="0"/>
        <pt x="214" y="715" on="1"/>
        <pt x="301" y="715" on="0"/>
        <pt x="432" y="615" on="0"/>
        <pt x="464" y="507" on="1"/>
        <pt x="491" y="420" on="0"/>
        <pt x="491" y="260" on="0"/>
        <pt x="476" y="197" on="1"/>
        <pt x="451" y="86" on="0"/>
        <pt x="378" y="-15" on="0"/>
        <pt x="303" y="-30" on="0"/>
        <pt x="239" y="-30" on="1"/>
        <pt x="83" y="-26" on="1"/>
        <pt x="66" y="-26" on="1"/>
        <pt x="65" y="-5" on="1"/>
        <pt x="46" y="-6" on="1"/>
        <pt x="42" y="111" on="0"/>
        <pt x="42" y="242" on="1"/>
        <pt x="9" y="242" on="1"/>
        <pt x="9" y="262" on="1"/>
        <pt x="-11" y="262" on="1"/>
        <pt x="-15" y="399" on="1"/>
        <pt x="-15" y="420" on="1"/>
      </contour>
      <contour>
        <pt x="53" y="546" on="1"/>
        <pt x="52" y="409" on="1"/>
        <pt x="-5" y="410" on="1"/>
        <pt x="-5" y="394" on="1"/>
        <pt x="-1" y="272" on="1"/>
        <pt x="24" y="272" on="1"/>
        <pt x="43" y="272" on="0"/>
        <pt x="52" y="271" on="1"/>
        <pt x="52" y="132" on="0"/>
        <pt x="56" y="4" on="1"/>
        <pt x="80" y="4" on="1"/>
        <pt x="223" y="0" on="1"/>
        <pt x="284" y="0" on="0"/>
        <pt x="319" y="8" on="1"/>
        <pt x="403" y="27" on="0"/>
        <pt x="446" y="219" on="1"/>
        <pt x="461" y="291" on="0"/>
        <pt x="461" y="347" on="1"/>
        <pt x="461" y="502" on="0"/>
        <pt x="392" y="618" on="1"/>
        <pt x="340" y="705" on="0"/>
        <pt x="214" y="705" on="1"/>
        <pt x="182" y="705" on="0"/>
        <pt x="51" y="687" on="1"/>
        <pt x="53" y="589" on="0"/>
      </contour>
      <contour>
        <pt x="168" y="406" on="1"/>
        <pt x="169" y="472" on="1"/>
        <pt x="169" y="494" on="0"/>
        <pt x="167" y="524" on="1"/>
        <pt x="193" y="534" on="0"/>
        <pt x="248" y="534" on="0"/>
        <pt x="283" y="514" on="0"/>
        <pt x="305" y="485" on="0"/>
        <pt x="321" y="441" on="0"/>
        <pt x="328" y="408" on="0"/>
        <pt x="332" y="363" on="0"/>
        <pt x="332" y="355" on="1"/>
        <pt x="332" y="336" on="1"/>
        <pt x="332" y="249" on="0"/>
        <pt x="306" y="205" on="1"/>
        <pt x="289" y="180" on="0"/>
        <pt x="246" y="164" on="0"/>
        <pt x="187" y="164" on="0"/>
        <pt x="179" y="166" on="1"/>
        <pt x="165" y="171" on="0"/>
        <pt x="165" y="192" on="1"/>
        <pt x="167" y="221" on="1"/>
        <pt x="167" y="278" on="1"/>
        <pt x="230" y="277" on="1"/>
        <pt x="227" y="405" on="1"/>
      </contour>
      <contour>
        <pt x="198" y="175" on="1"/>
        <pt x="231" y="176" on="1"/>
        <pt x="238" y="176" on="1"/>
        <pt x="277" y="181" on="0"/>
        <pt x="297" y="210" on="1"/>
        <pt x="322" y="252" on="0"/>
        <pt x="322" y="445" on="0"/>
        <pt x="285" y="494" on="1"/>
        <pt x="283" y="496" on="1"/>
        <pt x="265" y="504" on="0"/>
        <pt x="226" y="504" on="0"/>
        <pt x="198" y="497" on="1"/>
        <pt x="199" y="482" on="0"/>
        <pt x="199" y="452" on="1"/>
        <pt x="198" y="416" on="1"/>
        <pt x="213" y="415" on="0"/>
        <pt x="237" y="415" on="1"/>
        <pt x="237" y="395" on="1"/>
        <pt x="257" y="395" on="1"/>
        <pt x="260" y="247" on="1"/>
        <pt x="197" y="248" on="1"/>
      </contour>
    </TTGlyph>
    <TTGlyph name="Euro" xMin="18" yMin="-32" xMax="494" yMax="718">
      <contour>
        <pt x="263" y="-29" on="1"/>
        <pt x="244" y="-27" on="1"/>
        <pt x="149" y="-8" on="0"/>
        <pt x="108" y="42" on="1"/>
        <pt x="93" y="57" on="0"/>
        <pt x="87" y="64" on="1"/>
        <pt x="87" y="63" on="1"/>
        <pt x="19" y="140" on="0"/>
        <pt x="19" y="352" on="1"/>
        <pt x="18" y="425" on="1"/>
        <pt x="18" y="501" on="0"/>
        <pt x="28" y="536" on="1"/>
        <pt x="33" y="554" on="0"/>
        <pt x="52" y="603" on="0"/>
        <pt x="87" y="657" on="0"/>
        <pt x="134" y="684" on="1"/>
        <pt x="151" y="694" on="0"/>
        <pt x="205" y="708" on="0"/>
        <pt x="241" y="714" on="0"/>
        <pt x="307" y="718" on="0"/>
        <pt x="393" y="718" on="0"/>
        <pt x="462" y="718" on="1"/>
        <pt x="464" y="704" on="0"/>
        <pt x="464" y="698" on="1"/>
        <pt x="482" y="698" on="1"/>
        <pt x="488" y="652" on="0"/>
        <pt x="488" y="538" on="0"/>
        <pt x="478" y="528" on="1"/>
        <pt x="383" y="533" on="1"/>
        <pt x="326" y="533" on="0"/>
        <pt x="293" y="516" on="1"/>
        <pt x="310" y="514" on="0"/>
        <pt x="326" y="508" on="1"/>
        <pt x="326" y="496" on="0"/>
        <pt x="332" y="492" on="1"/>
        <pt x="333" y="491" on="0"/>
        <pt x="344" y="489" on="0"/>
        <pt x="346" y="488" on="1"/>
        <pt x="350" y="461" on="0"/>
        <pt x="350" y="401" on="0"/>
        <pt x="346" y="373" on="1"/>
        <pt x="339" y="370" on="0"/>
        <pt x="325" y="368" on="1"/>
        <pt x="328" y="350" on="1"/>
        <pt x="345" y="349" on="1"/>
        <pt x="352" y="314" on="0"/>
        <pt x="352" y="259" on="0"/>
        <pt x="347" y="231" on="1"/>
        <pt x="312" y="225" on="0"/>
        <pt x="270" y="225" on="1"/>
        <pt x="235" y="225" on="1"/>
        <pt x="239" y="210" on="0"/>
        <pt x="253" y="202" on="1"/>
        <pt x="260" y="197" on="0"/>
        <pt x="274" y="190" on="0"/>
        <pt x="326" y="180" on="0"/>
        <pt x="344" y="180" on="1"/>
        <pt x="383" y="178" on="1"/>
        <pt x="439" y="176" on="0"/>
        <pt x="471" y="169" on="1"/>
        <pt x="470" y="153" on="1"/>
        <pt x="491" y="149" on="1"/>
        <pt x="490" y="129" on="1"/>
        <pt x="494" y="37" on="1"/>
        <pt x="494" y="1" on="0"/>
        <pt x="487" y="-22" on="1"/>
        <pt x="428" y="-32" on="0"/>
        <pt x="361" y="-32" on="1"/>
      </contour>
      <contour>
        <pt x="341" y="-2" on="1"/>
        <pt x="404" y="-2" on="0"/>
        <pt x="459" y="7" on="1"/>
        <pt x="464" y="39" on="0"/>
        <pt x="464" y="58" on="1"/>
        <pt x="460" y="144" on="1"/>
        <pt x="461" y="161" on="1"/>
        <pt x="461" y="162" on="1"/>
        <pt x="440" y="166" on="0"/>
        <pt x="319" y="169" on="0"/>
        <pt x="277" y="179" on="1"/>
        <pt x="214" y="194" on="0"/>
        <pt x="202" y="254" on="1"/>
        <pt x="215" y="255" on="0"/>
        <pt x="295" y="256" on="0"/>
        <pt x="318" y="260" on="1"/>
        <pt x="322" y="280" on="0"/>
        <pt x="322" y="334" on="0"/>
        <pt x="317" y="359" on="1"/>
        <pt x="271" y="361" on="0"/>
        <pt x="254" y="361" on="1"/>
        <pt x="192" y="361" on="1"/>
        <pt x="189" y="373" on="0"/>
        <pt x="189" y="394" on="1"/>
        <pt x="190" y="394" on="1"/>
        <pt x="198" y="395" on="0"/>
        <pt x="216" y="395" on="1"/>
        <pt x="255" y="394" on="1"/>
        <pt x="300" y="394" on="0"/>
        <pt x="317" y="401" on="1"/>
        <pt x="317" y="402" on="1"/>
        <pt x="320" y="447" on="0"/>
        <pt x="320" y="478" on="0"/>
        <pt x="317" y="501" on="1"/>
        <pt x="317" y="502" on="1"/>
        <pt x="297" y="507" on="0"/>
        <pt x="277" y="507" on="1"/>
        <pt x="228" y="507" on="1"/>
        <pt x="262" y="563" on="0"/>
        <pt x="363" y="563" on="1"/>
        <pt x="407" y="563" on="0"/>
        <pt x="454" y="558" on="1"/>
        <pt x="458" y="562" on="0"/>
        <pt x="458" y="663" on="0"/>
        <pt x="453" y="708" on="1"/>
        <pt x="452" y="709" on="1"/>
        <pt x="402" y="707" on="0"/>
        <pt x="233" y="707" on="0"/>
        <pt x="178" y="690" on="1"/>
        <pt x="153" y="682" on="0"/>
        <pt x="124" y="664" on="1"/>
        <pt x="40" y="614" on="0"/>
        <pt x="31" y="471" on="1"/>
        <pt x="29" y="393" on="0"/>
        <pt x="29" y="352" on="1"/>
        <pt x="29" y="236" on="0"/>
        <pt x="48" y="165" on="1"/>
        <pt x="60" y="120" on="0"/>
        <pt x="101" y="59" on="0"/>
        <pt x="175" y="12" on="0"/>
        <pt x="226" y="3" on="1"/>
        <pt x="244" y="1" on="1"/>
      </contour>
    </TTGlyph>
    <TTGlyph name="F" xMin="31" yMin="-33" xMax="522" yMax="707">
      <contour>
        <pt x="364" y="416" on="1"/>
        <pt x="379" y="418" on="1"/>
        <pt x="386" y="397" on="0"/>
        <pt x="386" y="372" on="1"/>
        <pt x="384" y="290" on="1"/>
        <pt x="386" y="243" on="1"/>
        <pt x="386" y="228" on="0"/>
        <pt x="294" y="221" on="1"/>
        <pt x="253" y="218" on="1"/>
        <pt x="246" y="117" on="0"/>
        <pt x="246" y="12" on="1"/>
        <pt x="246" y="-28" on="1"/>
        <pt x="202" y="-33" on="0"/>
        <pt x="65" y="-33" on="0"/>
        <pt x="51" y="-23" on="1"/>
        <pt x="51" y="-10" on="1"/>
        <pt x="35" y="-7" on="0"/>
        <pt x="31" y="-3" on="1"/>
        <pt x="33" y="689" on="1"/>
        <pt x="128" y="707" on="0"/>
        <pt x="428" y="707" on="0"/>
        <pt x="500" y="690" on="1"/>
        <pt x="500" y="674" on="1"/>
        <pt x="504" y="672" on="0"/>
        <pt x="520" y="670" on="1"/>
        <pt x="522" y="573" on="1"/>
        <pt x="522" y="550" on="0"/>
        <pt x="519" y="505" on="1"/>
        <pt x="507" y="504" on="0"/>
        <pt x="299" y="494" on="0"/>
        <pt x="250" y="489" on="1"/>
        <pt x="244" y="467" on="0"/>
        <pt x="244" y="452" on="0"/>
        <pt x="243" y="443" on="0"/>
        <pt x="244" y="440" on="0"/>
        <pt x="245" y="438" on="1"/>
        <pt x="247" y="433" on="0"/>
        <pt x="258" y="433" on="1"/>
        <pt x="320" y="433" on="0"/>
        <pt x="359" y="438" on="1"/>
        <pt x="362" y="431" on="0"/>
      </contour>
      <contour>
        <pt x="225" y="246" on="1"/>
        <pt x="353" y="261" on="1"/>
        <pt x="356" y="261" on="0"/>
        <pt x="356" y="263" on="1"/>
        <pt x="354" y="285" on="0"/>
        <pt x="354" y="300" on="1"/>
        <pt x="356" y="390" on="1"/>
        <pt x="356" y="418" on="0"/>
        <pt x="353" y="427" on="1"/>
        <pt x="336" y="424" on="0"/>
        <pt x="281" y="424" on="0"/>
        <pt x="254" y="424" on="0"/>
        <pt x="237" y="425" on="0"/>
        <pt x="219" y="435" on="0"/>
        <pt x="214" y="455" on="0"/>
        <pt x="214" y="499" on="0"/>
        <pt x="223" y="518" on="1"/>
        <pt x="272" y="523" on="0"/>
        <pt x="490" y="534" on="1"/>
        <pt x="491" y="543" on="0"/>
        <pt x="491" y="566" on="1"/>
        <pt x="491" y="607" on="1"/>
        <pt x="490" y="682" on="1"/>
        <pt x="430" y="697" on="0"/>
        <pt x="132" y="697" on="0"/>
        <pt x="43" y="680" on="1"/>
        <pt x="43" y="537" on="1"/>
        <pt x="41" y="114" on="1"/>
        <pt x="42" y="1" on="1"/>
        <pt x="49" y="-3" on="0"/>
        <pt x="180" y="-3" on="0"/>
        <pt x="216" y="1" on="1"/>
        <pt x="218" y="178" on="0"/>
        <pt x="224" y="246" on="1"/>
      </contour>
    </TTGlyph>
    <TTGlyph name="G" xMin="17" yMin="-46" xMax="489" yMax="712">
      <contour>
        <pt x="230" y="295" on="1"/>
        <pt x="231" y="319" on="1"/>
        <pt x="231" y="338" on="0"/>
        <pt x="230" y="357" on="1"/>
        <pt x="233" y="357" on="1"/>
        <pt x="236" y="357" on="0"/>
        <pt x="236" y="355" on="1"/>
        <pt x="249" y="368" on="0"/>
        <pt x="319" y="368" on="1"/>
        <pt x="448" y="362" on="1"/>
        <pt x="460" y="361" on="1"/>
        <pt x="460" y="356" on="0"/>
        <pt x="462" y="342" on="1"/>
        <pt x="480" y="341" on="1"/>
        <pt x="489" y="240" on="0"/>
        <pt x="489" y="141" on="0"/>
        <pt x="481" y="104" on="1"/>
        <pt x="465" y="-46" on="0"/>
        <pt x="245" y="-46" on="1"/>
        <pt x="146" y="-46" on="0"/>
        <pt x="27" y="96" on="0"/>
        <pt x="27" y="200" on="1"/>
        <pt x="17" y="284" on="0"/>
        <pt x="17" y="489" on="0"/>
        <pt x="24" y="530" on="1"/>
        <pt x="52" y="712" on="0"/>
        <pt x="239" y="712" on="1"/>
        <pt x="341" y="712" on="0"/>
        <pt x="482" y="590" on="0"/>
        <pt x="482" y="493" on="1"/>
        <pt x="482" y="476" on="1"/>
        <pt x="482" y="453" on="0"/>
        <pt x="472" y="447" on="0"/>
        <pt x="468" y="445" on="1"/>
        <pt x="462" y="441" on="0"/>
        <pt x="450" y="441" on="1"/>
        <pt x="412" y="441" on="1"/>
        <pt x="362" y="441" on="0"/>
        <pt x="335" y="445" on="1"/>
        <pt x="334" y="446" on="0"/>
        <pt x="332" y="459" on="0"/>
        <pt x="325" y="463" on="0"/>
        <pt x="315" y="465" on="1"/>
        <pt x="301" y="511" on="0"/>
        <pt x="290" y="517" on="1"/>
        <pt x="270" y="528" on="0"/>
        <pt x="258" y="528" on="1"/>
        <pt x="240" y="528" on="1"/>
        <pt x="235" y="528" on="0"/>
        <pt x="231" y="526" on="0"/>
        <pt x="226" y="524" on="0"/>
        <pt x="224" y="521" on="0"/>
        <pt x="220" y="516" on="0"/>
        <pt x="219" y="513" on="1"/>
        <pt x="215" y="501" on="0"/>
        <pt x="213" y="496" on="1"/>
        <pt x="194" y="433" on="0"/>
        <pt x="194" y="312" on="1"/>
        <pt x="194" y="253" on="1"/>
        <pt x="194" y="179" on="0"/>
        <pt x="214" y="146" on="1"/>
        <pt x="225" y="143" on="1"/>
        <pt x="229" y="142" on="0"/>
        <pt x="263" y="142" on="0"/>
        <pt x="296" y="157" on="0"/>
        <pt x="308" y="178" on="0"/>
        <pt x="313" y="208" on="1"/>
        <pt x="294" y="208" on="1"/>
        <pt x="269" y="208" on="0"/>
        <pt x="255" y="213" on="1"/>
        <pt x="254" y="225" on="0"/>
        <pt x="246" y="230" on="0"/>
        <pt x="237" y="232" on="0"/>
        <pt x="235" y="233" on="1"/>
        <pt x="230" y="268" on="0"/>
      </contour>
      <contour>
        <pt x="317" y="358" on="1"/>
        <pt x="258" y="358" on="0"/>
        <pt x="240" y="346" on="1"/>
        <pt x="240" y="345" on="1"/>
        <pt x="242" y="334" on="0"/>
        <pt x="242" y="305" on="1"/>
        <pt x="242" y="277" on="1"/>
        <pt x="242" y="250" on="0"/>
        <pt x="244" y="240" on="1"/>
        <pt x="247" y="238" on="0"/>
        <pt x="264" y="238" on="1"/>
        <pt x="304" y="239" on="1"/>
        <pt x="308" y="239" on="0"/>
        <pt x="313" y="239" on="1"/>
        <pt x="322" y="239" on="0"/>
        <pt x="322" y="221" on="1"/>
        <pt x="322" y="166" on="0"/>
        <pt x="276" y="132" on="0"/>
        <pt x="219" y="132" on="0"/>
        <pt x="193" y="147" on="0"/>
        <pt x="177" y="179" on="0"/>
        <pt x="172" y="192" on="1"/>
        <pt x="163" y="220" on="0"/>
        <pt x="163" y="282" on="1"/>
        <pt x="164" y="332" on="1"/>
        <pt x="164" y="405" on="0"/>
        <pt x="180" y="532" on="0"/>
        <pt x="206" y="558" on="0"/>
        <pt x="230" y="558" on="1"/>
        <pt x="255" y="557" on="1"/>
        <pt x="299" y="557" on="0"/>
        <pt x="323" y="474" on="1"/>
        <pt x="354" y="470" on="0"/>
        <pt x="446" y="470" on="0"/>
        <pt x="449" y="475" on="1"/>
        <pt x="452" y="493" on="0"/>
        <pt x="452" y="513" on="1"/>
        <pt x="452" y="603" on="0"/>
        <pt x="332" y="702" on="0"/>
        <pt x="145" y="702" on="0"/>
        <pt x="97" y="662" on="1"/>
        <pt x="61" y="637" on="0"/>
        <pt x="46" y="587" on="1"/>
        <pt x="31" y="535" on="0"/>
        <pt x="29" y="496" on="1"/>
        <pt x="26" y="442" on="0"/>
        <pt x="26" y="420" on="1"/>
        <pt x="27" y="362" on="1"/>
        <pt x="27" y="306" on="1"/>
        <pt x="27" y="217" on="0"/>
        <pt x="51" y="107" on="0"/>
        <pt x="70" y="70" on="0"/>
        <pt x="100" y="25" on="0"/>
        <pt x="120" y="13" on="1"/>
        <pt x="167" y="-16" on="0"/>
        <pt x="225" y="-16" on="1"/>
        <pt x="435" y="-16" on="0"/>
        <pt x="451" y="125" on="1"/>
        <pt x="459" y="162" on="0"/>
        <pt x="459" y="271" on="0"/>
        <pt x="451" y="351" on="1"/>
        <pt x="448" y="352" on="1"/>
      </contour>
    </TTGlyph>
    <TTGlyph name="H" xMin="29" yMin="-36" xMax="499" yMax="717">
      <contour>
        <pt x="499" y="-23" on="1"/>
        <pt x="460" y="-31" on="0"/>
        <pt x="339" y="-31" on="1"/>
        <pt x="336" y="-10" on="1"/>
        <pt x="324" y="-10" on="0"/>
        <pt x="319" y="-11" on="1"/>
        <pt x="312" y="40" on="0"/>
        <pt x="308" y="218" on="0"/>
        <pt x="305" y="250" on="1"/>
        <pt x="283" y="252" on="0"/>
        <pt x="249" y="252" on="0"/>
        <pt x="225" y="247" on="1"/>
        <pt x="224" y="232" on="0"/>
        <pt x="224" y="198" on="1"/>
        <pt x="226" y="79" on="1"/>
        <pt x="226" y="16" on="0"/>
        <pt x="219" y="-19" on="1"/>
        <pt x="201" y="-30" on="0"/>
        <pt x="170" y="-30" on="1"/>
        <pt x="102" y="-26" on="1"/>
        <pt x="84" y="-26" on="0"/>
        <pt x="65" y="-36" on="1"/>
        <pt x="63" y="-28" on="0"/>
        <pt x="63" y="-8" on="1"/>
        <pt x="54" y="-10" on="0"/>
        <pt x="45" y="-16" on="1"/>
        <pt x="29" y="174" on="0"/>
        <pt x="29" y="591" on="1"/>
        <pt x="29" y="676" on="0"/>
        <pt x="30" y="708" on="1"/>
        <pt x="45" y="709" on="1"/>
        <pt x="58" y="706" on="0"/>
        <pt x="72" y="706" on="1"/>
        <pt x="138" y="710" on="1"/>
        <pt x="145" y="710" on="0"/>
        <pt x="155" y="710" on="0"/>
        <pt x="165" y="709" on="0"/>
        <pt x="170" y="706" on="0"/>
        <pt x="173" y="704" on="1"/>
        <pt x="179" y="699" on="0"/>
        <pt x="181" y="688" on="1"/>
        <pt x="197" y="684" on="0"/>
        <pt x="199" y="684" on="1"/>
        <pt x="202" y="654" on="0"/>
        <pt x="209" y="485" on="0"/>
        <pt x="218" y="439" on="1"/>
        <pt x="229" y="439" on="1"/>
        <pt x="260" y="439" on="0"/>
        <pt x="285" y="443" on="1"/>
        <pt x="292" y="443" on="1"/>
        <pt x="298" y="515" on="0"/>
        <pt x="298" y="663" on="0"/>
        <pt x="295" y="703" on="1"/>
        <pt x="343" y="717" on="0"/>
        <pt x="439" y="717" on="0"/>
        <pt x="452" y="715" on="1"/>
        <pt x="452" y="696" on="1"/>
        <pt x="464" y="696" on="0"/>
        <pt x="472" y="695" on="1"/>
      </contour>
      <contour>
        <pt x="195" y="93" on="1"/>
        <pt x="193" y="210" on="1"/>
        <pt x="193" y="242" on="0"/>
        <pt x="196" y="275" on="1"/>
        <pt x="223" y="282" on="0"/>
        <pt x="280" y="282" on="0"/>
        <pt x="312" y="277" on="1"/>
        <pt x="313" y="276" on="1"/>
        <pt x="318" y="235" on="0"/>
        <pt x="321" y="46" on="0"/>
        <pt x="328" y="0" on="1"/>
        <pt x="329" y="0" on="1"/>
        <pt x="337" y="1" on="0"/>
        <pt x="358" y="1" on="1"/>
        <pt x="394" y="1" on="1"/>
        <pt x="440" y="1" on="0"/>
        <pt x="469" y="6" on="1"/>
        <pt x="442" y="706" on="1"/>
        <pt x="431" y="707" on="0"/>
        <pt x="346" y="707" on="0"/>
        <pt x="305" y="695" on="1"/>
        <pt x="308" y="635" on="0"/>
        <pt x="308" y="511" on="0"/>
        <pt x="301" y="434" on="1"/>
        <pt x="300" y="434" on="1"/>
        <pt x="265" y="429" on="0"/>
        <pt x="207" y="429" on="0"/>
        <pt x="192" y="433" on="1"/>
        <pt x="191" y="433" on="1"/>
        <pt x="182" y="479" on="0"/>
        <pt x="175" y="656" on="0"/>
        <pt x="170" y="696" on="1"/>
        <pt x="157" y="700" on="0"/>
        <pt x="134" y="700" on="1"/>
        <pt x="134" y="700" on="0"/>
        <pt x="107" y="699" on="1"/>
        <pt x="74" y="697" on="1"/>
        <pt x="65" y="696" on="1"/>
        <pt x="54" y="696" on="0"/>
        <pt x="43" y="699" on="1"/>
        <pt x="40" y="698" on="1"/>
        <pt x="39" y="666" on="0"/>
        <pt x="39" y="591" on="1"/>
        <pt x="39" y="181" on="0"/>
        <pt x="54" y="1" on="1"/>
        <pt x="61" y="5" on="0"/>
        <pt x="76" y="5" on="1"/>
        <pt x="152" y="0" on="1"/>
        <pt x="179" y="0" on="0"/>
        <pt x="190" y="7" on="1"/>
        <pt x="195" y="42" on="0"/>
      </contour>
    </TTGlyph>
    <TTGlyph name="H18533" xMin="40" yMin="-24" xMax="564" yMax="503">
      <contour>
        <pt x="547" y="107" on="1"/>
        <pt x="546" y="107" on="1"/>
        <pt x="527" y="51" on="0"/>
        <pt x="492" y="27" on="1"/>
        <pt x="473" y="14" on="0"/>
        <pt x="443" y="-3" on="0"/>
        <pt x="391" y="-13" on="0"/>
        <pt x="362" y="-18" on="0"/>
        <pt x="332" y="-20" on="1"/>
        <pt x="290" y="-24" on="1"/>
        <pt x="158" y="-24" on="0"/>
        <pt x="100" y="46" on="1"/>
        <pt x="55" y="85" on="0"/>
        <pt x="49" y="138" on="1"/>
        <pt x="40" y="194" on="0"/>
        <pt x="40" y="296" on="0"/>
        <pt x="42" y="336" on="0"/>
        <pt x="62" y="406" on="0"/>
        <pt x="83" y="431" on="1"/>
        <pt x="119" y="475" on="0"/>
        <pt x="226" y="503" on="0"/>
        <pt x="395" y="503" on="0"/>
        <pt x="466" y="460" on="1"/>
        <pt x="471" y="460" on="0"/>
        <pt x="503" y="428" on="1"/>
        <pt x="564" y="377" on="0"/>
        <pt x="564" y="270" on="1"/>
        <pt x="564" y="213" on="0"/>
        <pt x="550" y="126" on="0"/>
        <pt x="549" y="122" on="1"/>
        <pt x="547" y="112" on="0"/>
      </contour>
      <contour>
        <pt x="517" y="130" on="1"/>
        <pt x="533" y="182" on="0"/>
        <pt x="533" y="400" on="0"/>
        <pt x="470" y="446" on="1"/>
        <pt x="458" y="454" on="1"/>
        <pt x="398" y="493" on="0"/>
        <pt x="300" y="493" on="1"/>
        <pt x="67" y="493" on="0"/>
        <pt x="54" y="339" on="1"/>
        <pt x="50" y="298" on="0"/>
        <pt x="50" y="206" on="0"/>
        <pt x="56" y="145" on="0"/>
        <pt x="81" y="75" on="0"/>
        <pt x="126" y="34" on="0"/>
        <pt x="210" y="6" on="0"/>
        <pt x="269" y="6" on="1"/>
        <pt x="276" y="7" on="0"/>
        <pt x="331" y="11" on="0"/>
        <pt x="352" y="13" on="0"/>
        <pt x="401" y="21" on="0"/>
        <pt x="424" y="30" on="0"/>
        <pt x="463" y="49" on="0"/>
        <pt x="474" y="61" on="1"/>
        <pt x="504" y="93" on="0"/>
      </contour>
    </TTGlyph>
    <TTGlyph name="I" xMin="28" yMin="-38" xMax="252" yMax="718">
      <contour>
        <pt x="56" y="718" on="1"/>
        <pt x="174" y="713" on="1"/>
        <pt x="232" y="713" on="1"/>
        <pt x="232" y="693" on="1"/>
        <pt x="252" y="693" on="1"/>
        <pt x="252" y="679" on="1"/>
        <pt x="245" y="194" on="1"/>
        <pt x="245" y="84" on="0"/>
        <pt x="251" y="-19" on="1"/>
        <pt x="235" y="-35" on="0"/>
        <pt x="178" y="-35" on="1"/>
        <pt x="91" y="-33" on="1"/>
        <pt x="69" y="-33" on="0"/>
        <pt x="48" y="-38" on="1"/>
        <pt x="48" y="-34" on="0"/>
        <pt x="49" y="-18" on="0"/>
        <pt x="49" y="-14" on="1"/>
        <pt x="32" y="-16" on="0"/>
        <pt x="28" y="-18" on="1"/>
        <pt x="35" y="85" on="0"/>
        <pt x="35" y="170" on="1"/>
        <pt x="28" y="515" on="1"/>
        <pt x="28" y="613" on="0"/>
        <pt x="38" y="716" on="1"/>
        <pt x="52" y="718" on="0"/>
      </contour>
      <contour>
        <pt x="215" y="223" on="1"/>
        <pt x="222" y="699" on="1"/>
        <pt x="222" y="703" on="1"/>
        <pt x="175" y="703" on="1"/>
        <pt x="51" y="708" on="1"/>
        <pt x="47" y="708" on="1"/>
        <pt x="47" y="706" on="1"/>
        <pt x="38" y="625" on="0"/>
        <pt x="38" y="516" on="1"/>
        <pt x="45" y="164" on="1"/>
        <pt x="45" y="80" on="0"/>
        <pt x="39" y="-4" on="1"/>
        <pt x="53" y="-2" on="0"/>
        <pt x="62" y="-2" on="1"/>
        <pt x="162" y="-6" on="1"/>
        <pt x="210" y="-6" on="0"/>
        <pt x="221" y="5" on="1"/>
        <pt x="215" y="113" on="0"/>
      </contour>
    </TTGlyph>
    <TTGlyph name="Iacute" xMin="28" yMin="-38" xMax="328" yMax="930">
      <contour>
        <pt x="56" y="718" on="1"/>
        <pt x="174" y="713" on="1"/>
        <pt x="232" y="713" on="1"/>
        <pt x="232" y="693" on="1"/>
        <pt x="252" y="693" on="1"/>
        <pt x="252" y="679" on="1"/>
        <pt x="245" y="194" on="1"/>
        <pt x="245" y="84" on="0"/>
        <pt x="251" y="-19" on="1"/>
        <pt x="235" y="-35" on="0"/>
        <pt x="178" y="-35" on="1"/>
        <pt x="91" y="-33" on="1"/>
        <pt x="69" y="-33" on="0"/>
        <pt x="48" y="-38" on="1"/>
        <pt x="48" y="-34" on="0"/>
        <pt x="49" y="-18" on="0"/>
        <pt x="49" y="-14" on="1"/>
        <pt x="32" y="-16" on="0"/>
        <pt x="28" y="-18" on="1"/>
        <pt x="35" y="85" on="0"/>
        <pt x="35" y="170" on="1"/>
        <pt x="28" y="515" on="1"/>
        <pt x="28" y="613" on="0"/>
        <pt x="38" y="716" on="1"/>
        <pt x="52" y="718" on="0"/>
      </contour>
      <contour>
        <pt x="215" y="223" on="1"/>
        <pt x="222" y="699" on="1"/>
        <pt x="222" y="703" on="1"/>
        <pt x="175" y="703" on="1"/>
        <pt x="51" y="708" on="1"/>
        <pt x="47" y="708" on="1"/>
        <pt x="47" y="706" on="1"/>
        <pt x="38" y="625" on="0"/>
        <pt x="38" y="516" on="1"/>
        <pt x="45" y="164" on="1"/>
        <pt x="45" y="80" on="0"/>
        <pt x="39" y="-4" on="1"/>
        <pt x="53" y="-2" on="0"/>
        <pt x="62" y="-2" on="1"/>
        <pt x="162" y="-6" on="1"/>
        <pt x="210" y="-6" on="0"/>
        <pt x="221" y="5" on="1"/>
        <pt x="215" y="113" on="0"/>
      </contour>
      <contour>
        <pt x="219" y="721" on="1"/>
        <pt x="198" y="718" on="0"/>
        <pt x="94" y="718" on="0"/>
        <pt x="58" y="729" on="1"/>
        <pt x="64" y="733" on="0"/>
        <pt x="73" y="742" on="1"/>
        <pt x="68" y="743" on="0"/>
        <pt x="60" y="744" on="1"/>
        <pt x="44" y="748" on="0"/>
        <pt x="38" y="749" on="1"/>
        <pt x="72" y="780" on="0"/>
        <pt x="190" y="901" on="0"/>
        <pt x="227" y="930" on="1"/>
        <pt x="246" y="909" on="1"/>
        <pt x="247" y="910" on="1"/>
        <pt x="328" y="826" on="1"/>
        <pt x="326" y="824" on="0"/>
        <pt x="290" y="791" on="1"/>
        <pt x="291" y="791" on="1"/>
        <pt x="230" y="741" on="0"/>
      </contour>
      <contour>
        <pt x="59" y="754" on="1"/>
        <pt x="77" y="748" on="0"/>
        <pt x="183" y="748" on="0"/>
        <pt x="193" y="750" on="1"/>
        <pt x="202" y="765" on="0"/>
        <pt x="288" y="840" on="0"/>
        <pt x="295" y="847" on="1"/>
        <pt x="226" y="917" on="1"/>
        <pt x="198" y="895" on="0"/>
        <pt x="65" y="760" on="0"/>
      </contour>
    </TTGlyph>
    <TTGlyph name="Icircumflex" xMin="-37" yMin="-38" xMax="334" yMax="932">
      <contour>
        <pt x="56" y="718" on="1"/>
        <pt x="174" y="713" on="1"/>
        <pt x="232" y="713" on="1"/>
        <pt x="232" y="693" on="1"/>
        <pt x="252" y="693" on="1"/>
        <pt x="252" y="679" on="1"/>
        <pt x="245" y="194" on="1"/>
        <pt x="245" y="84" on="0"/>
        <pt x="251" y="-19" on="1"/>
        <pt x="235" y="-35" on="0"/>
        <pt x="178" y="-35" on="1"/>
        <pt x="91" y="-33" on="1"/>
        <pt x="69" y="-33" on="0"/>
        <pt x="48" y="-38" on="1"/>
        <pt x="48" y="-34" on="0"/>
        <pt x="49" y="-18" on="0"/>
        <pt x="49" y="-14" on="1"/>
        <pt x="32" y="-16" on="0"/>
        <pt x="28" y="-18" on="1"/>
        <pt x="35" y="85" on="0"/>
        <pt x="35" y="170" on="1"/>
        <pt x="28" y="515" on="1"/>
        <pt x="28" y="613" on="0"/>
        <pt x="38" y="716" on="1"/>
        <pt x="52" y="718" on="0"/>
      </contour>
      <contour>
        <pt x="215" y="223" on="1"/>
        <pt x="222" y="699" on="1"/>
        <pt x="222" y="703" on="1"/>
        <pt x="175" y="703" on="1"/>
        <pt x="51" y="708" on="1"/>
        <pt x="47" y="708" on="1"/>
        <pt x="47" y="706" on="1"/>
        <pt x="38" y="625" on="0"/>
        <pt x="38" y="516" on="1"/>
        <pt x="45" y="164" on="1"/>
        <pt x="45" y="80" on="0"/>
        <pt x="39" y="-4" on="1"/>
        <pt x="53" y="-2" on="0"/>
        <pt x="62" y="-2" on="1"/>
        <pt x="162" y="-6" on="1"/>
        <pt x="210" y="-6" on="0"/>
        <pt x="221" y="5" on="1"/>
        <pt x="215" y="113" on="0"/>
      </contour>
      <contour>
        <pt x="226" y="719" on="1"/>
        <pt x="195" y="719" on="0"/>
        <pt x="158" y="768" on="1"/>
        <pt x="152" y="764" on="0"/>
        <pt x="140" y="750" on="1"/>
        <pt x="115" y="719" on="0"/>
        <pt x="91" y="719" on="1"/>
        <pt x="86" y="719" on="0"/>
        <pt x="62" y="721" on="0"/>
        <pt x="9" y="724" on="0"/>
        <pt x="-17" y="726" on="1"/>
        <pt x="-16" y="729" on="0"/>
        <pt x="-4" y="743" on="1"/>
        <pt x="-37" y="746" on="1"/>
        <pt x="9" y="807" on="0"/>
        <pt x="73" y="868" on="0"/>
        <pt x="90" y="884" on="0"/>
        <pt x="137" y="925" on="0"/>
        <pt x="144" y="932" on="1"/>
        <pt x="334" y="743" on="1"/>
        <pt x="320" y="729" on="1"/>
        <pt x="321" y="728" on="0"/>
        <pt x="321" y="726" on="0"/>
        <pt x="311" y="724" on="1"/>
        <pt x="274" y="719" on="0"/>
        <pt x="261" y="719" on="1"/>
        <pt x="243" y="719" on="0"/>
      </contour>
      <contour>
        <pt x="-18" y="755" on="1"/>
        <pt x="53" y="749" on="0"/>
        <pt x="73" y="749" on="0"/>
        <pt x="89" y="751" on="1"/>
        <pt x="94" y="753" on="0"/>
        <pt x="136" y="798" on="0"/>
        <pt x="141" y="800" on="1"/>
        <pt x="146" y="797" on="0"/>
        <pt x="186" y="751" on="0"/>
        <pt x="201" y="749" on="0"/>
        <pt x="247" y="749" on="0"/>
        <pt x="281" y="752" on="0"/>
        <pt x="303" y="756" on="0"/>
        <pt x="305" y="756" on="1"/>
        <pt x="307" y="756" on="1"/>
        <pt x="144" y="918" on="1"/>
        <pt x="131" y="906" on="0"/>
        <pt x="71" y="851" on="0"/>
        <pt x="56" y="837" on="1"/>
        <pt x="16" y="800" on="0"/>
      </contour>
    </TTGlyph>
    <TTGlyph name="Idieresis" xMin="-11" yMin="-38" xMax="314" yMax="877">
      <contour>
        <pt x="56" y="718" on="1"/>
        <pt x="174" y="713" on="1"/>
        <pt x="232" y="713" on="1"/>
        <pt x="232" y="693" on="1"/>
        <pt x="252" y="693" on="1"/>
        <pt x="252" y="679" on="1"/>
        <pt x="245" y="194" on="1"/>
        <pt x="245" y="84" on="0"/>
        <pt x="251" y="-19" on="1"/>
        <pt x="235" y="-35" on="0"/>
        <pt x="178" y="-35" on="1"/>
        <pt x="91" y="-33" on="1"/>
        <pt x="69" y="-33" on="0"/>
        <pt x="48" y="-38" on="1"/>
        <pt x="48" y="-34" on="0"/>
        <pt x="49" y="-18" on="0"/>
        <pt x="49" y="-14" on="1"/>
        <pt x="32" y="-16" on="0"/>
        <pt x="28" y="-18" on="1"/>
        <pt x="35" y="85" on="0"/>
        <pt x="35" y="170" on="1"/>
        <pt x="28" y="515" on="1"/>
        <pt x="28" y="613" on="0"/>
        <pt x="38" y="716" on="1"/>
        <pt x="52" y="718" on="0"/>
      </contour>
      <contour>
        <pt x="215" y="223" on="1"/>
        <pt x="222" y="699" on="1"/>
        <pt x="222" y="703" on="1"/>
        <pt x="175" y="703" on="1"/>
        <pt x="51" y="708" on="1"/>
        <pt x="47" y="708" on="1"/>
        <pt x="47" y="706" on="1"/>
        <pt x="38" y="625" on="0"/>
        <pt x="38" y="516" on="1"/>
        <pt x="45" y="164" on="1"/>
        <pt x="45" y="80" on="0"/>
        <pt x="39" y="-4" on="1"/>
        <pt x="53" y="-2" on="0"/>
        <pt x="62" y="-2" on="1"/>
        <pt x="162" y="-6" on="1"/>
        <pt x="210" y="-6" on="0"/>
        <pt x="221" y="5" on="1"/>
        <pt x="215" y="113" on="0"/>
      </contour>
      <contour>
        <pt x="13" y="729" on="1"/>
        <pt x="10" y="749" on="1"/>
        <pt x="-7" y="749" on="1"/>
        <pt x="-11" y="769" on="0"/>
        <pt x="-11" y="803" on="1"/>
        <pt x="-9" y="868" on="1"/>
        <pt x="20" y="877" on="0"/>
        <pt x="99" y="877" on="0"/>
        <pt x="120" y="867" on="1"/>
        <pt x="120" y="853" on="1"/>
        <pt x="128" y="851" on="0"/>
        <pt x="140" y="847" on="1"/>
        <pt x="140" y="800" on="0"/>
        <pt x="131" y="728" on="1"/>
      </contour>
      <contour>
        <pt x="187" y="729" on="1"/>
        <pt x="184" y="749" on="1"/>
        <pt x="167" y="749" on="1"/>
        <pt x="163" y="769" on="0"/>
        <pt x="163" y="803" on="1"/>
        <pt x="165" y="868" on="1"/>
        <pt x="194" y="877" on="0"/>
        <pt x="273" y="877" on="0"/>
        <pt x="294" y="867" on="1"/>
        <pt x="294" y="853" on="1"/>
        <pt x="314" y="847" on="1"/>
        <pt x="314" y="800" on="0"/>
        <pt x="305" y="728" on="1"/>
      </contour>
      <contour>
        <pt x="175" y="860" on="1"/>
        <pt x="173" y="799" on="1"/>
        <pt x="173" y="774" on="0"/>
        <pt x="176" y="759" on="1"/>
        <pt x="179" y="759" on="1"/>
        <pt x="276" y="758" on="1"/>
        <pt x="278" y="758" on="1"/>
        <pt x="278" y="760" on="1"/>
        <pt x="278" y="773" on="0"/>
        <pt x="282" y="839" on="1"/>
        <pt x="284" y="861" on="1"/>
        <pt x="273" y="866" on="0"/>
        <pt x="194" y="866" on="0"/>
      </contour>
      <contour>
        <pt x="1" y="860" on="1"/>
        <pt x="-1" y="799" on="1"/>
        <pt x="-1" y="774" on="0"/>
        <pt x="2" y="759" on="1"/>
        <pt x="104" y="759" on="1"/>
        <pt x="104" y="760" on="1"/>
        <pt x="104" y="773" on="0"/>
        <pt x="108" y="839" on="1"/>
        <pt x="110" y="861" on="1"/>
        <pt x="99" y="866" on="0"/>
        <pt x="20" y="866" on="0"/>
      </contour>
    </TTGlyph>
    <TTGlyph name="Igrave" xMin="-30" yMin="-38" xMax="261" yMax="930">
      <contour>
        <pt x="56" y="718" on="1"/>
        <pt x="174" y="713" on="1"/>
        <pt x="232" y="713" on="1"/>
        <pt x="232" y="693" on="1"/>
        <pt x="252" y="693" on="1"/>
        <pt x="252" y="679" on="1"/>
        <pt x="245" y="194" on="1"/>
        <pt x="245" y="84" on="0"/>
        <pt x="251" y="-19" on="1"/>
        <pt x="235" y="-35" on="0"/>
        <pt x="178" y="-35" on="1"/>
        <pt x="91" y="-33" on="1"/>
        <pt x="69" y="-33" on="0"/>
        <pt x="48" y="-38" on="1"/>
        <pt x="48" y="-34" on="0"/>
        <pt x="49" y="-18" on="0"/>
        <pt x="49" y="-14" on="1"/>
        <pt x="32" y="-16" on="0"/>
        <pt x="28" y="-18" on="1"/>
        <pt x="35" y="85" on="0"/>
        <pt x="35" y="170" on="1"/>
        <pt x="28" y="515" on="1"/>
        <pt x="28" y="613" on="0"/>
        <pt x="38" y="716" on="1"/>
        <pt x="52" y="718" on="0"/>
      </contour>
      <contour>
        <pt x="215" y="223" on="1"/>
        <pt x="222" y="699" on="1"/>
        <pt x="222" y="703" on="1"/>
        <pt x="175" y="703" on="1"/>
        <pt x="51" y="708" on="1"/>
        <pt x="47" y="708" on="1"/>
        <pt x="47" y="706" on="1"/>
        <pt x="38" y="625" on="0"/>
        <pt x="38" y="516" on="1"/>
        <pt x="45" y="164" on="1"/>
        <pt x="45" y="80" on="0"/>
        <pt x="39" y="-4" on="1"/>
        <pt x="53" y="-2" on="0"/>
        <pt x="62" y="-2" on="1"/>
        <pt x="162" y="-6" on="1"/>
        <pt x="210" y="-6" on="0"/>
        <pt x="221" y="5" on="1"/>
        <pt x="215" y="113" on="0"/>
      </contour>
      <contour>
        <pt x="261" y="728" on="1"/>
        <pt x="215" y="718" on="0"/>
        <pt x="121" y="718" on="0"/>
        <pt x="100" y="721" on="1"/>
        <pt x="72" y="754" on="0"/>
        <pt x="30" y="790" on="1"/>
        <pt x="30" y="789" on="1"/>
        <pt x="18" y="799" on="0"/>
        <pt x="-30" y="847" on="1"/>
        <pt x="52" y="930" on="1"/>
        <pt x="87" y="902" on="0"/>
        <pt x="211" y="772" on="0"/>
        <pt x="241" y="748" on="1"/>
        <pt x="240" y="747" on="1"/>
        <pt x="254" y="733" on="0"/>
      </contour>
      <contour>
        <pt x="86" y="750" on="1"/>
        <pt x="96" y="748" on="0"/>
        <pt x="200" y="748" on="0"/>
        <pt x="220" y="754" on="1"/>
        <pt x="214" y="760" on="0"/>
        <pt x="81" y="895" on="0"/>
        <pt x="53" y="917" on="1"/>
        <pt x="-16" y="847" on="1"/>
        <pt x="-12" y="843" on="0"/>
        <pt x="78" y="761" on="0"/>
      </contour>
    </TTGlyph>
    <TTGlyph name="J" xMin="-7" yMin="-38" xMax="460" yMax="722">
      <contour>
        <pt x="265" y="556" on="1"/>
        <pt x="269" y="703" on="1"/>
        <pt x="269" y="720" on="1"/>
        <pt x="435" y="722" on="1"/>
        <pt x="435" y="702" on="1"/>
        <pt x="455" y="702" on="1"/>
        <pt x="455" y="642" on="1"/>
        <pt x="460" y="366" on="1"/>
        <pt x="460" y="366" on="0"/>
        <pt x="458" y="268" on="1"/>
        <pt x="455" y="143" on="0"/>
        <pt x="439" y="102" on="1"/>
        <pt x="415" y="38" on="0"/>
        <pt x="364" y="-3" on="0"/>
        <pt x="337" y="-13" on="1"/>
        <pt x="291" y="-38" on="0"/>
        <pt x="156" y="-38" on="0"/>
        <pt x="64" y="13" on="0"/>
        <pt x="40" y="57" on="1"/>
        <pt x="-7" y="141" on="0"/>
        <pt x="-7" y="258" on="1"/>
        <pt x="-6" y="296" on="1"/>
        <pt x="17" y="303" on="0"/>
        <pt x="129" y="303" on="0"/>
        <pt x="169" y="294" on="1"/>
        <pt x="169" y="277" on="1"/>
        <pt x="178" y="274" on="0"/>
        <pt x="189" y="274" on="1"/>
        <pt x="189" y="260" on="1"/>
        <pt x="189" y="242" on="0"/>
        <pt x="196" y="203" on="0"/>
        <pt x="201" y="193" on="0"/>
        <pt x="205" y="186" on="1"/>
        <pt x="212" y="175" on="0"/>
        <pt x="229" y="175" on="1"/>
        <pt x="264" y="175" on="0"/>
        <pt x="270" y="236" on="1"/>
        <pt x="266" y="353" on="0"/>
        <pt x="265" y="535" on="0"/>
      </contour>
      <contour>
        <pt x="429" y="380" on="1"/>
        <pt x="424" y="662" on="1"/>
        <pt x="424" y="695" on="0"/>
        <pt x="425" y="712" on="1"/>
        <pt x="279" y="710" on="1"/>
        <pt x="279" y="703" on="1"/>
        <pt x="276" y="610" on="0"/>
        <pt x="276" y="359" on="0"/>
        <pt x="280" y="236" on="1"/>
        <pt x="277" y="206" on="0"/>
        <pt x="252" y="165" on="0"/>
        <pt x="229" y="165" on="1"/>
        <pt x="166" y="165" on="0"/>
        <pt x="159" y="280" on="1"/>
        <pt x="159" y="286" on="1"/>
        <pt x="112" y="293" on="0"/>
        <pt x="31" y="293" on="0"/>
        <pt x="4" y="288" on="1"/>
        <pt x="3" y="277" on="0"/>
        <pt x="3" y="257" on="1"/>
        <pt x="3" y="166" on="0"/>
        <pt x="59" y="20" on="0"/>
        <pt x="126" y="0" on="1"/>
        <pt x="166" y="-8" on="0"/>
        <pt x="264" y="-8" on="0"/>
        <pt x="313" y="16" on="1"/>
        <pt x="368" y="37" on="0"/>
        <pt x="390" y="80" on="1"/>
        <pt x="401" y="103" on="0"/>
        <pt x="417" y="143" on="0"/>
        <pt x="424" y="208" on="0"/>
        <pt x="427" y="245" on="0"/>
        <pt x="428" y="317" on="0"/>
        <pt x="429" y="329" on="1"/>
      </contour>
    </TTGlyph>
    <TTGlyph name="K" xMin="29" yMin="-32" xMax="497" yMax="709">
      <contour>
        <pt x="340" y="707" on="1"/>
        <pt x="406" y="708" on="1"/>
        <pt x="441" y="708" on="0"/>
        <pt x="475" y="703" on="1"/>
        <pt x="474" y="700" on="0"/>
        <pt x="470" y="690" on="0"/>
        <pt x="469" y="686" on="1"/>
        <pt x="477" y="685" on="0"/>
        <pt x="495" y="683" on="1"/>
        <pt x="472" y="609" on="0"/>
        <pt x="338" y="374" on="0"/>
        <pt x="323" y="340" on="1"/>
        <pt x="497" y="-23" on="1"/>
        <pt x="465" y="-31" on="0"/>
        <pt x="428" y="-31" on="1"/>
        <pt x="339" y="-28" on="1"/>
        <pt x="333" y="-22" on="0"/>
        <pt x="323" y="-8" on="1"/>
        <pt x="319" y="-8" on="1"/>
        <pt x="268" y="46" on="0"/>
        <pt x="215" y="182" on="1"/>
        <pt x="219" y="-23" on="1"/>
        <pt x="189" y="-32" on="0"/>
        <pt x="94" y="-32" on="0"/>
        <pt x="53" y="-23" on="1"/>
        <pt x="51" y="-7" on="0"/>
        <pt x="44" y="-4" on="1"/>
        <pt x="43" y="-4" on="0"/>
        <pt x="36" y="-4" on="0"/>
        <pt x="33" y="-3" on="1"/>
        <pt x="29" y="84" on="0"/>
        <pt x="29" y="200" on="1"/>
        <pt x="35" y="709" on="1"/>
        <pt x="59" y="709" on="1"/>
        <pt x="189" y="707" on="1"/>
        <pt x="189" y="687" on="1"/>
        <pt x="209" y="687" on="1"/>
        <pt x="210" y="648" on="0"/>
        <pt x="210" y="557" on="1"/>
        <pt x="210" y="516" on="1"/>
        <pt x="220" y="534" on="0"/>
        <pt x="240" y="572" on="1"/>
        <pt x="284" y="657" on="0"/>
        <pt x="321" y="708" on="1"/>
      </contour>
      <contour>
        <pt x="189" y="5" on="1"/>
        <pt x="185" y="214" on="1"/>
        <pt x="185" y="247" on="0"/>
        <pt x="186" y="263" on="1"/>
        <pt x="194" y="249" on="0"/>
        <pt x="290" y="40" on="0"/>
        <pt x="324" y="2" on="1"/>
        <pt x="399" y="-1" on="0"/>
        <pt x="439" y="-1" on="0"/>
        <pt x="463" y="4" on="1"/>
        <pt x="292" y="359" on="1"/>
        <pt x="310" y="402" on="0"/>
        <pt x="444" y="632" on="0"/>
        <pt x="462" y="695" on="1"/>
        <pt x="438" y="698" on="0"/>
        <pt x="413" y="698" on="1"/>
        <pt x="352" y="697" on="1"/>
        <pt x="334" y="697" on="0"/>
        <pt x="326" y="698" on="1"/>
        <pt x="301" y="662" on="0"/>
        <pt x="216" y="501" on="0"/>
        <pt x="186" y="463" on="1"/>
        <pt x="181" y="457" on="1"/>
        <pt x="180" y="481" on="0"/>
        <pt x="180" y="531" on="1"/>
        <pt x="180" y="623" on="1"/>
        <pt x="180" y="673" on="0"/>
        <pt x="179" y="697" on="1"/>
        <pt x="64" y="699" on="1"/>
        <pt x="49" y="699" on="0"/>
        <pt x="44" y="692" on="0"/>
        <pt x="45" y="676" on="0"/>
        <pt x="45" y="674" on="1"/>
        <pt x="39" y="201" on="1"/>
        <pt x="39" y="92" on="0"/>
        <pt x="43" y="5" on="1"/>
        <pt x="76" y="-2" on="0"/>
        <pt x="165" y="-2" on="0"/>
      </contour>
    </TTGlyph>
    <TTGlyph name="L" xMin="26" yMin="-32" xMax="489" yMax="722">
      <contour>
        <pt x="486" y="82" on="1"/>
        <pt x="487" y="72" on="1"/>
        <pt x="487" y="71" on="1"/>
        <pt x="489" y="23" on="0"/>
        <pt x="489" y="-6" on="0"/>
        <pt x="482" y="-27" on="0"/>
        <pt x="471" y="-30" on="0"/>
        <pt x="463" y="-30" on="1"/>
        <pt x="456" y="-30" on="0"/>
        <pt x="450" y="-30" on="1"/>
        <pt x="450" y="-30" on="0"/>
        <pt x="433" y="-29" on="1"/>
        <pt x="224" y="-32" on="1"/>
        <pt x="114" y="-32" on="0"/>
        <pt x="46" y="-31" on="1"/>
        <pt x="46" y="-11" on="1"/>
        <pt x="26" y="-11" on="1"/>
        <pt x="26" y="17" on="1"/>
        <pt x="33" y="158" on="0"/>
        <pt x="33" y="563" on="0"/>
        <pt x="29" y="710" on="1"/>
        <pt x="58" y="722" on="0"/>
        <pt x="173" y="722" on="0"/>
        <pt x="209" y="706" on="1"/>
        <pt x="208" y="693" on="1"/>
        <pt x="222" y="690" on="0"/>
        <pt x="229" y="686" on="1"/>
        <pt x="227" y="614" on="0"/>
        <pt x="227" y="567" on="1"/>
        <pt x="230" y="210" on="1"/>
        <pt x="230" y="170" on="1"/>
        <pt x="366" y="162" on="0"/>
        <pt x="447" y="162" on="0"/>
        <pt x="469" y="164" on="1"/>
        <pt x="469" y="142" on="1"/>
        <pt x="489" y="144" on="1"/>
      </contour>
      <contour>
        <pt x="457" y="91" on="1"/>
        <pt x="456" y="101" on="1"/>
        <pt x="456" y="110" on="0"/>
        <pt x="459" y="144" on="0"/>
        <pt x="459" y="152" on="1"/>
        <pt x="457" y="151" on="0"/>
        <pt x="444" y="151" on="1"/>
        <pt x="230" y="160" on="1"/>
        <pt x="214" y="160" on="0"/>
        <pt x="200" y="158" on="1"/>
        <pt x="200" y="159" on="1"/>
        <pt x="201" y="237" on="1"/>
        <pt x="197" y="580" on="1"/>
        <pt x="197" y="622" on="0"/>
        <pt x="199" y="700" on="1"/>
        <pt x="170" y="712" on="0"/>
        <pt x="62" y="712" on="0"/>
        <pt x="39" y="703" on="1"/>
        <pt x="43" y="504" on="0"/>
        <pt x="43" y="158" on="0"/>
        <pt x="36" y="17" on="1"/>
        <pt x="36" y="-1" on="1"/>
        <pt x="182" y="-3" on="0"/>
        <pt x="272" y="-3" on="0"/>
        <pt x="362" y="-1" on="0"/>
        <pt x="409" y="1" on="0"/>
        <pt x="416" y="1" on="1"/>
        <pt x="438" y="0" on="1"/>
        <pt x="451" y="0" on="0"/>
        <pt x="459" y="12" on="0"/>
        <pt x="459" y="43" on="0"/>
      </contour>
    </TTGlyph>
    <TTGlyph name="M" xMin="31" yMin="-33" xMax="491" yMax="707">
      <contour>
        <pt x="489" y="601" on="1"/>
        <pt x="491" y="390" on="1"/>
        <pt x="491" y="318" on="0"/>
        <pt x="489" y="297" on="1"/>
        <pt x="486" y="-32" on="1"/>
        <pt x="458" y="-28" on="0"/>
        <pt x="422" y="-28" on="1"/>
        <pt x="334" y="-30" on="1"/>
        <pt x="333" y="-23" on="0"/>
        <pt x="333" y="-9" on="1"/>
        <pt x="314" y="-10" on="1"/>
        <pt x="311" y="43" on="0"/>
        <pt x="310" y="259" on="0"/>
        <pt x="309" y="292" on="1"/>
        <pt x="302" y="275" on="0"/>
        <pt x="298" y="261" on="0"/>
        <pt x="292" y="247" on="0"/>
        <pt x="288" y="238" on="0"/>
        <pt x="283" y="228" on="0"/>
        <pt x="279" y="221" on="0"/>
        <pt x="276" y="218" on="1"/>
        <pt x="271" y="213" on="0"/>
        <pt x="266" y="213" on="1"/>
        <pt x="258" y="213" on="0"/>
        <pt x="246" y="233" on="1"/>
        <pt x="231" y="234" on="0"/>
        <pt x="210" y="284" on="1"/>
        <pt x="209" y="260" on="0"/>
        <pt x="209" y="126" on="0"/>
        <pt x="219" y="-26" on="1"/>
        <pt x="180" y="-32" on="0"/>
        <pt x="136" y="-32" on="1"/>
        <pt x="106" y="-33" on="1"/>
        <pt x="53" y="-33" on="0"/>
        <pt x="53" y="-10" on="1"/>
        <pt x="48" y="-10" on="1"/>
        <pt x="40" y="-10" on="0"/>
        <pt x="31" y="10" on="0"/>
        <pt x="31" y="436" on="0"/>
        <pt x="34" y="693" on="1"/>
        <pt x="61" y="702" on="0"/>
        <pt x="95" y="702" on="1"/>
        <pt x="156" y="700" on="1"/>
        <pt x="174" y="700" on="0"/>
        <pt x="185" y="701" on="1"/>
        <pt x="192" y="691" on="0"/>
        <pt x="199" y="680" on="1"/>
        <pt x="205" y="681" on="1"/>
        <pt x="220" y="664" on="0"/>
        <pt x="239" y="615" on="0"/>
        <pt x="253" y="573" on="0"/>
        <pt x="256" y="566" on="1"/>
        <pt x="278" y="663" on="0"/>
        <pt x="308" y="704" on="1"/>
        <pt x="322" y="702" on="0"/>
        <pt x="332" y="702" on="1"/>
        <pt x="470" y="707" on="1"/>
        <pt x="469" y="687" on="1"/>
        <pt x="490" y="687" on="1"/>
        <pt x="489" y="662" on="0"/>
      </contour>
      <contour>
        <pt x="324" y="0" on="1"/>
        <pt x="387" y="1" on="1"/>
        <pt x="423" y="1" on="1"/>
        <pt x="434" y="1" on="0"/>
        <pt x="456" y="-1" on="1"/>
        <pt x="459" y="318" on="1"/>
        <pt x="461" y="340" on="0"/>
        <pt x="461" y="416" on="1"/>
        <pt x="459" y="621" on="1"/>
        <pt x="459" y="672" on="0"/>
        <pt x="460" y="697" on="1"/>
        <pt x="328" y="692" on="1"/>
        <pt x="314" y="692" on="0"/>
        <pt x="312" y="693" on="1"/>
        <pt x="297" y="673" on="0"/>
        <pt x="256" y="536" on="0"/>
        <pt x="253" y="537" on="1"/>
        <pt x="246" y="537" on="0"/>
        <pt x="219" y="603" on="0"/>
        <pt x="189" y="681" on="0"/>
        <pt x="181" y="691" on="1"/>
        <pt x="180" y="691" on="1"/>
        <pt x="169" y="690" on="0"/>
        <pt x="145" y="690" on="1"/>
        <pt x="109" y="691" on="1"/>
        <pt x="93" y="691" on="1"/>
        <pt x="60" y="691" on="0"/>
        <pt x="44" y="686" on="1"/>
        <pt x="41" y="430" on="0"/>
        <pt x="41" y="0" on="0"/>
        <pt x="48" y="0" on="1"/>
        <pt x="123" y="-1" on="1"/>
        <pt x="161" y="-1" on="0"/>
        <pt x="188" y="3" on="1"/>
        <pt x="179" y="140" on="0"/>
        <pt x="179" y="308" on="0"/>
        <pt x="185" y="382" on="1"/>
        <pt x="188" y="372" on="1"/>
        <pt x="190" y="367" on="0"/>
        <pt x="203" y="329" on="0"/>
        <pt x="215" y="298" on="0"/>
        <pt x="222" y="280" on="1"/>
        <pt x="239" y="243" on="0"/>
        <pt x="247" y="243" on="1"/>
        <pt x="254" y="243" on="0"/>
        <pt x="304" y="378" on="0"/>
        <pt x="310" y="389" on="1"/>
        <pt x="318" y="323" on="0"/>
        <pt x="323" y="18" on="0"/>
      </contour>
    </TTGlyph>
    <TTGlyph name="N" xMin="29" yMin="-35" xMax="487" yMax="720">
      <contour>
        <pt x="486" y="40" on="1"/>
        <pt x="487" y="0" on="1"/>
        <pt x="486" y="-28" on="1"/>
        <pt x="484" y="-28" on="0"/>
        <pt x="478" y="-30" on="1"/>
        <pt x="461" y="-35" on="0"/>
        <pt x="444" y="-35" on="1"/>
        <pt x="346" y="-30" on="1"/>
        <pt x="340" y="-20" on="0"/>
        <pt x="337" y="-10" on="1"/>
        <pt x="326" y="-10" on="1"/>
        <pt x="311" y="23" on="0"/>
        <pt x="285" y="78" on="1"/>
        <pt x="227" y="200" on="0"/>
        <pt x="210" y="249" on="1"/>
        <pt x="210" y="22" on="0"/>
        <pt x="212" y="-28" on="1"/>
        <pt x="191" y="-35" on="0"/>
        <pt x="158" y="-35" on="1"/>
        <pt x="52" y="-29" on="1"/>
        <pt x="52" y="-9" on="1"/>
        <pt x="32" y="-9" on="1"/>
        <pt x="32" y="71" on="1"/>
        <pt x="29" y="432" on="1"/>
        <pt x="29" y="589" on="0"/>
        <pt x="39" y="708" on="1"/>
        <pt x="63" y="714" on="0"/>
        <pt x="114" y="714" on="0"/>
        <pt x="184" y="703" on="0"/>
        <pt x="186" y="695" on="1"/>
        <pt x="188" y="685" on="0"/>
        <pt x="206" y="676" on="0"/>
        <pt x="206" y="675" on="1"/>
        <pt x="233" y="610" on="0"/>
        <pt x="309" y="449" on="1"/>
        <pt x="309" y="470" on="1"/>
        <pt x="306" y="615" on="1"/>
        <pt x="306" y="620" on="0"/>
        <pt x="306" y="627" on="1"/>
        <pt x="308" y="691" on="1"/>
        <pt x="308" y="713" on="1"/>
        <pt x="343" y="720" on="0"/>
        <pt x="426" y="720" on="0"/>
        <pt x="466" y="712" on="1"/>
        <pt x="466" y="695" on="1"/>
        <pt x="478" y="692" on="0"/>
        <pt x="486" y="692" on="1"/>
        <pt x="486" y="362" on="1"/>
        <pt x="487" y="191" on="1"/>
        <pt x="486" y="134" on="1"/>
      </contour>
      <contour>
        <pt x="332" y="0" on="1"/>
        <pt x="424" y="-5" on="1"/>
        <pt x="442" y="-5" on="0"/>
        <pt x="457" y="0" on="1"/>
        <pt x="457" y="20" on="1"/>
        <pt x="456" y="100" on="1"/>
        <pt x="457" y="211" on="1"/>
        <pt x="457" y="297" on="1"/>
        <pt x="457" y="354" on="0"/>
        <pt x="456" y="382" on="1"/>
        <pt x="456" y="704" on="1"/>
        <pt x="428" y="710" on="0"/>
        <pt x="352" y="710" on="0"/>
        <pt x="318" y="704" on="1"/>
        <pt x="316" y="638" on="0"/>
        <pt x="316" y="615" on="1"/>
        <pt x="319" y="470" on="1"/>
        <pt x="319" y="420" on="0"/>
        <pt x="312" y="415" on="1"/>
        <pt x="310" y="415" on="0"/>
        <pt x="235" y="565" on="0"/>
        <pt x="221" y="599" on="0"/>
        <pt x="200" y="640" on="0"/>
        <pt x="200" y="641" on="1"/>
        <pt x="189" y="664" on="1"/>
        <pt x="186" y="670" on="0"/>
        <pt x="176" y="694" on="1"/>
        <pt x="176" y="698" on="0"/>
        <pt x="112" y="704" on="0"/>
        <pt x="65" y="704" on="0"/>
        <pt x="48" y="700" on="1"/>
        <pt x="39" y="591" on="0"/>
        <pt x="39" y="432" on="1"/>
        <pt x="42" y="71" on="1"/>
        <pt x="42" y="1" on="1"/>
        <pt x="138" y="-5" on="1"/>
        <pt x="163" y="-5" on="0"/>
        <pt x="182" y="0" on="1"/>
        <pt x="181" y="11" on="0"/>
        <pt x="181" y="38" on="1"/>
        <pt x="181" y="83" on="1"/>
        <pt x="181" y="337" on="0"/>
        <pt x="188" y="337" on="1"/>
        <pt x="191" y="337" on="0"/>
        <pt x="201" y="307" on="1"/>
        <pt x="211" y="277" on="1"/>
        <pt x="236" y="210" on="0"/>
        <pt x="318" y="32" on="0"/>
      </contour>
    </TTGlyph>
    <TTGlyph name="Ntilde" xMin="28" yMin="-38" xMax="506" yMax="929">
      <contour>
        <pt x="310" y="514" on="1"/>
        <pt x="304" y="641" on="1"/>
        <pt x="304" y="673" on="0"/>
        <pt x="309" y="707" on="1"/>
        <pt x="346" y="716" on="0"/>
        <pt x="454" y="716" on="0"/>
        <pt x="484" y="710" on="1"/>
        <pt x="484" y="693" on="1"/>
        <pt x="495" y="692" on="0"/>
        <pt x="504" y="690" on="1"/>
        <pt x="503" y="362" on="1"/>
        <pt x="504" y="304" on="0"/>
        <pt x="504" y="50" on="0"/>
        <pt x="506" y="-4" on="1"/>
        <pt x="505" y="-18" on="1"/>
        <pt x="496" y="-38" on="0"/>
        <pt x="459" y="-38" on="1"/>
        <pt x="377" y="-33" on="1"/>
        <pt x="358" y="-33" on="0"/>
        <pt x="341" y="-36" on="1"/>
        <pt x="335" y="-24" on="0"/>
        <pt x="331" y="-14" on="1"/>
        <pt x="321" y="-16" on="1"/>
        <pt x="284" y="64" on="0"/>
        <pt x="232" y="199" on="1"/>
        <pt x="230" y="121" on="0"/>
        <pt x="230" y="83" on="1"/>
        <pt x="231" y="-29" on="1"/>
        <pt x="205" y="-36" on="0"/>
        <pt x="188" y="-36" on="1"/>
        <pt x="88" y="-28" on="1"/>
        <pt x="72" y="-28" on="0"/>
        <pt x="52" y="-31" on="1"/>
        <pt x="52" y="-8" on="1"/>
        <pt x="41" y="-8" on="0"/>
        <pt x="32" y="-11" on="1"/>
        <pt x="32" y="47" on="1"/>
        <pt x="28" y="417" on="1"/>
        <pt x="28" y="571" on="0"/>
        <pt x="38" y="701" on="1"/>
        <pt x="62" y="711" on="0"/>
        <pt x="148" y="711" on="0"/>
        <pt x="203" y="695" on="1"/>
        <pt x="203" y="686" on="0"/>
        <pt x="206" y="684" on="1"/>
        <pt x="212" y="676" on="0"/>
        <pt x="223" y="675" on="1"/>
        <pt x="230" y="643" on="0"/>
        <pt x="306" y="521" on="1"/>
        <pt x="306" y="520" on="0"/>
        <pt x="310" y="516" on="0"/>
      </contour>
      <contour>
        <pt x="351" y="-3" on="1"/>
        <pt x="438" y="-8" on="1"/>
        <pt x="469" y="-8" on="0"/>
        <pt x="475" y="3" on="1"/>
        <pt x="476" y="17" on="1"/>
        <pt x="474" y="49" on="0"/>
        <pt x="474" y="162" on="1"/>
        <pt x="474" y="260" on="1"/>
        <pt x="474" y="342" on="0"/>
        <pt x="473" y="382" on="1"/>
        <pt x="474" y="702" on="1"/>
        <pt x="438" y="706" on="0"/>
        <pt x="350" y="706" on="0"/>
        <pt x="318" y="699" on="1"/>
        <pt x="318" y="696" on="1"/>
        <pt x="314" y="676" on="0"/>
        <pt x="314" y="642" on="1"/>
        <pt x="320" y="514" on="1"/>
        <pt x="320" y="487" on="0"/>
        <pt x="316" y="474" on="1"/>
        <pt x="305" y="493" on="0"/>
        <pt x="272" y="548" on="1"/>
        <pt x="197" y="669" on="0"/>
        <pt x="194" y="687" on="1"/>
        <pt x="194" y="688" on="1"/>
        <pt x="144" y="701" on="0"/>
        <pt x="64" y="701" on="0"/>
        <pt x="48" y="695" on="1"/>
        <pt x="38" y="569" on="0"/>
        <pt x="38" y="428" on="1"/>
        <pt x="42" y="63" on="1"/>
        <pt x="42" y="1" on="1"/>
        <pt x="43" y="0" on="1"/>
        <pt x="57" y="2" on="0"/>
        <pt x="66" y="2" on="1"/>
        <pt x="166" y="-6" on="1"/>
        <pt x="196" y="-6" on="0"/>
        <pt x="202" y="0" on="1"/>
        <pt x="200" y="72" on="0"/>
        <pt x="200" y="200" on="0"/>
        <pt x="207" y="294" on="1"/>
        <pt x="288" y="80" on="0"/>
        <pt x="327" y="-5" on="1"/>
        <pt x="328" y="-5" on="1"/>
        <pt x="342" y="-3" on="0"/>
      </contour>
      <contour>
        <pt x="194" y="722" on="1"/>
        <pt x="177" y="726" on="0"/>
        <pt x="99" y="726" on="0"/>
        <pt x="65" y="724" on="1"/>
        <pt x="66" y="732" on="0"/>
        <pt x="71" y="745" on="1"/>
        <pt x="65" y="745" on="0"/>
        <pt x="48" y="744" on="0"/>
        <pt x="45" y="744" on="1"/>
        <pt x="92" y="929" on="0"/>
        <pt x="201" y="929" on="1"/>
        <pt x="258" y="929" on="0"/>
        <pt x="308" y="863" on="1"/>
        <pt x="308" y="864" on="1"/>
        <pt x="312" y="855" on="0"/>
        <pt x="338" y="855" on="0"/>
        <pt x="366" y="898" on="0"/>
        <pt x="371" y="917" on="1"/>
        <pt x="397" y="920" on="0"/>
        <pt x="448" y="920" on="1"/>
        <pt x="468" y="922" on="0"/>
        <pt x="472" y="912" on="1"/>
        <pt x="473" y="907" on="0"/>
        <pt x="473" y="900" on="1"/>
        <pt x="484" y="900" on="0"/>
        <pt x="493" y="891" on="0"/>
        <pt x="494" y="884" on="0"/>
        <pt x="494" y="872" on="1"/>
        <pt x="494" y="810" on="0"/>
        <pt x="422" y="718" on="0"/>
        <pt x="368" y="718" on="1"/>
        <pt x="333" y="718" on="0"/>
        <pt x="270" y="759" on="0"/>
        <pt x="258" y="789" on="1"/>
        <pt x="248" y="791" on="0"/>
        <pt x="228" y="791" on="0"/>
        <pt x="202" y="772" on="0"/>
        <pt x="202" y="745" on="0"/>
        <pt x="206" y="736" on="1"/>
      </contour>
      <contour>
        <pt x="464" y="888" on="1"/>
        <pt x="464" y="907" on="0"/>
        <pt x="460" y="911" on="1"/>
        <pt x="379" y="908" on="0"/>
        <pt x="378" y="908" on="1"/>
        <pt x="372" y="887" on="0"/>
        <pt x="342" y="845" on="0"/>
        <pt x="308" y="845" on="0"/>
        <pt x="275" y="882" on="0"/>
        <pt x="231" y="919" on="0"/>
        <pt x="200" y="919" on="1"/>
        <pt x="104" y="919" on="0"/>
        <pt x="59" y="755" on="1"/>
        <pt x="76" y="756" on="0"/>
        <pt x="159" y="756" on="0"/>
        <pt x="176" y="752" on="1"/>
        <pt x="176" y="753" on="1"/>
        <pt x="172" y="762" on="0"/>
        <pt x="172" y="794" on="0"/>
        <pt x="203" y="821" on="0"/>
        <pt x="251" y="821" on="0"/>
        <pt x="265" y="798" on="1"/>
        <pt x="286" y="748" on="0"/>
        <pt x="348" y="748" on="1"/>
        <pt x="397" y="748" on="0"/>
        <pt x="464" y="833" on="0"/>
      </contour>
    </TTGlyph>
    <TTGlyph name="O" xMin="18" yMin="-44" xMax="486" yMax="711">
      <contour>
        <pt x="318" y="420" on="1"/>
        <pt x="318" y="465" on="0"/>
        <pt x="302" y="519" on="0"/>
        <pt x="282" y="533" on="0"/>
        <pt x="268" y="533" on="1"/>
        <pt x="237" y="533" on="0"/>
        <pt x="185" y="485" on="0"/>
        <pt x="176" y="447" on="1"/>
        <pt x="162" y="390" on="0"/>
        <pt x="168" y="293" on="1"/>
        <pt x="171" y="278" on="0"/>
        <pt x="176" y="228" on="1"/>
        <pt x="181" y="168" on="0"/>
        <pt x="189" y="148" on="1"/>
        <pt x="208" y="136" on="0"/>
        <pt x="275" y="136" on="0"/>
        <pt x="300" y="163" on="1"/>
        <pt x="315" y="183" on="0"/>
        <pt x="320" y="221" on="0"/>
        <pt x="320" y="300" on="1"/>
        <pt x="320" y="348" on="1"/>
        <pt x="318" y="416" on="1"/>
      </contour>
      <contour>
        <pt x="243" y="-44" on="1"/>
        <pt x="98" y="-44" on="0"/>
        <pt x="51" y="53" on="1"/>
        <pt x="51" y="52" on="1"/>
        <pt x="31" y="84" on="0"/>
        <pt x="26" y="137" on="1"/>
        <pt x="23" y="174" on="0"/>
        <pt x="23" y="232" on="1"/>
        <pt x="18" y="317" on="0"/>
        <pt x="18" y="513" on="0"/>
        <pt x="29" y="564" on="1"/>
        <pt x="48" y="649" on="0"/>
        <pt x="102" y="680" on="1"/>
        <pt x="165" y="711" on="0"/>
        <pt x="228" y="711" on="1"/>
        <pt x="362" y="711" on="0"/>
        <pt x="419" y="642" on="1"/>
        <pt x="452" y="609" on="0"/>
        <pt x="486" y="533" on="0"/>
        <pt x="486" y="447" on="1"/>
        <pt x="484" y="246" on="0"/>
        <pt x="480" y="205" on="1"/>
        <pt x="477" y="172" on="1"/>
        <pt x="469" y="80" on="0"/>
        <pt x="437" y="32" on="1"/>
        <pt x="409" y="-7" on="0"/>
        <pt x="300" y="-44" on="0"/>
      </contour>
      <contour>
        <pt x="330" y="300" on="1"/>
        <pt x="330" y="204" on="0"/>
        <pt x="324" y="187" on="1"/>
        <pt x="304" y="126" on="0"/>
        <pt x="235" y="126" on="1"/>
        <pt x="178" y="126" on="0"/>
        <pt x="160" y="170" on="1"/>
        <pt x="147" y="203" on="0"/>
        <pt x="140" y="297" on="0"/>
        <pt x="136" y="345" on="0"/>
        <pt x="136" y="362" on="1"/>
        <pt x="136" y="563" on="0"/>
        <pt x="247" y="563" on="1"/>
        <pt x="328" y="563" on="0"/>
        <pt x="328" y="416" on="1"/>
        <pt x="330" y="348" on="1"/>
      </contour>
      <contour>
        <pt x="240" y="700" on="1"/>
        <pt x="131" y="700" on="0"/>
        <pt x="84" y="653" on="1"/>
        <pt x="55" y="620" on="0"/>
        <pt x="45" y="580" on="1"/>
        <pt x="41" y="564" on="0"/>
        <pt x="35" y="545" on="0"/>
        <pt x="31" y="506" on="0"/>
        <pt x="29" y="491" on="0"/>
        <pt x="28" y="448" on="0"/>
        <pt x="28" y="444" on="1"/>
        <pt x="28" y="392" on="1"/>
        <pt x="28" y="368" on="0"/>
        <pt x="36" y="168" on="1"/>
        <pt x="38" y="65" on="0"/>
        <pt x="133" y="-14" on="0"/>
        <pt x="223" y="-14" on="1"/>
        <pt x="278" y="-14" on="0"/>
        <pt x="383" y="22" on="0"/>
        <pt x="409" y="58" on="1"/>
        <pt x="440" y="106" on="0"/>
        <pt x="447" y="193" on="1"/>
        <pt x="450" y="226" on="1"/>
        <pt x="455" y="283" on="0"/>
        <pt x="455" y="467" on="1"/>
        <pt x="455" y="555" on="0"/>
        <pt x="437" y="592" on="1"/>
        <pt x="418" y="646" on="0"/>
        <pt x="308" y="700" on="0"/>
      </contour>
    </TTGlyph>
    <TTGlyph name="OE" xMin="16" yMin="-44" xMax="844" yMax="710">
      <contour>
        <pt x="822" y="128" on="1"/>
        <pt x="842" y="127" on="1"/>
        <pt x="842" y="116" on="1"/>
        <pt x="844" y="84" on="0"/>
        <pt x="844" y="17" on="0"/>
        <pt x="829" y="-27" on="1"/>
        <pt x="778" y="-28" on="0"/>
        <pt x="678" y="-28" on="1"/>
        <pt x="616" y="-28" on="1"/>
        <pt x="461" y="-28" on="0"/>
        <pt x="299" y="-44" on="0"/>
        <pt x="268" y="-44" on="1"/>
        <pt x="89" y="-44" on="0"/>
        <pt x="30" y="112" on="1"/>
        <pt x="16" y="169" on="0"/>
        <pt x="16" y="307" on="0"/>
        <pt x="26" y="483" on="0"/>
        <pt x="27" y="504" on="1"/>
        <pt x="29" y="588" on="0"/>
        <pt x="140" y="710" on="0"/>
        <pt x="220" y="710" on="1"/>
        <pt x="298" y="706" on="1"/>
        <pt x="313" y="707" on="1"/>
        <pt x="441" y="705" on="0"/>
        <pt x="512" y="705" on="1"/>
        <pt x="821" y="708" on="1"/>
        <pt x="821" y="687" on="1"/>
        <pt x="841" y="688" on="1"/>
        <pt x="842" y="629" on="1"/>
        <pt x="842" y="571" on="0"/>
        <pt x="837" y="522" on="1"/>
        <pt x="795" y="514" on="0"/>
        <pt x="726" y="514" on="1"/>
        <pt x="661" y="514" on="1"/>
        <pt x="603" y="514" on="0"/>
        <pt x="572" y="509" on="1"/>
        <pt x="569" y="443" on="1"/>
        <pt x="569" y="430" on="1"/>
        <pt x="580" y="429" on="1"/>
        <pt x="604" y="430" on="1"/>
        <pt x="651" y="430" on="0"/>
        <pt x="679" y="426" on="1"/>
        <pt x="680" y="408" on="1"/>
        <pt x="685" y="408" on="0"/>
        <pt x="699" y="406" on="1"/>
        <pt x="700" y="395" on="1"/>
        <pt x="702" y="365" on="0"/>
        <pt x="702" y="294" on="0"/>
        <pt x="698" y="242" on="1"/>
        <pt x="632" y="244" on="0"/>
        <pt x="630" y="244" on="1"/>
        <pt x="577" y="243" on="1"/>
        <pt x="574" y="235" on="0"/>
        <pt x="574" y="158" on="0"/>
        <pt x="576" y="151" on="1"/>
        <pt x="616" y="149" on="0"/>
        <pt x="782" y="148" on="0"/>
        <pt x="822" y="147" on="1"/>
      </contour>
      <contour>
        <pt x="812" y="137" on="1"/>
        <pt x="556" y="142" on="1"/>
        <pt x="554" y="142" on="1"/>
        <pt x="544" y="158" on="0"/>
        <pt x="544" y="267" on="0"/>
        <pt x="552" y="273" on="1"/>
        <pt x="553" y="273" on="1"/>
        <pt x="625" y="274" on="1"/>
        <pt x="650" y="274" on="0"/>
        <pt x="669" y="273" on="1"/>
        <pt x="670" y="274" on="1"/>
        <pt x="672" y="368" on="1"/>
        <pt x="672" y="382" on="0"/>
        <pt x="670" y="414" on="1"/>
        <pt x="669" y="417" on="1"/>
        <pt x="648" y="420" on="0"/>
        <pt x="565" y="420" on="0"/>
        <pt x="547" y="422" on="1"/>
        <pt x="539" y="440" on="0"/>
        <pt x="539" y="463" on="1"/>
        <pt x="542" y="525" on="1"/>
        <pt x="542" y="537" on="1"/>
        <pt x="543" y="538" on="1"/>
        <pt x="580" y="544" on="0"/>
        <pt x="636" y="544" on="1"/>
        <pt x="704" y="543" on="1"/>
        <pt x="768" y="543" on="0"/>
        <pt x="808" y="551" on="1"/>
        <pt x="811" y="582" on="0"/>
        <pt x="811" y="649" on="1"/>
        <pt x="811" y="698" on="1"/>
        <pt x="776" y="698" on="1"/>
        <pt x="458" y="696" on="1"/>
        <pt x="361" y="696" on="0"/>
        <pt x="314" y="697" on="1"/>
        <pt x="299" y="697" on="1"/>
        <pt x="220" y="700" on="1"/>
        <pt x="141" y="700" on="0"/>
        <pt x="39" y="585" on="0"/>
        <pt x="37" y="504" on="1"/>
        <pt x="37" y="467" on="0"/>
        <pt x="26" y="303" on="0"/>
        <pt x="26" y="207" on="0"/>
        <pt x="37" y="127" on="0"/>
        <pt x="52" y="86" on="1"/>
        <pt x="84" y="2" on="0"/>
        <pt x="185" y="-10" on="1"/>
        <pt x="216" y="-14" on="0"/>
        <pt x="281" y="-14" on="0"/>
        <pt x="342" y="-8" on="1"/>
        <pt x="460" y="2" on="0"/>
        <pt x="605" y="2" on="1"/>
        <pt x="712" y="2" on="1"/>
        <pt x="771" y="2" on="0"/>
        <pt x="802" y="3" on="1"/>
        <pt x="803" y="3" on="1"/>
        <pt x="814" y="37" on="0"/>
        <pt x="814" y="103" on="0"/>
        <pt x="812" y="135" on="1"/>
      </contour>
      <contour>
        <pt x="157" y="274" on="1"/>
        <pt x="160" y="363" on="1"/>
        <pt x="160" y="386" on="0"/>
        <pt x="157" y="412" on="1"/>
        <pt x="157" y="446" on="1"/>
        <pt x="157" y="564" on="0"/>
        <pt x="241" y="564" on="1"/>
        <pt x="285" y="564" on="0"/>
        <pt x="308" y="536" on="1"/>
        <pt x="316" y="526" on="0"/>
        <pt x="334" y="498" on="1"/>
        <pt x="343" y="471" on="0"/>
        <pt x="343" y="346" on="0"/>
        <pt x="332" y="258" on="1"/>
        <pt x="312" y="122" on="0"/>
        <pt x="233" y="122" on="1"/>
        <pt x="206" y="122" on="0"/>
        <pt x="172" y="164" on="0"/>
        <pt x="166" y="197" on="1"/>
        <pt x="157" y="246" on="0"/>
      </contour>
      <contour>
        <pt x="189" y="349" on="1"/>
        <pt x="187" y="257" on="1"/>
        <pt x="187" y="133" on="0"/>
        <pt x="233" y="133" on="1"/>
        <pt x="255" y="133" on="0"/>
        <pt x="275" y="148" on="1"/>
        <pt x="309" y="178" on="0"/>
        <pt x="322" y="259" on="1"/>
        <pt x="333" y="347" on="0"/>
        <pt x="333" y="439" on="0"/>
        <pt x="331" y="461" on="0"/>
        <pt x="321" y="503" on="0"/>
        <pt x="320" y="504" on="1"/>
        <pt x="308" y="534" on="0"/>
        <pt x="215" y="534" on="0"/>
        <pt x="187" y="470" on="0"/>
        <pt x="187" y="405" on="1"/>
        <pt x="187" y="393" on="1"/>
        <pt x="189" y="384" on="0"/>
      </contour>
    </TTGlyph>
    <TTGlyph name="Oacute" xMin="19" yMin="-39" xMax="487" yMax="930">
      <contour>
        <pt x="326" y="721" on="1"/>
        <pt x="305" y="718" on="0"/>
        <pt x="201" y="718" on="0"/>
        <pt x="165" y="729" on="1"/>
        <pt x="171" y="733" on="0"/>
        <pt x="180" y="742" on="1"/>
        <pt x="175" y="743" on="0"/>
        <pt x="167" y="744" on="1"/>
        <pt x="151" y="748" on="0"/>
        <pt x="145" y="749" on="1"/>
        <pt x="179" y="780" on="0"/>
        <pt x="297" y="901" on="0"/>
        <pt x="334" y="930" on="1"/>
        <pt x="353" y="909" on="1"/>
        <pt x="354" y="910" on="1"/>
        <pt x="435" y="826" on="1"/>
        <pt x="433" y="824" on="0"/>
        <pt x="397" y="791" on="1"/>
        <pt x="398" y="791" on="1"/>
        <pt x="337" y="741" on="0"/>
      </contour>
      <contour>
        <pt x="319" y="425" on="1"/>
        <pt x="319" y="470" on="0"/>
        <pt x="303" y="524" on="0"/>
        <pt x="283" y="538" on="0"/>
        <pt x="269" y="538" on="1"/>
        <pt x="238" y="538" on="0"/>
        <pt x="186" y="490" on="0"/>
        <pt x="177" y="452" on="1"/>
        <pt x="163" y="395" on="0"/>
        <pt x="169" y="298" on="1"/>
        <pt x="172" y="283" on="0"/>
        <pt x="176" y="234" on="1"/>
        <pt x="182" y="173" on="0"/>
        <pt x="190" y="153" on="1"/>
        <pt x="209" y="141" on="0"/>
        <pt x="276" y="141" on="0"/>
        <pt x="301" y="168" on="1"/>
        <pt x="316" y="188" on="0"/>
        <pt x="321" y="226" on="0"/>
        <pt x="321" y="305" on="1"/>
        <pt x="321" y="353" on="1"/>
        <pt x="319" y="421" on="1"/>
      </contour>
      <contour>
        <pt x="244" y="-39" on="1"/>
        <pt x="99" y="-39" on="0"/>
        <pt x="52" y="58" on="1"/>
        <pt x="52" y="57" on="1"/>
        <pt x="32" y="89" on="0"/>
        <pt x="28" y="142" on="1"/>
        <pt x="24" y="179" on="0"/>
        <pt x="24" y="237" on="1"/>
        <pt x="19" y="322" on="0"/>
        <pt x="19" y="518" on="0"/>
        <pt x="30" y="569" on="1"/>
        <pt x="49" y="654" on="0"/>
        <pt x="103" y="685" on="1"/>
        <pt x="166" y="716" on="0"/>
        <pt x="230" y="716" on="1"/>
        <pt x="363" y="716" on="0"/>
        <pt x="420" y="647" on="1"/>
        <pt x="453" y="614" on="0"/>
        <pt x="487" y="538" on="0"/>
        <pt x="487" y="452" on="1"/>
        <pt x="485" y="251" on="0"/>
        <pt x="481" y="210" on="1"/>
        <pt x="478" y="177" on="1"/>
        <pt x="470" y="85" on="0"/>
        <pt x="438" y="37" on="1"/>
        <pt x="410" y="-2" on="0"/>
        <pt x="301" y="-39" on="0"/>
      </contour>
      <contour>
        <pt x="166" y="754" on="1"/>
        <pt x="184" y="748" on="0"/>
        <pt x="290" y="748" on="0"/>
        <pt x="300" y="750" on="1"/>
        <pt x="309" y="765" on="0"/>
        <pt x="395" y="840" on="0"/>
        <pt x="402" y="847" on="1"/>
        <pt x="333" y="917" on="1"/>
        <pt x="305" y="895" on="0"/>
        <pt x="172" y="760" on="0"/>
      </contour>
      <contour>
        <pt x="331" y="305" on="1"/>
        <pt x="331" y="209" on="0"/>
        <pt x="325" y="192" on="1"/>
        <pt x="305" y="131" on="0"/>
        <pt x="236" y="131" on="1"/>
        <pt x="179" y="131" on="0"/>
        <pt x="161" y="176" on="1"/>
        <pt x="148" y="208" on="0"/>
        <pt x="141" y="302" on="0"/>
        <pt x="137" y="350" on="0"/>
        <pt x="137" y="367" on="1"/>
        <pt x="137" y="568" on="0"/>
        <pt x="248" y="568" on="1"/>
        <pt x="329" y="568" on="0"/>
        <pt x="329" y="421" on="1"/>
        <pt x="331" y="353" on="1"/>
      </contour>
      <contour>
        <pt x="241" y="705" on="1"/>
        <pt x="132" y="705" on="0"/>
        <pt x="85" y="658" on="1"/>
        <pt x="56" y="625" on="0"/>
        <pt x="46" y="586" on="1"/>
        <pt x="42" y="569" on="0"/>
        <pt x="36" y="550" on="0"/>
        <pt x="32" y="511" on="0"/>
        <pt x="30" y="496" on="0"/>
        <pt x="29" y="453" on="0"/>
        <pt x="29" y="448" on="1"/>
        <pt x="29" y="397" on="1"/>
        <pt x="29" y="373" on="0"/>
        <pt x="37" y="173" on="1"/>
        <pt x="39" y="70" on="0"/>
        <pt x="134" y="-9" on="0"/>
        <pt x="224" y="-9" on="1"/>
        <pt x="279" y="-9" on="0"/>
        <pt x="384" y="27" on="0"/>
        <pt x="410" y="63" on="1"/>
        <pt x="441" y="111" on="0"/>
        <pt x="448" y="198" on="1"/>
        <pt x="451" y="231" on="1"/>
        <pt x="456" y="288" on="0"/>
        <pt x="456" y="472" on="1"/>
        <pt x="456" y="560" on="0"/>
        <pt x="438" y="597" on="1"/>
        <pt x="419" y="651" on="0"/>
        <pt x="309" y="705" on="0"/>
      </contour>
    </TTGlyph>
    <TTGlyph name="Ocircumflex" xMin="18" yMin="-39" xMax="486" yMax="932">
      <contour>
        <pt x="424" y="728" on="0"/>
        <pt x="424" y="726" on="0"/>
        <pt x="414" y="724" on="1"/>
        <pt x="377" y="719" on="0"/>
        <pt x="363" y="719" on="1"/>
        <pt x="347" y="719" on="0"/>
        <pt x="328" y="719" on="0"/>
        <pt x="315" y="721" on="0"/>
        <pt x="309" y="724" on="0"/>
        <pt x="296" y="731" on="0"/>
        <pt x="290" y="736" on="1"/>
        <pt x="279" y="748" on="0"/>
        <pt x="261" y="768" on="1"/>
        <pt x="255" y="764" on="0"/>
        <pt x="244" y="750" on="1"/>
        <pt x="218" y="719" on="0"/>
        <pt x="194" y="719" on="1"/>
        <pt x="189" y="719" on="0"/>
        <pt x="165" y="721" on="0"/>
        <pt x="112" y="724" on="0"/>
        <pt x="86" y="726" on="1"/>
        <pt x="88" y="729" on="0"/>
        <pt x="99" y="743" on="1"/>
        <pt x="66" y="746" on="1"/>
        <pt x="112" y="807" on="0"/>
        <pt x="176" y="868" on="0"/>
        <pt x="193" y="884" on="0"/>
        <pt x="240" y="925" on="0"/>
        <pt x="247" y="932" on="1"/>
        <pt x="437" y="743" on="1"/>
        <pt x="423" y="729" on="1"/>
      </contour>
      <contour>
        <pt x="318" y="425" on="1"/>
        <pt x="318" y="470" on="0"/>
        <pt x="302" y="524" on="0"/>
        <pt x="282" y="538" on="0"/>
        <pt x="268" y="538" on="1"/>
        <pt x="237" y="538" on="0"/>
        <pt x="185" y="490" on="0"/>
        <pt x="176" y="452" on="1"/>
        <pt x="162" y="395" on="0"/>
        <pt x="168" y="298" on="1"/>
        <pt x="171" y="283" on="0"/>
        <pt x="176" y="234" on="1"/>
        <pt x="181" y="173" on="0"/>
        <pt x="189" y="153" on="1"/>
        <pt x="208" y="141" on="0"/>
        <pt x="275" y="141" on="0"/>
        <pt x="300" y="168" on="1"/>
        <pt x="315" y="188" on="0"/>
        <pt x="320" y="226" on="0"/>
        <pt x="320" y="305" on="1"/>
        <pt x="320" y="353" on="1"/>
        <pt x="318" y="421" on="1"/>
      </contour>
      <contour>
        <pt x="243" y="-39" on="1"/>
        <pt x="98" y="-39" on="0"/>
        <pt x="51" y="58" on="1"/>
        <pt x="51" y="57" on="1"/>
        <pt x="31" y="89" on="0"/>
        <pt x="26" y="142" on="1"/>
        <pt x="23" y="179" on="0"/>
        <pt x="23" y="237" on="1"/>
        <pt x="18" y="322" on="0"/>
        <pt x="18" y="518" on="0"/>
        <pt x="29" y="569" on="1"/>
        <pt x="48" y="654" on="0"/>
        <pt x="102" y="685" on="1"/>
        <pt x="165" y="716" on="0"/>
        <pt x="228" y="716" on="1"/>
        <pt x="362" y="716" on="0"/>
        <pt x="419" y="647" on="1"/>
        <pt x="452" y="614" on="0"/>
        <pt x="486" y="538" on="0"/>
        <pt x="486" y="452" on="1"/>
        <pt x="484" y="251" on="0"/>
        <pt x="480" y="210" on="1"/>
        <pt x="477" y="177" on="1"/>
        <pt x="469" y="85" on="0"/>
        <pt x="437" y="37" on="1"/>
        <pt x="409" y="-2" on="0"/>
        <pt x="300" y="-39" on="0"/>
      </contour>
      <contour>
        <pt x="330" y="305" on="1"/>
        <pt x="330" y="209" on="0"/>
        <pt x="324" y="192" on="1"/>
        <pt x="304" y="131" on="0"/>
        <pt x="235" y="131" on="1"/>
        <pt x="178" y="131" on="0"/>
        <pt x="160" y="176" on="1"/>
        <pt x="147" y="208" on="0"/>
        <pt x="140" y="302" on="0"/>
        <pt x="136" y="350" on="0"/>
        <pt x="136" y="367" on="1"/>
        <pt x="136" y="568" on="0"/>
        <pt x="247" y="568" on="1"/>
        <pt x="328" y="568" on="0"/>
        <pt x="328" y="421" on="1"/>
        <pt x="330" y="353" on="1"/>
      </contour>
      <contour>
        <pt x="240" y="705" on="1"/>
        <pt x="131" y="705" on="0"/>
        <pt x="84" y="658" on="1"/>
        <pt x="55" y="625" on="0"/>
        <pt x="45" y="586" on="1"/>
        <pt x="41" y="569" on="0"/>
        <pt x="35" y="550" on="0"/>
        <pt x="31" y="511" on="0"/>
        <pt x="29" y="496" on="0"/>
        <pt x="28" y="453" on="0"/>
        <pt x="28" y="448" on="1"/>
        <pt x="28" y="397" on="1"/>
        <pt x="28" y="373" on="0"/>
        <pt x="36" y="173" on="1"/>
        <pt x="38" y="70" on="0"/>
        <pt x="133" y="-9" on="0"/>
        <pt x="223" y="-9" on="1"/>
        <pt x="278" y="-9" on="0"/>
        <pt x="383" y="27" on="0"/>
        <pt x="409" y="63" on="1"/>
        <pt x="440" y="111" on="0"/>
        <pt x="447" y="198" on="1"/>
        <pt x="450" y="231" on="1"/>
        <pt x="455" y="288" on="0"/>
        <pt x="455" y="472" on="1"/>
        <pt x="455" y="560" on="0"/>
        <pt x="437" y="597" on="1"/>
        <pt x="418" y="651" on="0"/>
        <pt x="308" y="705" on="0"/>
      </contour>
      <contour>
        <pt x="85" y="755" on="1"/>
        <pt x="156" y="749" on="0"/>
        <pt x="176" y="749" on="0"/>
        <pt x="192" y="751" on="1"/>
        <pt x="197" y="753" on="0"/>
        <pt x="239" y="798" on="0"/>
        <pt x="244" y="800" on="1"/>
        <pt x="249" y="797" on="0"/>
        <pt x="289" y="751" on="0"/>
        <pt x="304" y="749" on="0"/>
        <pt x="350" y="749" on="0"/>
        <pt x="384" y="752" on="0"/>
        <pt x="406" y="756" on="0"/>
        <pt x="408" y="756" on="1"/>
        <pt x="410" y="756" on="1"/>
        <pt x="247" y="918" on="1"/>
        <pt x="234" y="906" on="0"/>
        <pt x="174" y="851" on="0"/>
        <pt x="159" y="837" on="1"/>
        <pt x="119" y="800" on="0"/>
      </contour>
    </TTGlyph>
    <TTGlyph name="Odieresis" xMin="18" yMin="-39" xMax="486" yMax="877">
      <contour>
        <pt x="243" y="-39" on="1"/>
        <pt x="98" y="-39" on="0"/>
        <pt x="51" y="58" on="1"/>
        <pt x="51" y="57" on="1"/>
        <pt x="31" y="89" on="0"/>
        <pt x="26" y="142" on="1"/>
        <pt x="23" y="179" on="0"/>
        <pt x="23" y="237" on="1"/>
        <pt x="18" y="322" on="0"/>
        <pt x="18" y="518" on="0"/>
        <pt x="29" y="569" on="1"/>
        <pt x="48" y="654" on="0"/>
        <pt x="102" y="685" on="1"/>
        <pt x="165" y="716" on="0"/>
        <pt x="228" y="716" on="1"/>
        <pt x="362" y="716" on="0"/>
        <pt x="419" y="647" on="1"/>
        <pt x="452" y="614" on="0"/>
        <pt x="486" y="538" on="0"/>
        <pt x="486" y="452" on="1"/>
        <pt x="484" y="251" on="0"/>
        <pt x="480" y="210" on="1"/>
        <pt x="477" y="177" on="1"/>
        <pt x="469" y="85" on="0"/>
        <pt x="437" y="37" on="1"/>
        <pt x="409" y="-2" on="0"/>
        <pt x="300" y="-39" on="0"/>
      </contour>
      <contour>
        <pt x="240" y="705" on="1"/>
        <pt x="131" y="705" on="0"/>
        <pt x="84" y="658" on="1"/>
        <pt x="55" y="625" on="0"/>
        <pt x="45" y="586" on="1"/>
        <pt x="41" y="569" on="0"/>
        <pt x="35" y="550" on="0"/>
        <pt x="31" y="511" on="0"/>
        <pt x="29" y="496" on="0"/>
        <pt x="28" y="453" on="0"/>
        <pt x="28" y="448" on="1"/>
        <pt x="28" y="397" on="1"/>
        <pt x="28" y="373" on="0"/>
        <pt x="36" y="173" on="1"/>
        <pt x="38" y="70" on="0"/>
        <pt x="133" y="-9" on="0"/>
        <pt x="223" y="-9" on="1"/>
        <pt x="278" y="-9" on="0"/>
        <pt x="383" y="27" on="0"/>
        <pt x="409" y="63" on="1"/>
        <pt x="440" y="111" on="0"/>
        <pt x="447" y="198" on="1"/>
        <pt x="450" y="231" on="1"/>
        <pt x="455" y="288" on="0"/>
        <pt x="455" y="472" on="1"/>
        <pt x="455" y="560" on="0"/>
        <pt x="437" y="597" on="1"/>
        <pt x="418" y="651" on="0"/>
        <pt x="308" y="705" on="0"/>
      </contour>
      <contour>
        <pt x="330" y="305" on="1"/>
        <pt x="330" y="209" on="0"/>
        <pt x="324" y="192" on="1"/>
        <pt x="304" y="131" on="0"/>
        <pt x="235" y="131" on="1"/>
        <pt x="178" y="131" on="0"/>
        <pt x="160" y="176" on="1"/>
        <pt x="147" y="208" on="0"/>
        <pt x="140" y="302" on="0"/>
        <pt x="136" y="350" on="0"/>
        <pt x="136" y="367" on="1"/>
        <pt x="136" y="568" on="0"/>
        <pt x="247" y="568" on="1"/>
        <pt x="328" y="568" on="0"/>
        <pt x="328" y="421" on="1"/>
        <pt x="330" y="353" on="1"/>
      </contour>
      <contour>
        <pt x="318" y="425" on="1"/>
        <pt x="318" y="470" on="0"/>
        <pt x="302" y="524" on="0"/>
        <pt x="282" y="538" on="0"/>
        <pt x="268" y="538" on="1"/>
        <pt x="237" y="538" on="0"/>
        <pt x="185" y="490" on="0"/>
        <pt x="176" y="452" on="1"/>
        <pt x="162" y="395" on="0"/>
        <pt x="168" y="298" on="1"/>
        <pt x="171" y="283" on="0"/>
        <pt x="176" y="234" on="1"/>
        <pt x="181" y="173" on="0"/>
        <pt x="189" y="153" on="1"/>
        <pt x="208" y="141" on="0"/>
        <pt x="275" y="141" on="0"/>
        <pt x="300" y="168" on="1"/>
        <pt x="315" y="188" on="0"/>
        <pt x="320" y="226" on="0"/>
        <pt x="320" y="305" on="1"/>
        <pt x="320" y="353" on="1"/>
        <pt x="318" y="421" on="1"/>
      </contour>
      <contour>
        <pt x="117" y="729" on="1"/>
        <pt x="114" y="749" on="1"/>
        <pt x="97" y="749" on="1"/>
        <pt x="93" y="769" on="0"/>
        <pt x="93" y="803" on="1"/>
        <pt x="95" y="868" on="1"/>
        <pt x="124" y="877" on="0"/>
        <pt x="203" y="877" on="0"/>
        <pt x="224" y="867" on="1"/>
        <pt x="224" y="853" on="1"/>
        <pt x="244" y="847" on="1"/>
        <pt x="244" y="800" on="0"/>
        <pt x="235" y="728" on="1"/>
      </contour>
      <contour>
        <pt x="291" y="729" on="1"/>
        <pt x="288" y="749" on="1"/>
        <pt x="271" y="749" on="1"/>
        <pt x="267" y="769" on="0"/>
        <pt x="267" y="803" on="1"/>
        <pt x="269" y="868" on="1"/>
        <pt x="298" y="877" on="0"/>
        <pt x="377" y="877" on="0"/>
        <pt x="398" y="867" on="1"/>
        <pt x="398" y="853" on="1"/>
        <pt x="410" y="849" on="0"/>
        <pt x="418" y="847" on="1"/>
        <pt x="418" y="800" on="0"/>
        <pt x="409" y="728" on="1"/>
      </contour>
      <contour>
        <pt x="105" y="860" on="1"/>
        <pt x="103" y="799" on="1"/>
        <pt x="103" y="774" on="0"/>
        <pt x="106" y="759" on="1"/>
        <pt x="109" y="759" on="1"/>
        <pt x="206" y="758" on="1"/>
        <pt x="208" y="758" on="1"/>
        <pt x="208" y="760" on="1"/>
        <pt x="208" y="773" on="0"/>
        <pt x="212" y="839" on="1"/>
        <pt x="214" y="861" on="1"/>
        <pt x="203" y="866" on="0"/>
        <pt x="124" y="866" on="0"/>
      </contour>
      <contour>
        <pt x="279" y="860" on="1"/>
        <pt x="277" y="799" on="1"/>
        <pt x="277" y="774" on="0"/>
        <pt x="280" y="759" on="1"/>
        <pt x="382" y="759" on="1"/>
        <pt x="382" y="760" on="1"/>
        <pt x="382" y="773" on="0"/>
        <pt x="386" y="839" on="1"/>
        <pt x="388" y="861" on="1"/>
        <pt x="377" y="866" on="0"/>
        <pt x="298" y="866" on="0"/>
      </contour>
    </TTGlyph>
    <TTGlyph name="Ograve" xMin="19" yMin="-39" xMax="487" yMax="930">
      <contour>
        <pt x="343" y="728" on="1"/>
        <pt x="297" y="718" on="0"/>
        <pt x="203" y="718" on="0"/>
        <pt x="182" y="721" on="1"/>
        <pt x="154" y="754" on="0"/>
        <pt x="112" y="790" on="1"/>
        <pt x="112" y="789" on="1"/>
        <pt x="100" y="799" on="0"/>
        <pt x="52" y="847" on="1"/>
        <pt x="134" y="930" on="1"/>
        <pt x="168" y="903" on="0"/>
        <pt x="293" y="772" on="0"/>
        <pt x="323" y="748" on="1"/>
        <pt x="321" y="746" on="0"/>
      </contour>
      <contour>
        <pt x="319" y="425" on="1"/>
        <pt x="319" y="470" on="0"/>
        <pt x="303" y="524" on="0"/>
        <pt x="283" y="538" on="0"/>
        <pt x="269" y="538" on="1"/>
        <pt x="238" y="538" on="0"/>
        <pt x="186" y="490" on="0"/>
        <pt x="177" y="452" on="1"/>
        <pt x="163" y="395" on="0"/>
        <pt x="169" y="298" on="1"/>
        <pt x="172" y="283" on="0"/>
        <pt x="176" y="234" on="1"/>
        <pt x="182" y="173" on="0"/>
        <pt x="190" y="153" on="1"/>
        <pt x="209" y="141" on="0"/>
        <pt x="276" y="141" on="0"/>
        <pt x="301" y="168" on="1"/>
        <pt x="316" y="188" on="0"/>
        <pt x="321" y="226" on="0"/>
        <pt x="321" y="305" on="1"/>
        <pt x="321" y="353" on="1"/>
        <pt x="319" y="421" on="1"/>
      </contour>
      <contour>
        <pt x="244" y="-39" on="1"/>
        <pt x="99" y="-39" on="0"/>
        <pt x="52" y="58" on="1"/>
        <pt x="52" y="57" on="1"/>
        <pt x="32" y="89" on="0"/>
        <pt x="28" y="142" on="1"/>
        <pt x="24" y="179" on="0"/>
        <pt x="24" y="237" on="1"/>
        <pt x="19" y="322" on="0"/>
        <pt x="19" y="518" on="0"/>
        <pt x="30" y="569" on="1"/>
        <pt x="49" y="654" on="0"/>
        <pt x="103" y="685" on="1"/>
        <pt x="166" y="716" on="0"/>
        <pt x="230" y="716" on="1"/>
        <pt x="363" y="716" on="0"/>
        <pt x="420" y="647" on="1"/>
        <pt x="453" y="614" on="0"/>
        <pt x="487" y="538" on="0"/>
        <pt x="487" y="452" on="1"/>
        <pt x="485" y="251" on="0"/>
        <pt x="481" y="210" on="1"/>
        <pt x="478" y="177" on="1"/>
        <pt x="470" y="85" on="0"/>
        <pt x="438" y="37" on="1"/>
        <pt x="410" y="-2" on="0"/>
        <pt x="301" y="-39" on="0"/>
      </contour>
      <contour>
        <pt x="331" y="305" on="1"/>
        <pt x="331" y="209" on="0"/>
        <pt x="325" y="192" on="1"/>
        <pt x="305" y="131" on="0"/>
        <pt x="236" y="131" on="1"/>
        <pt x="179" y="131" on="0"/>
        <pt x="161" y="176" on="1"/>
        <pt x="148" y="208" on="0"/>
        <pt x="141" y="302" on="0"/>
        <pt x="137" y="350" on="0"/>
        <pt x="137" y="367" on="1"/>
        <pt x="137" y="568" on="0"/>
        <pt x="248" y="568" on="1"/>
        <pt x="329" y="568" on="0"/>
        <pt x="329" y="421" on="1"/>
        <pt x="331" y="353" on="1"/>
      </contour>
      <contour>
        <pt x="241" y="705" on="1"/>
        <pt x="132" y="705" on="0"/>
        <pt x="85" y="658" on="1"/>
        <pt x="56" y="625" on="0"/>
        <pt x="46" y="586" on="1"/>
        <pt x="42" y="569" on="0"/>
        <pt x="36" y="550" on="0"/>
        <pt x="32" y="511" on="0"/>
        <pt x="30" y="496" on="0"/>
        <pt x="29" y="453" on="0"/>
        <pt x="29" y="448" on="1"/>
        <pt x="29" y="397" on="1"/>
        <pt x="29" y="373" on="0"/>
        <pt x="37" y="173" on="1"/>
        <pt x="39" y="70" on="0"/>
        <pt x="134" y="-9" on="0"/>
        <pt x="224" y="-9" on="1"/>
        <pt x="279" y="-9" on="0"/>
        <pt x="384" y="27" on="0"/>
        <pt x="410" y="63" on="1"/>
        <pt x="441" y="111" on="0"/>
        <pt x="448" y="198" on="1"/>
        <pt x="451" y="231" on="1"/>
        <pt x="456" y="288" on="0"/>
        <pt x="456" y="472" on="1"/>
        <pt x="456" y="560" on="0"/>
        <pt x="438" y="597" on="1"/>
        <pt x="419" y="651" on="0"/>
        <pt x="309" y="705" on="0"/>
      </contour>
      <contour>
        <pt x="168" y="750" on="1"/>
        <pt x="178" y="748" on="0"/>
        <pt x="282" y="748" on="0"/>
        <pt x="302" y="754" on="1"/>
        <pt x="296" y="760" on="0"/>
        <pt x="163" y="895" on="0"/>
        <pt x="135" y="917" on="1"/>
        <pt x="66" y="847" on="1"/>
        <pt x="70" y="843" on="0"/>
        <pt x="160" y="761" on="0"/>
      </contour>
    </TTGlyph>
    <TTGlyph name="Oslash" xMin="19" yMin="-51" xMax="483" yMax="734">
      <contour>
        <pt x="312" y="732" on="1"/>
        <pt x="377" y="734" on="1"/>
        <pt x="414" y="734" on="0"/>
        <pt x="434" y="722" on="1"/>
        <pt x="434" y="713" on="0"/>
        <pt x="433" y="710" on="1"/>
        <pt x="440" y="708" on="0"/>
        <pt x="454" y="702" on="1"/>
        <pt x="454" y="681" on="0"/>
        <pt x="435" y="638" on="0"/>
        <pt x="435" y="633" on="1"/>
        <pt x="435" y="631" on="1"/>
        <pt x="483" y="573" on="0"/>
        <pt x="483" y="467" on="1"/>
        <pt x="483" y="451" on="0"/>
        <pt x="481" y="413" on="1"/>
        <pt x="481" y="367" on="1"/>
        <pt x="481" y="199" on="0"/>
        <pt x="464" y="109" on="1"/>
        <pt x="431" y="-29" on="0"/>
        <pt x="253" y="-29" on="1"/>
        <pt x="215" y="-29" on="0"/>
        <pt x="204" y="-31" on="1"/>
        <pt x="194" y="-44" on="0"/>
        <pt x="172" y="-50" on="0"/>
        <pt x="149" y="-50" on="1"/>
        <pt x="117" y="-50" on="1"/>
        <pt x="66" y="-50" on="0"/>
        <pt x="47" y="-51" on="1"/>
        <pt x="44" y="-46" on="0"/>
        <pt x="44" y="-39" on="1"/>
        <pt x="45" y="-30" on="1"/>
        <pt x="30" y="-30" on="0"/>
        <pt x="27" y="-31" on="1"/>
        <pt x="18" y="-13" on="0"/>
        <pt x="47" y="62" on="1"/>
        <pt x="48" y="66" on="0"/>
        <pt x="48" y="68" on="0"/>
        <pt x="49" y="69" on="1"/>
        <pt x="19" y="185" on="0"/>
        <pt x="19" y="340" on="1"/>
        <pt x="19" y="547" on="0"/>
        <pt x="37" y="594" on="1"/>
        <pt x="41" y="605" on="0"/>
        <pt x="46" y="614" on="1"/>
        <pt x="46" y="613" on="1"/>
        <pt x="66" y="653" on="0"/>
        <pt x="92" y="679" on="1"/>
        <pt x="137" y="714" on="0"/>
        <pt x="220" y="714" on="1"/>
        <pt x="239" y="714" on="0"/>
        <pt x="271" y="712" on="1"/>
        <pt x="273" y="729" on="0"/>
        <pt x="284" y="733" on="0"/>
        <pt x="297" y="732" on="0"/>
      </contour>
      <contour>
        <pt x="452" y="316" on="1"/>
        <pt x="451" y="434" on="1"/>
        <pt x="453" y="468" on="0"/>
        <pt x="453" y="487" on="1"/>
        <pt x="453" y="592" on="0"/>
        <pt x="406" y="645" on="1"/>
        <pt x="406" y="650" on="1"/>
        <pt x="406" y="660" on="0"/>
        <pt x="423" y="703" on="0"/>
        <pt x="424" y="716" on="1"/>
        <pt x="415" y="723" on="0"/>
        <pt x="379" y="723" on="1"/>
        <pt x="314" y="722" on="1"/>
        <pt x="296" y="722" on="0"/>
        <pt x="289" y="723" on="1"/>
        <pt x="288" y="723" on="1"/>
        <pt x="282" y="723" on="0"/>
        <pt x="280" y="702" on="0"/>
        <pt x="278" y="701" on="1"/>
        <pt x="221" y="704" on="0"/>
        <pt x="220" y="704" on="1"/>
        <pt x="141" y="704" on="0"/>
        <pt x="98" y="671" on="1"/>
        <pt x="72" y="645" on="0"/>
        <pt x="46" y="588" on="0"/>
        <pt x="40" y="556" on="0"/>
        <pt x="34" y="475" on="0"/>
        <pt x="29" y="408" on="0"/>
        <pt x="29" y="339" on="1"/>
        <pt x="29" y="187" on="0"/>
        <pt x="59" y="71" on="1"/>
        <pt x="59" y="67" on="1"/>
        <pt x="58" y="63" on="0"/>
        <pt x="50" y="43" on="1"/>
        <pt x="32" y="-6" on="0"/>
        <pt x="32" y="-20" on="0"/>
        <pt x="33" y="-21" on="1"/>
        <pt x="44" y="-20" on="0"/>
        <pt x="70" y="-20" on="1"/>
        <pt x="122" y="-20" on="1"/>
        <pt x="156" y="-20" on="0"/>
        <pt x="164" y="-18" on="1"/>
        <pt x="165" y="-17" on="1"/>
        <pt x="178" y="-8" on="0"/>
        <pt x="178" y="-2" on="1"/>
        <pt x="180" y="-2" on="1"/>
        <pt x="196" y="0" on="0"/>
        <pt x="272" y="1" on="0"/>
        <pt x="320" y="6" on="0"/>
        <pt x="369" y="26" on="0"/>
        <pt x="402" y="65" on="0"/>
        <pt x="427" y="105" on="0"/>
        <pt x="441" y="168" on="0"/>
        <pt x="445" y="192" on="1"/>
        <pt x="452" y="234" on="0"/>
      </contour>
      <contour>
        <pt x="322" y="391" on="1"/>
        <pt x="328" y="280" on="1"/>
        <pt x="328" y="224" on="0"/>
        <pt x="320" y="194" on="1"/>
        <pt x="308" y="144" on="0"/>
        <pt x="231" y="130" on="1"/>
        <pt x="229" y="131" on="1"/>
        <pt x="311" y="365" on="0"/>
        <pt x="322" y="395" on="1"/>
      </contour>
      <contour>
        <pt x="138" y="300" on="1"/>
        <pt x="139" y="316" on="1"/>
        <pt x="141" y="339" on="1"/>
        <pt x="143" y="357" on="0"/>
        <pt x="147" y="429" on="0"/>
        <pt x="152" y="476" on="0"/>
        <pt x="159" y="503" on="1"/>
        <pt x="173" y="557" on="0"/>
        <pt x="226" y="563" on="1"/>
        <pt x="234" y="562" on="1"/>
        <pt x="218" y="508" on="0"/>
        <pt x="151" y="311" on="0"/>
        <pt x="141" y="279" on="1"/>
        <pt x="138" y="286" on="0"/>
      </contour>
      <contour>
        <pt x="274" y="155" on="1"/>
        <pt x="301" y="168" on="0"/>
        <pt x="308" y="189" on="1"/>
        <pt x="319" y="237" on="0"/>
        <pt x="319" y="283" on="1"/>
        <pt x="281" y="180" on="0"/>
      </contour>
      <contour>
        <pt x="183" y="459" on="1"/>
        <pt x="183" y="456" on="0"/>
        <pt x="182" y="431" on="0"/>
        <pt x="182" y="430" on="1"/>
        <pt x="197" y="478" on="0"/>
        <pt x="208" y="515" on="1"/>
        <pt x="183" y="494" on="0"/>
      </contour>
    </TTGlyph>
    <TTGlyph name="Otilde" xMin="18" yMin="-39" xMax="486" yMax="920">
      <contour>
        <pt x="243" y="-39" on="1"/>
        <pt x="98" y="-39" on="0"/>
        <pt x="51" y="58" on="1"/>
        <pt x="51" y="57" on="1"/>
        <pt x="31" y="89" on="0"/>
        <pt x="26" y="142" on="1"/>
        <pt x="23" y="179" on="0"/>
        <pt x="23" y="237" on="1"/>
        <pt x="18" y="322" on="0"/>
        <pt x="18" y="518" on="0"/>
        <pt x="29" y="569" on="1"/>
        <pt x="48" y="654" on="0"/>
        <pt x="102" y="685" on="1"/>
        <pt x="165" y="716" on="0"/>
        <pt x="228" y="716" on="1"/>
        <pt x="362" y="716" on="0"/>
        <pt x="419" y="647" on="1"/>
        <pt x="452" y="614" on="0"/>
        <pt x="486" y="538" on="0"/>
        <pt x="486" y="452" on="1"/>
        <pt x="484" y="251" on="0"/>
        <pt x="480" y="210" on="1"/>
        <pt x="477" y="177" on="1"/>
        <pt x="469" y="85" on="0"/>
        <pt x="437" y="37" on="1"/>
        <pt x="409" y="-2" on="0"/>
        <pt x="300" y="-39" on="0"/>
      </contour>
      <contour>
        <pt x="240" y="705" on="1"/>
        <pt x="131" y="705" on="0"/>
        <pt x="84" y="658" on="1"/>
        <pt x="55" y="625" on="0"/>
        <pt x="45" y="586" on="1"/>
        <pt x="41" y="569" on="0"/>
        <pt x="35" y="550" on="0"/>
        <pt x="31" y="511" on="0"/>
        <pt x="29" y="496" on="0"/>
        <pt x="28" y="453" on="0"/>
        <pt x="28" y="448" on="1"/>
        <pt x="28" y="397" on="1"/>
        <pt x="28" y="373" on="0"/>
        <pt x="36" y="173" on="1"/>
        <pt x="38" y="70" on="0"/>
        <pt x="133" y="-9" on="0"/>
        <pt x="223" y="-9" on="1"/>
        <pt x="278" y="-9" on="0"/>
        <pt x="383" y="27" on="0"/>
        <pt x="409" y="63" on="1"/>
        <pt x="440" y="111" on="0"/>
        <pt x="447" y="198" on="1"/>
        <pt x="450" y="231" on="1"/>
        <pt x="455" y="288" on="0"/>
        <pt x="455" y="472" on="1"/>
        <pt x="455" y="560" on="0"/>
        <pt x="437" y="597" on="1"/>
        <pt x="418" y="651" on="0"/>
        <pt x="308" y="705" on="0"/>
      </contour>
      <contour>
        <pt x="330" y="305" on="1"/>
        <pt x="330" y="209" on="0"/>
        <pt x="324" y="192" on="1"/>
        <pt x="304" y="131" on="0"/>
        <pt x="235" y="131" on="1"/>
        <pt x="178" y="131" on="0"/>
        <pt x="160" y="176" on="1"/>
        <pt x="147" y="208" on="0"/>
        <pt x="140" y="302" on="0"/>
        <pt x="136" y="350" on="0"/>
        <pt x="136" y="367" on="1"/>
        <pt x="136" y="568" on="0"/>
        <pt x="247" y="568" on="1"/>
        <pt x="328" y="568" on="0"/>
        <pt x="328" y="421" on="1"/>
        <pt x="330" y="353" on="1"/>
      </contour>
      <contour>
        <pt x="174" y="713" on="1"/>
        <pt x="157" y="717" on="0"/>
        <pt x="79" y="717" on="0"/>
        <pt x="45" y="715" on="1"/>
        <pt x="46" y="723" on="0"/>
        <pt x="51" y="736" on="1"/>
        <pt x="45" y="736" on="0"/>
        <pt x="28" y="735" on="0"/>
        <pt x="25" y="735" on="1"/>
        <pt x="72" y="920" on="0"/>
        <pt x="181" y="920" on="1"/>
        <pt x="238" y="920" on="0"/>
        <pt x="288" y="854" on="1"/>
        <pt x="288" y="855" on="1"/>
        <pt x="292" y="846" on="0"/>
        <pt x="318" y="846" on="0"/>
        <pt x="346" y="889" on="0"/>
        <pt x="351" y="908" on="1"/>
        <pt x="377" y="911" on="0"/>
        <pt x="428" y="911" on="1"/>
        <pt x="448" y="913" on="0"/>
        <pt x="452" y="902" on="1"/>
        <pt x="453" y="898" on="0"/>
        <pt x="453" y="891" on="1"/>
        <pt x="464" y="891" on="0"/>
        <pt x="473" y="882" on="0"/>
        <pt x="474" y="875" on="0"/>
        <pt x="474" y="863" on="1"/>
        <pt x="474" y="801" on="0"/>
        <pt x="402" y="709" on="0"/>
        <pt x="348" y="709" on="1"/>
        <pt x="313" y="709" on="0"/>
        <pt x="250" y="750" on="0"/>
        <pt x="238" y="780" on="1"/>
        <pt x="228" y="782" on="0"/>
        <pt x="208" y="782" on="0"/>
        <pt x="182" y="763" on="0"/>
        <pt x="182" y="736" on="0"/>
        <pt x="186" y="727" on="1"/>
      </contour>
      <contour>
        <pt x="318" y="425" on="1"/>
        <pt x="318" y="470" on="0"/>
        <pt x="302" y="524" on="0"/>
        <pt x="282" y="538" on="0"/>
        <pt x="268" y="538" on="1"/>
        <pt x="237" y="538" on="0"/>
        <pt x="185" y="490" on="0"/>
        <pt x="176" y="452" on="1"/>
        <pt x="162" y="395" on="0"/>
        <pt x="168" y="298" on="1"/>
        <pt x="171" y="283" on="0"/>
        <pt x="176" y="234" on="1"/>
        <pt x="181" y="173" on="0"/>
        <pt x="189" y="153" on="1"/>
        <pt x="208" y="141" on="0"/>
        <pt x="275" y="141" on="0"/>
        <pt x="300" y="168" on="1"/>
        <pt x="315" y="188" on="0"/>
        <pt x="320" y="226" on="0"/>
        <pt x="320" y="305" on="1"/>
        <pt x="320" y="353" on="1"/>
        <pt x="318" y="421" on="1"/>
      </contour>
      <contour>
        <pt x="444" y="879" on="1"/>
        <pt x="444" y="898" on="0"/>
        <pt x="440" y="902" on="1"/>
        <pt x="359" y="899" on="0"/>
        <pt x="358" y="899" on="1"/>
        <pt x="352" y="878" on="0"/>
        <pt x="322" y="836" on="0"/>
        <pt x="288" y="836" on="0"/>
        <pt x="255" y="873" on="0"/>
        <pt x="211" y="910" on="0"/>
        <pt x="180" y="910" on="1"/>
        <pt x="84" y="910" on="0"/>
        <pt x="39" y="746" on="1"/>
        <pt x="56" y="747" on="0"/>
        <pt x="139" y="747" on="0"/>
        <pt x="156" y="743" on="1"/>
        <pt x="156" y="744" on="1"/>
        <pt x="152" y="753" on="0"/>
        <pt x="152" y="785" on="0"/>
        <pt x="183" y="812" on="0"/>
        <pt x="231" y="812" on="0"/>
        <pt x="245" y="789" on="1"/>
        <pt x="266" y="739" on="0"/>
        <pt x="328" y="739" on="1"/>
        <pt x="377" y="739" on="0"/>
        <pt x="444" y="824" on="0"/>
      </contour>
    </TTGlyph>
    <TTGlyph name="P" xMin="27" yMin="-28" xMax="514" yMax="724">
      <contour>
        <pt x="54" y="-23" on="1"/>
        <pt x="54" y="-3" on="0"/>
        <pt x="43" y="-3" on="1"/>
        <pt x="34" y="-3" on="1"/>
        <pt x="30" y="94" on="0"/>
        <pt x="30" y="339" on="1"/>
        <pt x="30" y="460" on="1"/>
        <pt x="30" y="628" on="0"/>
        <pt x="27" y="703" on="1"/>
        <pt x="103" y="724" on="0"/>
        <pt x="266" y="724" on="0"/>
        <pt x="408" y="673" on="0"/>
        <pt x="509" y="555" on="0"/>
        <pt x="514" y="471" on="1"/>
        <pt x="514" y="470" on="1"/>
        <pt x="514" y="373" on="0"/>
        <pt x="363" y="230" on="0"/>
        <pt x="266" y="230" on="1"/>
        <pt x="249" y="230" on="0"/>
        <pt x="241" y="231" on="1"/>
        <pt x="241" y="189" on="1"/>
        <pt x="241" y="93" on="0"/>
        <pt x="244" y="-19" on="1"/>
        <pt x="240" y="-19" on="0"/>
        <pt x="166" y="-28" on="0"/>
        <pt x="96" y="-28" on="0"/>
      </contour>
      <contour>
        <pt x="44" y="6" on="1"/>
        <pt x="71" y="2" on="0"/>
        <pt x="199" y="2" on="0"/>
        <pt x="214" y="12" on="1"/>
        <pt x="211" y="109" on="0"/>
        <pt x="211" y="196" on="1"/>
        <pt x="211" y="235" on="1"/>
        <pt x="211" y="254" on="0"/>
        <pt x="210" y="263" on="1"/>
        <pt x="228" y="260" on="0"/>
        <pt x="246" y="260" on="1"/>
        <pt x="334" y="260" on="0"/>
        <pt x="484" y="388" on="0"/>
        <pt x="484" y="476" on="1"/>
        <pt x="484" y="491" on="1"/>
        <pt x="481" y="551" on="0"/>
        <pt x="427" y="641" on="0"/>
        <pt x="383" y="666" on="1"/>
        <pt x="296" y="714" on="0"/>
        <pt x="182" y="714" on="1"/>
        <pt x="111" y="714" on="0"/>
        <pt x="37" y="695" on="1"/>
        <pt x="41" y="583" on="0"/>
        <pt x="41" y="340" on="1"/>
        <pt x="41" y="164" on="1"/>
        <pt x="41" y="80" on="0"/>
      </contour>
      <contour>
        <pt x="184" y="483" on="1"/>
        <pt x="184" y="521" on="1"/>
        <pt x="184" y="538" on="0"/>
        <pt x="183" y="555" on="1"/>
        <pt x="189" y="561" on="0"/>
        <pt x="275" y="561" on="0"/>
        <pt x="309" y="533" on="1"/>
        <pt x="340" y="514" on="0"/>
        <pt x="340" y="475" on="1"/>
        <pt x="340" y="425" on="0"/>
        <pt x="286" y="412" on="1"/>
        <pt x="254" y="405" on="0"/>
        <pt x="195" y="405" on="1"/>
        <pt x="192" y="405" on="1"/>
        <pt x="184" y="429" on="0"/>
      </contour>
      <contour>
        <pt x="320" y="443" on="1"/>
        <pt x="330" y="456" on="0"/>
        <pt x="330" y="505" on="0"/>
        <pt x="278" y="531" on="0"/>
        <pt x="226" y="531" on="0"/>
        <pt x="213" y="527" on="1"/>
        <pt x="214" y="512" on="0"/>
        <pt x="214" y="484" on="1"/>
        <pt x="214" y="455" on="1"/>
        <pt x="214" y="424" on="0"/>
        <pt x="216" y="416" on="1"/>
        <pt x="221" y="416" on="1"/>
        <pt x="301" y="416" on="0"/>
      </contour>
    </TTGlyph>
    <TTGlyph name="Q" xMin="20" yMin="-38" xMax="498" yMax="724">
      <contour>
        <pt x="493" y="211" on="1"/>
        <pt x="493" y="129" on="0"/>
        <pt x="460" y="60" on="1"/>
        <pt x="477" y="43" on="0"/>
        <pt x="477" y="5" on="0"/>
        <pt x="424" y="-38" on="0"/>
        <pt x="397" y="-38" on="1"/>
        <pt x="382" y="-38" on="0"/>
        <pt x="359" y="-11" on="1"/>
        <pt x="319" y="-37" on="0"/>
        <pt x="201" y="-37" on="0"/>
        <pt x="127" y="3" on="0"/>
        <pt x="45" y="84" on="0"/>
        <pt x="20" y="181" on="0"/>
        <pt x="20" y="252" on="1"/>
        <pt x="20" y="391" on="1"/>
        <pt x="20" y="541" on="0"/>
        <pt x="42" y="621" on="1"/>
        <pt x="56" y="666" on="0"/>
        <pt x="174" y="724" on="0"/>
        <pt x="314" y="724" on="0"/>
        <pt x="381" y="706" on="0"/>
        <pt x="408" y="673" on="1"/>
        <pt x="498" y="604" on="0"/>
        <pt x="498" y="348" on="1"/>
      </contour>
      <contour>
        <pt x="468" y="368" on="1"/>
        <pt x="468" y="511" on="0"/>
        <pt x="439" y="602" on="1"/>
        <pt x="408" y="676" on="0"/>
        <pt x="332" y="714" on="0"/>
        <pt x="178" y="714" on="0"/>
        <pt x="66" y="660" on="0"/>
        <pt x="52" y="618" on="1"/>
        <pt x="30" y="539" on="0"/>
        <pt x="30" y="381" on="1"/>
        <pt x="30" y="235" on="1"/>
        <pt x="30" y="171" on="0"/>
        <pt x="67" y="67" on="0"/>
        <pt x="166" y="-7" on="0"/>
        <pt x="242" y="-7" on="1"/>
        <pt x="271" y="-7" on="0"/>
        <pt x="329" y="11" on="0"/>
        <pt x="340" y="24" on="1"/>
        <pt x="347" y="14" on="0"/>
        <pt x="371" y="-8" on="0"/>
        <pt x="377" y="-8" on="1"/>
        <pt x="399" y="-8" on="0"/>
        <pt x="447" y="30" on="0"/>
        <pt x="447" y="48" on="1"/>
        <pt x="447" y="55" on="0"/>
        <pt x="428" y="78" on="1"/>
        <pt x="452" y="135" on="0"/>
        <pt x="456" y="165" on="1"/>
        <pt x="462" y="187" on="0"/>
        <pt x="464" y="253" on="0"/>
        <pt x="468" y="304" on="0"/>
      </contour>
      <contour>
        <pt x="301" y="232" on="0"/>
        <pt x="287" y="232" on="0"/>
        <pt x="275" y="225" on="0"/>
        <pt x="262" y="213" on="0"/>
        <pt x="255" y="208" on="0"/>
        <pt x="234" y="197" on="0"/>
        <pt x="226" y="188" on="0"/>
        <pt x="226" y="179" on="1"/>
        <pt x="226" y="159" on="0"/>
        <pt x="269" y="116" on="1"/>
        <pt x="267" y="115" on="0"/>
        <pt x="260" y="115" on="1"/>
        <pt x="251" y="115" on="1"/>
        <pt x="196" y="115" on="0"/>
        <pt x="152" y="182" on="0"/>
        <pt x="152" y="271" on="1"/>
        <pt x="152" y="410" on="0"/>
        <pt x="164" y="540" on="0"/>
        <pt x="193" y="565" on="0"/>
        <pt x="294" y="565" on="0"/>
        <pt x="332" y="524" on="0"/>
        <pt x="336" y="484" on="1"/>
        <pt x="344" y="378" on="0"/>
        <pt x="344" y="223" on="0"/>
        <pt x="334" y="182" on="1"/>
        <pt x="327" y="189" on="0"/>
        <pt x="314" y="215" on="0"/>
      </contour>
      <contour>
        <pt x="183" y="297" on="1"/>
        <pt x="182" y="245" on="1"/>
        <pt x="182" y="184" on="0"/>
        <pt x="191" y="154" on="1"/>
        <pt x="190" y="155" on="1"/>
        <pt x="199" y="125" on="0"/>
        <pt x="247" y="125" on="1"/>
        <pt x="216" y="156" on="0"/>
        <pt x="216" y="192" on="0"/>
        <pt x="229" y="206" on="0"/>
        <pt x="254" y="218" on="0"/>
        <pt x="262" y="226" on="1"/>
        <pt x="283" y="242" on="0"/>
        <pt x="303" y="242" on="0"/>
        <pt x="322" y="220" on="0"/>
        <pt x="328" y="217" on="1"/>
        <pt x="330" y="244" on="0"/>
        <pt x="332" y="248" on="1"/>
        <pt x="333" y="259" on="0"/>
        <pt x="333" y="286" on="1"/>
        <pt x="333" y="361" on="1"/>
        <pt x="333" y="493" on="0"/>
        <pt x="314" y="525" on="1"/>
        <pt x="297" y="535" on="0"/>
        <pt x="219" y="535" on="0"/>
        <pt x="194" y="513" on="0"/>
        <pt x="183" y="387" on="0"/>
        <pt x="183" y="323" on="1"/>
      </contour>
    </TTGlyph>
    <TTGlyph name="R" xMin="21" yMin="-31" xMax="551" yMax="727">
      <contour>
        <pt x="179" y="559" on="1"/>
        <pt x="215" y="575" on="0"/>
        <pt x="284" y="575" on="0"/>
        <pt x="328" y="534" on="0"/>
        <pt x="328" y="463" on="0"/>
        <pt x="287" y="433" on="0"/>
        <pt x="210" y="433" on="0"/>
        <pt x="185" y="436" on="1"/>
        <pt x="184" y="436" on="1"/>
        <pt x="181" y="453" on="0"/>
        <pt x="180" y="545" on="0"/>
      </contour>
      <contour>
        <pt x="210" y="457" on="1"/>
        <pt x="211" y="443" on="1"/>
        <pt x="241" y="443" on="1"/>
        <pt x="263" y="443" on="0"/>
        <pt x="284" y="446" on="1"/>
        <pt x="319" y="453" on="0"/>
        <pt x="319" y="545" on="0"/>
        <pt x="270" y="545" on="1"/>
        <pt x="242" y="545" on="0"/>
        <pt x="209" y="532" on="1"/>
        <pt x="211" y="506" on="0"/>
        <pt x="211" y="486" on="1"/>
      </contour>
      <contour>
        <pt x="137" y="-31" on="1"/>
        <pt x="93" y="-30" on="1"/>
        <pt x="35" y="-30" on="1"/>
        <pt x="34" y="-10" on="0"/>
        <pt x="34" y="52" on="0"/>
        <pt x="34" y="153" on="0"/>
        <pt x="34" y="319" on="0"/>
        <pt x="27" y="663" on="0"/>
        <pt x="21" y="707" on="1"/>
        <pt x="161" y="727" on="0"/>
        <pt x="223" y="727" on="1"/>
        <pt x="389" y="727" on="0"/>
        <pt x="461" y="643" on="1"/>
        <pt x="533" y="554" on="0"/>
        <pt x="533" y="409" on="0"/>
        <pt x="447" y="285" on="0"/>
        <pt x="374" y="277" on="1"/>
        <pt x="394" y="242" on="0"/>
        <pt x="432" y="186" on="1"/>
        <pt x="516" y="64" on="0"/>
        <pt x="545" y="-14" on="1"/>
        <pt x="551" y="-27" on="1"/>
        <pt x="537" y="-27" on="1"/>
        <pt x="416" y="-31" on="1"/>
        <pt x="395" y="-31" on="0"/>
        <pt x="363" y="-29" on="1"/>
        <pt x="362" y="-27" on="0"/>
        <pt x="358" y="-18" on="0"/>
        <pt x="356" y="-16" on="1"/>
        <pt x="353" y="-9" on="0"/>
        <pt x="343" y="-9" on="1"/>
        <pt x="291" y="114" on="0"/>
        <pt x="236" y="199" on="1"/>
        <pt x="236" y="173" on="1"/>
        <pt x="244" y="-15" on="1"/>
        <pt x="211" y="-31" on="0"/>
      </contour>
      <contour>
        <pt x="50" y="1" on="1"/>
        <pt x="111" y="-1" on="1"/>
        <pt x="189" y="-1" on="0"/>
        <pt x="214" y="11" on="1"/>
        <pt x="206" y="110" on="0"/>
        <pt x="206" y="230" on="0"/>
        <pt x="209" y="255" on="1"/>
        <pt x="211" y="252" on="1"/>
        <pt x="278" y="169" on="0"/>
        <pt x="350" y="1" on="1"/>
        <pt x="351" y="1" on="1"/>
        <pt x="385" y="-1" on="0"/>
        <pt x="424" y="-1" on="0"/>
        <pt x="500" y="3" on="0"/>
        <pt x="516" y="3" on="1"/>
        <pt x="492" y="68" on="0"/>
        <pt x="348" y="287" on="0"/>
        <pt x="338" y="305" on="1"/>
        <pt x="343" y="306" on="1"/>
        <pt x="418" y="312" on="0"/>
        <pt x="502" y="430" on="0"/>
        <pt x="502" y="581" on="0"/>
        <pt x="384" y="709" on="0"/>
        <pt x="296" y="713" on="1"/>
        <pt x="263" y="717" on="0"/>
        <pt x="159" y="717" on="0"/>
        <pt x="33" y="699" on="1"/>
        <pt x="44" y="641" on="0"/>
        <pt x="44" y="203" on="1"/>
        <pt x="44" y="100" on="1"/>
        <pt x="44" y="52" on="0"/>
        <pt x="43" y="33" on="1"/>
        <pt x="43" y="2" on="1"/>
        <pt x="46" y="1" on="0"/>
      </contour>
    </TTGlyph>
</ttFont>
